<?xml version="1.0" standalone="no"?>
<!DOCTYPE svg PUBLIC "-//W3C//DTD SVG 1.1//EN" "http://www.w3.org/Graphics/SVG/1.1/DTD/svg11.dtd" >
<svg>
<metadata>
Created by FontForge 20090622 at Mon Jun  8 07:31:23 2020
 By deploy user
Otamendi &#194;&#169; (Pen Culture). 2020. All Rights Reserved
</metadata>
<defs>
<font id="Otamendi" horiz-adv-x="691" >
  <font-face 
    font-family="Otamendi"
    font-weight="400"
    font-stretch="normal"
    units-per-em="1000"
    panose-1="2 0 5 0 0 0 0 0 0 0"
    ascent="800"
    descent="-200"
    x-height="338"
    cap-height="811"
    bbox="-691 -459 1227 928.364"
    underline-thickness="50"
    underline-position="-50"
    unicode-range="U+001D-U+2212"
  />
<missing-glyph horiz-adv-x="500" 
d="M500 0h-402v700h402v-700zM476 24v652h-354v-652h354zM282 222h-15q-17 44 -17 72q0 37 39 106q40 70 40 106q0 28 -16 44t-44 16q-29 0 -61 -27v22q39 35 83 35t71.5 -22.5t27.5 -62.5q0 -44 -53 -112l-49 -64q-17 -26 -17 -48q0 -16 11 -65zM277 104q-5 0 -10 5l-30 35
q-3 3 -3 8q0 6 5 11l28 28q4 5 10 5q3 0 10 -5l28 -29q4 -5 4 -10q0 -4 -5 -11l-27 -30q-7 -7 -10 -7z" />
    <glyph glyph-name=".notdef" horiz-adv-x="500" 
d="M500 0h-402v700h402v-700zM476 24v652h-354v-652h354zM282 222h-15q-17 44 -17 72q0 37 39 106q40 70 40 106q0 28 -16 44t-44 16q-29 0 -61 -27v22q39 35 83 35t71.5 -22.5t27.5 -62.5q0 -44 -53 -112l-49 -64q-17 -26 -17 -48q0 -16 11 -65zM277 104q-5 0 -10 5l-30 35
q-3 3 -3 8q0 6 5 11l28 28q4 5 10 5q3 0 10 -5l28 -29q4 -5 4 -10q0 -4 -5 -11l-27 -30q-7 -7 -10 -7z" />
    <glyph glyph-name=".null" horiz-adv-x="0" 
 />
    <glyph glyph-name=".null" horiz-adv-x="0" 
 />
    <glyph glyph-name="nonmarkingreturn" horiz-adv-x="508" 
 />
    <glyph glyph-name="space" unicode=" " horiz-adv-x="358" 
 />
    <glyph glyph-name="space" unicode="&#xa0;" horiz-adv-x="358" 
 />
    <glyph glyph-name="exclam" unicode="!" horiz-adv-x="170" 
d="M61 -84q-16 6 -16 21q-1 9 5 16t16 8h3q21 -2 21 -22q2 -13 -12 -21q-4 -3 -9 -3t-8 1zM74 -9q-7 3 -7 16q-2 31 19 110q98 380 219 591q47 83 72 83q7 1 13 -5t6 -12q0 -8 -8 -19q-32 -39 -89 -165.5t-106 -267.5q-59 -166 -94 -312q-6 -23 -16 -23q-5 0 -9 4z" />
    <glyph glyph-name="quotedbl" unicode="&#x22;" horiz-adv-x="264" 
d="M230 571q-6 6 -6 20q0 34 29 80.5t53 46.5q10 0 16 -6t6 -15q0 -13 -13 -19q-6 -2 -17 -16q-40 -52 -43 -78q-2 -17 -14 -17q-6 0 -11 4zM321 575q-6 6 -6 18q0 11 8 35q31 81 68 81q5 0 13 -4q12 -6 12 -19q0 -16 -14 -16q-7 0 -25.5 -27.5t-27.5 -52.5q-6 -19 -18 -19
q-6 0 -10 4z" />
    <glyph glyph-name="numbersign" unicode="#" horiz-adv-x="501" 
d="M257 2q-13 7 -13 32q0 18 6 43q2 14 2 17q0 7 -10 7q-3 0 -8 -0.5t-14 -1.5t-16 -2h-4q-15 0 -15 14q0 11 13 17q23 7 52 8q16 3 16 6q0 8 25 62q0 2 -9 2q-43 0 -61 -9q-6 -3 -11 -3q-9 0 -15 6t-6 14q0 7 6 13q14 13 93 21q19 2 24 5t14 18q53 94 82 94q10 0 19 -9
q7 -7 7 -21q0 -13 -7 -24.5t-17 -12.5q-5 0 -20 -18t-15 -24l1 -2q4 -2 19 -2q31 0 34 5q45 73 70 73q5 0 13 -3q9 -6 9 -20q0 -21 -15 -25q-8 -3 -17 -17q-9 -15 -9 -17t5 -2q65 -11 65 -32q0 -17 -21 -17h-8q-42 7 -64 7h-1q-3 -2 -15 -30.5t-12 -31.5q0 -1 23 -5
q55 -4 61 -23q1 -3 1 -7q0 -12 -20 -12q-9 0 -14 1q-12 1 -27.5 2t-24.5 2l-9 1q-7 -14 -12 -51q-4 -26 -17 -26h-3q-20 3 -20 36q0 12 3 27l1 14q-2 2 -34 2t-34 -2q-4 -5 -9.5 -30t-5.5 -38q0 -5 1 -5q1 -1 1 -5q0 -8 -2 -14q-6 -11 -19 -11q-7 0 -12 4zM388 160
q2 8 11 31l2 6t1 4q0 5 -24 6q-4 0 -10 0.5t-8 0.5q-7 0 -10 -3t-8 -13q-2 -4 -3 -7q-16 -34 -16 -37q0 -5 13 -5h15q24 0 28.5 2t8.5 15z" />
    <glyph glyph-name="dollar" unicode="$" horiz-adv-x="458" 
d="M151 -43q-12 7 -12 36q0 12 3 30q0 5 1 10.5t1.5 9t0.5 4.5q0 3 -12 7q-28 9 -43.5 25t-14.5 34q0 11 6 21q12 16 23 16q8 0 8 -9q0 -5 -3 -11l-4 -16q0 -3 3 -8q4 -7 18.5 -14.5t22.5 -8.5q4 0 4 2q22 87 44 142q8 20 8 26q0 3 -3 3q-4 0 -27.5 6.5t-30.5 9.5
q-38 15 -36 43q1 34 51 73t131 65q13 4 17 7.5t17 24.5q50 81 78 81q2 0 8 -2q8 -4 8 -11t-9 -16q-23 -23 -44 -59q-1 -2 -3 -5q-1 -1 -1 -2t2 -1h6q10 1 28 1q72 -2 72 -44q-2 -24 -29 -53q-22 -21 -33 -21q-7 0 -11 7q-3 6 -3 11q0 9 15 24q18 20 18 25v1l-1 1q-6 3 -20 3
q-32 0 -65 -10q-8 -1 -11 -4t-10 -18q-8 -15 -21 -43l-22 -49t-10 -23q2 0 13 -3q52 -16 78.5 -43t25.5 -58q-1 -44 -50.5 -81t-133.5 -46q-11 -1 -13 -2.5t-4 -10.5q-8 -34 -8 -52v-11q0 -17 -13 -17q-5 0 -10 3zM212 84q61 10 100 36.5t40 55.5q0 27 -32 44q-40 21 -66 24
l-2 -1q-2 -3 -22.5 -57t-27.5 -77q-6 -23 -8 -25v-1q0 -2 2 -2t16 3zM231 309q2 4 10 21.5l12 26.5l8 14.5t6 12.5l2 4h-1q-4 1 -28.5 -11.5t-42.5 -24.5q-45 -26 -45 -38v-2q4 -5 29.5 -13.5t38.5 -9.5q2 0 11 20z" />
    <glyph glyph-name="percent" unicode="%" horiz-adv-x="431" 
d="M249 -25q-26 14 -25 48q3 76 176 363q61 101 61 108l-1 1q-8 0 -103 -80q-54 -43 -74 -55.5t-33 -12.5l-4 1q-29 3 -27 37q2 55 57 107q38 37 74 35q33 -2 46 -32q2 -3 3 -3t11 7q44 30 64 30q14 0 18 -12q4 -8 3 -14q0 -15 -17 -50.5t-70 -133.5q-141 -258 -142 -298
q0 -15 12 -15q8 -1 11.5 -3.5t2.5 -7.5q0 -5 -3 -11q-7 -12 -27 -12l-6 1q-5 1 -7 2zM285 403q75 54 75 68q0 2 -1 3q-1 3 -5 3q-10 1 -30 -15t-35 -37q-16 -21 -18 -28l1 -1q1 0 13 7zM382 -5q-32 8 -30 48q0 45 42 93q21 25 40 25q9 0 13 -7q1 -3 3 -3q1 0 3 2q1 0 3 0.5
t3 0.5q20 -2 18 -43q-2 -30 -12 -52q-28 -56 -66 -64l-10 -2q-1 0 -7 2zM403 36q18 11 31.5 36t14.5 49q0 8 -2 8q-3 0 -11 -11q-41 -53 -41 -79q0 -5 3 -5q1 0 5 2z" />
    <glyph glyph-name="ampersand" unicode="&#x26;" horiz-adv-x="614" 
d="M35 -117q-37 7 -37 42q0 89 232 336q23 24 26.5 32t3.5 31q1 90 52 194t123 173t132 69q13 0 23 -3q36 -10 36 -41q0 -43 -69 -134t-219 -247q-33 -34 -33 -45q0 -3 1.5 -10.5t1.5 -12.5q6 -35 23 -86t25 -59q3 0 50.5 46.5t71.5 73.5q81 94 81 119q0 15 18 15q7 0 11 -3
q9 -6 9 -19q0 -34 -56 -106.5t-147 -155.5q-10 -8 -10 -11q0 -2 9 -11q14 -13 14 -23q0 -11 -15 -11q-16 0 -33 14q-4 4 -6 4q-3 0 -14 -10q-91 -76 -167.5 -119t-121.5 -43q-10 0 -15 1zM81 -77q69 20 199 128q45 37 46 42q1 2 1 3q0 4 -5 12q-29 56 -43 113q-1 5 -3 13
t-3.5 13t-1.5 6h-1q-2 0 -79 -87q-151 -165 -151 -226q0 -20 21 -20q8 0 20 3zM343 382q249 267 249 329q0 16 -18 16q-50 0 -111 -59t-106 -148t-53 -169v-5l-1 -2l1 -2q2 0 39 40z" />
    <glyph glyph-name="quotesingle" unicode="'" horiz-adv-x="169" 
d="M217 599q-7 4 -7 18q0 13 6 29q14 36 34 59.5t36 23.5q7 0 11 -4q8 -8 8 -17q0 -18 -9 -18q-7 0 -24.5 -22t-29.5 -49q-8 -22 -18 -22q-4 0 -7 2z" />
    <glyph glyph-name="parenleft" unicode="(" horiz-adv-x="198" 
d="M57 -219q-17 9 -17 69q0 38 8 118q20 179 95 352.5t196 321.5q45 56 68 56q9 0 12 -9q1 -2 1 -5q0 -9 -20 -30q-81 -86 -161.5 -240t-120.5 -302q-40 -146 -40 -284q0 -51 -10 -51q-4 0 -11 4z" />
    <glyph glyph-name="parenright" unicode=")" horiz-adv-x="229" 
d="M-263 -216q-5 3 -5 7q0 7 21 27q19 20 53 65t54 77q87 134 161.5 349.5t79.5 346.5q1 29 3.5 35.5t12.5 6.5q21 0 21 -49q0 -33 -7 -79q-23 -162 -88.5 -338.5t-147.5 -294.5q-108 -157 -147 -157q-5 0 -11 4z" />
    <glyph glyph-name="asterisk" unicode="*" horiz-adv-x="242" 
d="M258 550q-13 6 -13 32q0 10 3 22q0 2 0.5 5.5t0.5 4.5v1q-2 0 -15 -8t-18 -13q-8 -6 -12 -6t-9 5t-5 10q0 14 33 34l15 11q-4 0 -15 3q-24 3 -25 3q-18 2 -18 13q0 15 25 15q11 0 36 -5q1 0 3 -1h2q4 0 4 2t-17 30q-6 8 -6 14q0 4 4 7q1 1 4 1q10 0 32 -31q5 -8 7 -8
q3 0 10 13q17 30 27 30h3q10 -3 10 -10t-8 -25q-7 -14 -7 -17q0 -1 1 -1t10 3q26 9 42 9q21 0 21 -14q0 -10 -21 -15q-33 -9 -33 -13q0 -3 13 -9q24 -13 31.5 -19.5t7.5 -14.5q0 -11 -9 -11q-8 0 -21 7q-30 15 -33 15q-2 0 -2 -2q0 -3 6 -14q10 -21 10 -30q0 -5 -5 -10
q-5 -4 -9 -4q-8 0 -24 31q-8 17 -11 17q-5 -15 -5 -41v-4q0 -15 -12 -15q-4 0 -8 3z" />
    <glyph glyph-name="plus" unicode="+" horiz-adv-x="329" 
d="M181 145q-18 12 -15 49q0 11 3 23l1 3q0 15 -23 17q-10 1 -28 -4q-3 -1 -8 -1q-16 2 -14 14q0 8 11 12q24 8 62 8q10 0 12.5 2t7.5 14q21 44 39 52q3 1 9 1q7 0 11.5 -5t3.5 -12q0 -6 -5 -13q-4 -5 -12 -20.5t-8 -19.5v-1l24 -4q36 -4 49.5 -10t12.5 -17q0 -12 -21 -11
q-3 1 -8 1.5t-8 0.5q-40 6 -51 6q-10 1 -12 -2q-8 -16 -10 -47q0 -9 1 -9q9 -2 7 -13q0 -7 -6.5 -12.5t-14.5 -4.5q-5 0 -10 3z" />
    <glyph glyph-name="comma" unicode="," horiz-adv-x="198" 
d="M19 -74q-9 4 -9 11q0 10 18 19q33 16 44 51q6 16 17 16q17 0 17 -24q0 -25 -26 -50.5t-49 -25.5q-6 0 -12 3z" />
    <glyph glyph-name="hyphen" unicode="-" horiz-adv-x="328" 
d="M302 237q-11 2 -67 2q-43 0 -53 -1h-6q-25 0 -25 14t25 18q33 6 67 6q41 0 70.5 -8t29.5 -20q0 -4 -5 -9q-4 -4 -11 -4q-2 0 -5.5 0.5t-9 1t-10.5 0.5z" />
    <glyph glyph-name="hyphen" unicode="&#xad;" horiz-adv-x="328" 
d="M302 237q-11 2 -67 2q-43 0 -53 -1h-6q-25 0 -25 14t25 18q33 6 67 6q41 0 70.5 -8t29.5 -20q0 -4 -5 -9q-4 -4 -11 -4q-2 0 -5.5 0.5t-9 1t-10.5 0.5z" />
    <glyph glyph-name="period" unicode="." horiz-adv-x="194" 
d="M147 -16q-16 6 -18 20q-1 2 -1 7q0 11 9 19.5t20 8.5q6 0 12 -3q16 -7 16 -24q0 -12 -8 -21t-20 -9q-4 0 -10 2z" />
    <glyph glyph-name="slash" unicode="/" horiz-adv-x="265" 
d="M-112 -230q-4 4 -5 12q-1 26 55 155q97 220 190 383.5t218 331.5q58 79 73 80q4 0 7 -1q8 -5 8 -9q0 -10 -22 -40q-130 -178 -255 -402t-218 -444q-32 -70 -42 -70q-4 -1 -9 4z" />
    <glyph glyph-name="zero" unicode="0" horiz-adv-x="239" 
d="M179 458q23 -2 38.5 -20.5t15.5 -43.5q0 -9 -1 -13q-1 -5 -1 -11q0 -4 1 -8q2 -8 2 -24q0 -31 -5 -56q-25 -106 -78 -180.5t-101 -74.5q-5 0 -15 2q-52 16 -52 103q0 63 26 137t71 129.5t92 59.5h7zM178 406q-30 0 -74 -60q-38 -53 -60.5 -118t-22.5 -114q0 -59 32 -59
q8 0 17 4q34 14 66.5 65t53.5 122q18 57 18 89q0 31 -17 31q-11 0 -27 -13q-14 -11 -19 -11t-5 7q0 3 1 6q8 30 50 38q4 1 4 2q-1 1 -2 3q-6 8 -15 8z" />
    <glyph glyph-name="one" unicode="1" horiz-adv-x="140" 
d="M131 468q25 0 25 -30v-5q-5 -36 -66 -151q-59 -108 -78 -151.5t-20 -76.5q0 -2 -0.5 -5t-0.5 -4q0 -5 5 -7q8 -3 8 -8q0 -1 -2 -7q-7 -12 -19 -12q-3 0 -9 2q-20 9 -20 42q0 70 90 238q57 111 57 119q0 2 -3 2q-12 0 -12 13q0 14 14 28q13 13 28 13h3z" />
    <glyph glyph-name="two" unicode="2" horiz-adv-x="285" 
d="M236 474q34 0 56 -20t22 -55q0 -21 -9 -46q-38 -105 -260 -287q-2 -2 -5 -4.5t-5 -4t-3.5 -3l-2.5 -2.5l-1 -1l3 1q3 0 8 0.5t10 0.5q24 2 37 2q43 0 75.5 -8t39.5 -21q2 -3 2 -9q0 -15 -14 -15q-5 0 -9 3q-19 13 -98 13q-46 0 -84 -6q-18 -3 -24 -3t-9 5q-3 4 -3 9
q0 13 20.5 33.5t74.5 66.5q121 104 169.5 165.5t48.5 108.5q0 33 -35 33q-31 0 -69.5 -26.5t-56.5 -64.5q-6 -12 -6 -23q0 -14 10 -26q7 -7 7 -16q0 -17 -18 -17q-5 0 -11 3q-30 15 -30 55q0 38 29 78q62 81 141 81z" />
    <glyph glyph-name="three" unicode="3" horiz-adv-x="348" 
d="M253 470h4q47 0 63 -29q5 -7 5 -20q0 -52 -117 -139q-22 -16 -22 -18q0 -1 7 -1q21 0 45 -8q60 -20 60 -74q0 -59 -62 -114.5t-140 -55.5h-13q-36 3 -59.5 27.5t-23.5 55.5q0 22 13 41q9 13 18 13q10 0 10 -13q0 -5 -3 -12q-7 -15 -7 -29q0 -23 19 -35.5t50 -12.5
q38 0 78 19t66 54t26 59q0 54 -102 54q-40 0 -40 19q0 11 9 20.5t51 43.5q96 77 96 101q0 6 -6 9q-7 4 -20 4q-34 0 -77.5 -21.5t-43.5 -38.5q0 -5 4 -8q14 -11 14 -18q0 -5 -3 -9q-4 -7 -14 -7q-24 0 -37 28q-4 8 -4 18q0 36 51.5 66.5t104.5 30.5z" />
    <glyph glyph-name="four" unicode="4" horiz-adv-x="273" 
d="M106 474q19 0 19 -20q0 -11 -11 -30q-72 -118 -72 -179q0 -40 33 -40q11 0 17 2q61 16 74 52q16 48 44 108t44 80q10 13 22 13q13 0 13 -14q0 -9 -7 -19q-12 -18 -34 -67.5t-32 -79.5q-1 -2 -1 -5h1q1 0 17 10q19 13 29 13q6 0 8 -5q0 -1 0.5 -2t0.5 -2q0 -14 -51 -50
q-17 -11 -20.5 -15t-7.5 -16q-31 -103 -31 -159q0 -9 1 -11t1 -6q0 -16 -13 -16q-6 0 -12 6q-9 9 -9 47q0 48 14 110l3 15q-1 0 -17 -7q-33 -15 -58 -15q-35 0 -54 25.5t-19 68.5q0 86 71 184q18 24 37 24z" />
    <glyph glyph-name="five" unicode="5" horiz-adv-x="304" 
d="M230 472q21 0 31 -1q58 -5 58 -28q0 -7 -7 -13q-5 -5 -9 -5t-30 3q-8 1 -36 1q-58 0 -83 -4q-6 0 -6 -2q0 -1 1 -2q1 -2 1 -7q0 -13 -21 -61q-34 -80 -34 -83q2 0 18 7q47 23 81 23q49 0 49 -49q0 -46 -46 -120q-74 -118 -150 -118q-5 0 -17 2q-22 5 -35 17.5t-13 28.5v2
q2 25 16 25q11 0 15 -15q6 -20 25 -20q31 0 78.5 43.5t78.5 104.5q16 32 16 50q0 19 -18 19q-26 0 -87 -38q-29 -18 -44 -18q-17 0 -22 26v4q0 21 20.5 73t44.5 89q1 2 2.5 4t2 3.5t1.5 3t1 2.5l1 1q-3 0 -8 -1h-1q-7 0 -12 5t-5 11t4 10q8 10 51.5 18.5t87.5 8.5z" />
    <glyph glyph-name="six" unicode="6" horiz-adv-x="259" 
d="M210 469q10 0 16 -6t6 -13q0 -12 -14 -16q-40 -11 -104.5 -93.5t-86.5 -151.5q-5 -12 -5 -13h1q3 0 17 13q63 60 120 60q50 0 59 -49q1 -4 1 -13q0 -53 -56.5 -110t-109.5 -57q-9 0 -13 1q-30 7 -47 35q-5 8 -8 8h-6q-14 0 -14 20q0 12 6 24q3 4 3 17q0 62 37 136.5
t100 139.5q59 61 93 67h3zM159 214q-1 0 -4.5 -0.5t-5.5 -0.5q-31 -6 -83.5 -50t-52.5 -64v-1q8 -51 47 -51q10 0 23 5q42 15 73 57t31 75q0 30 -28 30z" />
    <glyph glyph-name="seven" unicode="7" horiz-adv-x="268" 
d="M164 472q117 0 117 -60q0 -23 -18 -52t-91 -122q-128 -161 -128 -193q0 -7 6 -9q6 -3 6 -8q0 -3 -1 -5q-5 -11 -18 -11q-5 0 -10 3q-15 9 -15 29q0 58 175 280q50 65 50 82q0 19 -60 22h-10q-27 0 -56 -5t-29 -11v-3q0 -10 -12 -10q-14 0 -23 12q-5 5 -5 13q0 19 36 33.5
t86 14.5z" />
    <glyph glyph-name="eight" unicode="8" horiz-adv-x="292" 
d="M177 476q56 0 69 -49q2 -10 2 -17q0 -48 -39 -109.5t-70 -61.5q-2 0 -8 2q-5 2 -5 6q0 3 3.5 8t12 14t13.5 16q54 64 54 121q0 9 -1 13q-3 22 -34 22q-29 0 -61.5 -18t-45.5 -45q-7 -15 -7 -35q0 -37 18 -39q25 -2 25 -21q0 -9 -6 -16q-1 -1 -1 -4q0 -11 50 -66
q30 -34 40 -50.5t10 -31.5q0 -7 -1 -11q-5 -37 -63 -69t-116 -32q-15 0 -28 3q-74 15 -74 88q0 43 28.5 91t80.5 90q12 10 12 12t-4 16q-7 25 -7 39q0 2 0.5 6t0.5 6q6 51 52.5 86.5t95.5 35.5h4zM64 238q-24 0 -82 -87q-24 -37 -24 -65q0 -23 15.5 -36t44.5 -13q18 0 42 6
q37 10 67 28t37 35q2 8 2 10q0 17 -52 72q-31 33 -40 45q-3 3 -10 5z" />
    <glyph glyph-name="nine" unicode="9" horiz-adv-x="270" 
d="M154 474h3q31 0 51 -32q1 -2 2 -3.5t2 -2.5l1 -1q2 0 11 9q18 17 32 17q24 0 24 -50q0 -46 -22 -112q-37 -114 -101 -201t-109 -87q-5 0 -15 4q-12 5 -12 19q0 12 10 12q2 0 8 -2q2 -1 7 -1q34 0 100 101t95 200q14 49 14 80q0 7 -2 7q-5 0 -16.5 -14.5t-11.5 -20.5v-7
q0 -16 -14 -16h-4q-5 0 -15 -12t-43 -61q-45 -66 -67 -88.5t-41 -22.5q-35 0 -35 57q0 77 54 159q46 69 94 69zM157 429h-6q-26 -8 -62 -69t-45 -114q-3 -14 -3 -20t3 -6q5 0 20 15q22 23 61 81l59 87q1 1 1 4q0 7 -9 14.5t-19 7.5z" />
    <glyph glyph-name="colon" unicode=":" horiz-adv-x="272" 
d="M207 65q-15 6 -15 23q0 12 10 21q8 6 15 6q10 0 17.5 -7.5t7.5 -17.5q0 -6 -3 -12q-6 -14 -25 -14q-5 0 -7 1zM249 225q-12 5 -12 18q0 8 2 12q6 17 22 17q12 0 19 -10q4 -5 4 -13q0 -11 -7.5 -19t-17.5 -8q-5 0 -10 3z" />
    <glyph glyph-name="semicolon" unicode=";" horiz-adv-x="272" 
d="M105 19q-11 5 -11 14q0 11 18 15q29 7 47 38q11 22 23 22q11 0 11 -18q0 -16 -8 -32q-9 -18 -29 -30t-38 -12q-7 0 -13 3zM209 217q-16 4 -16 22q0 22 20 25h3q10 0 16.5 -7t6.5 -16t-6 -16q-9 -9 -18 -9q-1 0 -3 0.5t-3 0.5z" />
    <glyph glyph-name="semicolon" unicode="&#x37e;" horiz-adv-x="272" 
d="M105 19q-11 5 -11 14q0 11 18 15q29 7 47 38q11 22 23 22q11 0 11 -18q0 -16 -8 -32q-9 -18 -29 -30t-38 -12q-7 0 -13 3zM209 217q-16 4 -16 22q0 22 20 25h3q10 0 16.5 -7t6.5 -16t-6 -16q-9 -9 -18 -9q-1 0 -3 0.5t-3 0.5z" />
    <glyph glyph-name="less" unicode="&#x3c;" horiz-adv-x="343" 
d="M308 80l-20 18q-22 23 -53 36q-25 9 -25 23q0 10 7 14.5t30 12.5q67 25 104 46q11 7 18 7q5 0 10 -5q4 -4 4 -10q0 -14 -26.5 -31t-70.5 -32q-14 -4 -14 -5l7 -4q15 -8 30 -27t15 -30v-2q-2 -12 -12 -12q-3 0 -4 1z" />
    <glyph glyph-name="equal" unicode="=" horiz-adv-x="313" 
d="M170 169q-7 0 -15.5 0.5t-14.5 0.5h-5q-17 0 -17 10q0 7 8.5 14t21.5 9q27 4 55 4q72 0 72 -21q0 -4 -6 -9q-7 -7 -29 -8q-20 -2 -25 -2q-4 0 -9.5 0.5t-16 1t-19.5 0.5zM168 266q-6 8 -6 12q0 21 78 23l20 1q60 0 60 -22q0 -10 -9 -13.5t-36 -4.5q-22 0 -47.5 -0.5
t-30.5 -0.5q-22 0 -29 5z" />
    <glyph glyph-name="greater" unicode="&#x3e;" horiz-adv-x="333" 
d="M150 71q-8 5 -8 11q0 14 26.5 35.5t69.5 43.5q19 10 19 11l-6 4q-24 11 -41 28t-17 30q0 5 5 10q4 4 9 4q9 0 19 -12q24 -25 73 -43q28 -9 28 -20t-28 -21q-52 -19 -117 -68q-20 -15 -25 -15q-1 0 -7 2z" />
    <glyph glyph-name="question" unicode="?" horiz-adv-x="307" 
d="M73 -60q-11 4 -11 19q0 11 9 16q6 2 9 2q8 0 13.5 -5t5.5 -13v-3q-3 -17 -20 -17q-4 0 -6 1zM86 5q-10 6 -10 28q0 38 21 80q26 51 73.5 113.5t149.5 182.5q91 106 125 159.5t35 89.5q0 32 -27 48.5t-72 16.5q-67 0 -147 -33.5t-134 -89.5q-46 -46 -46 -77q0 -37 69 -49
q32 -4 32 -24q0 -11 -11.5 -19.5t-29.5 -8.5q-2 0 -5 0.5t-4 0.5q-42 6 -66.5 31t-24.5 60q0 29 20 63q47 77 147 126t192 49q51 0 87 -17.5t47 -50.5q2 -14 2 -21q4 -44 -26 -92.5t-113 -149.5l-109 -134q-72 -91 -116.5 -161.5t-44.5 -91.5q0 -5 5 -7q7 -2 7 -8
q0 -2 -1 -4q-5 -12 -17 -12q-4 0 -8 2z" />
    <glyph glyph-name="at" unicode="@" horiz-adv-x="488" 
d="M242 -78q-53 8 -82.5 56.5t-27.5 116.5q3 98 62 183q46 67 104.5 101.5t112.5 32.5q51 -2 82.5 -35t30.5 -91q-2 -30 -8 -52q-16 -64 -51.5 -109.5t-64.5 -44.5q-24 2 -31 34q-1 6 -2 6t-10 -12q-36 -59 -69 -57q-34 0 -31 59q1 55 37 101t71 45q23 0 35 -25q3 -4 4 -4
q2 0 8 5q10 7 18 7q10 -2 10 -10q-2 -10 -8 -17q-29 -40 -31 -85q0 -17 7 -17q19 -1 48 42t41 90q6 25 6 46q1 47 -22.5 72t-62.5 26q-54 2 -113.5 -41t-95.5 -119q-35 -74 -37 -139q-2 -59 24.5 -96.5t73.5 -38.5q29 0 61 13q7 3 12 3q8 -2 8 -8q0 -4 -3 -9
q-7 -14 -32 -22.5t-56 -7.5q-12 0 -18 1zM316 95q22 22 42.5 55.5t21.5 49.5q0 6 -3 7q-3 4 -9 4q-18 1 -43 -34.5t-30 -72.5l-1 -10q0 -11 4 -11t18 12z" />
    <glyph glyph-name="A" unicode="A" horiz-adv-x="588" 
d="M-53 -181q-7 4 -7 16q1 20 42 103q1 2 5.5 10t6.5 12q3 7 10 21q3 9 17 34q48 99 118 230q14 26 14 28t-2 2q-1 0 -17 -7q-71 -30 -78 -42q-6 -7 -15 -7q-15 0 -15 14v2q1 24 128 80q22 9 29 16.5t27 44.5q108 186 203 298t145 112h2l4 -1q32 -5 32 -47v-8
q-4 -59 -71 -254q-1 -2 -3 -7.5t-2 -7.5q-2 -8 -13 -41l-11 -32q0 -1 11 -3q52 -9 54 -36v-6q0 -15 -12 -15q-5 0 -12 7q-10 15 -46 16h-4q-4 0 -10 -18q-3 -11 -6 -19q-88 -264 -121 -426q0 -7 -4 -29q-2 -19 -5 -24t-13 -5q-22 2 -22 44v9q2 22 5 33q21 98 41 169
q6 20 7 23q0 4 24 86q23 76 46 141q1 3 2 5.5t1.5 4.5t0.5 3q0 3 -3 3l-4 -1h-8q-9 0 -33 -3q-2 0 -19.5 -3t-21.5 -5q-3 0 -19 -4q-24 -6 -59 -17.5t-39 -14.5q-1 -1 -19 -30l-28 -51l-7.5 -12.5t-7.5 -12t-4 -6.5q-6 -13 -33 -61l-51 -93l-17 -30t-12 -20
q-74 -135 -79 -158q-2 -12 -14 -12h-2zM279 361q21 7 26 7q1 0 11 3q56 14 119 17q9 0 11 2t6 12q2 4 19 53q80 225 83 273v6q0 5 -2 7q-1 0 -7 -4q-33 -22 -96.5 -99.5t-124.5 -170.5q-68 -110 -68 -111t1 -1l3 1q2 0 7.5 1.5t11.5 3.5z" />
    <glyph glyph-name="B" unicode="B" 
d="M15 -186q-19 7 -22 42v7q0 6 -9 8q-106 16 -106 74v2q0 16 11 33.5t20 17.5h4q6 -3 6 -10q0 -6 -4 -17q-2 -12 -2 -16q0 -20 15.5 -30t53.5 -15q2 0 5 -0.5t4.5 -1t2.5 -0.5q6 0 7 6q3 10 6 23q12 40 17 55l8.5 26t14 41t8.5 25q1 2 5 11t6 15q65 171 156.5 352.5
t150.5 255.5l5 7q0 1 -1 1q-4 0 -13 -4q-88 -32 -172 -83t-111 -90q-6 -7 -6 -11q0 -3 9 -3q20 0 20 -14q0 -11 -18 -13q-4 -1 -12 -1q-30 0 -30 24v2q0 43 75 101q95 76 207 122t194 46h5q68 -2 93 -34q18 -25 18 -52v-4q-2 -107 -206 -286q-12 -10 -18 -16l-117 -93
q-3 -3 -3 -4h1q4 0 16 4q67 19 131 27q27 4 55 4q56 -1 85.5 -23t29.5 -60v-2q-2 -94 -148 -218q-193 -163 -393 -177q-23 -1 -25 -5q-2 -3 -3 -20q-1 -32 -16 -32q-4 0 -10 3zM88 -91q112 13 240.5 88t203.5 171q41 55 43 89q0 51 -81 52h-8q-35 0 -90 -11q-14 -3 -28 -6.5
t-15 -3.5q-62 -14 -138 -42q-8 -4 -26 -10q-10 -4 -13 -6q-7 -7 -55 -131q-12 -28 -13 -31q-14 -35 -34 -94.5t-20 -65.5q1 -1 7 -1q14 0 27 2zM250 344q164 128 251.5 223t88.5 144v2q0 41 -66 42q-31 0 -69 -7q-13 -3 -15 -9q-1 -1 -3 -4.5l-5 -8.5t-5 -8q-24 -32 -29 -40
q-1 -2 -6 -10q-2 -3 -3 -5q-49 -80 -88 -161q-11 -23 -14 -27l-51 -108q-21 -42 -21 -48q1 0 35 25z" />
    <glyph glyph-name="C" unicode="C" horiz-adv-x="505" 
d="M95 -162q-60 9 -90.5 61t-30.5 136q0 147 83 334.5t220 326.5q107 110 187 110q32 0 50 -21.5t18 -60.5q0 -45 -27 -113q-37 -90 -81.5 -148t-74.5 -58q-17 0 -25 17q-3 6 -3 12q0 9 4.5 15.5t11.5 6.5q5 0 9 -4q2 -2 4 -2q18 0 63.5 79t63.5 143q7 25 7 44q0 35 -26 35
q-39 0 -112.5 -69t-143.5 -176q-85 -132 -131 -263t-46 -227q0 -67 23 -105t68 -38q35 0 76 21q62 31 147.5 115.5t150.5 177.5q18 25 26 25q2 0 4 -3v-1q1 -2 1 -3q0 -30 -87 -133.5t-161 -161.5q-96 -73 -164 -73q-10 0 -14 1z" />
    <glyph glyph-name="D" unicode="D" horiz-adv-x="664" 
d="M21 -154q-18 6 -18 46l1 20q0 7 -10 7q-68 0 -73 38l-1 4q0 8 6 8q4 0 15 -6q19 -10 48 -10h7q10 0 12 2t4 12q10 59 38 153t54 161q61 156 156 307t131 151q19 0 19 -14q0 -13 -16 -33q-107 -146 -193.5 -331t-133.5 -370q-5 -17 -5 -22q0 -6 7 -6q6 0 56 13
q144 39 269 137t195.5 217.5t70.5 226.5q0 89 -51 150q-50 59 -156 59q-95 0 -195.5 -48t-160.5 -129q-19 -25 -19 -37q0 -13 25 -13h9q18 0 18 -8q0 -11 -26 -19q-12 -3 -23 -3q-24 0 -36 13q-10 11 -10 27q0 47 71 114.5t168 108.5t178 41q112 0 177.5 -71.5t65.5 -184.5
q0 -94 -47.5 -197.5t-141.5 -200.5q-185 -191 -439 -233q-13 -2 -16.5 -10.5t-5.5 -43.5q-3 -29 -14 -29q-4 0 -10 3z" />
    <glyph glyph-name="E" unicode="E" horiz-adv-x="547" 
d="M6 -160q-41 5 -63.5 31.5t-22.5 67.5q0 43 23 89q34 71 106 148.5t197 178.5q85 69 85 75v1q-3 3 -53 3h-35q-138 0 -138 64q0 29 28 70q65 98 190 167t218 69q90 0 90 -69v-6q-3 -50 -59 -107t-95 -57q-20 0 -26 20q-1 2 -1 5q0 15 13 15q6 0 10 -4q1 -1 3 -1
q11 0 35.5 20t43.5 44q36 46 36 71q0 28 -41 28q-66 0 -179 -61.5t-184 -147.5q-34 -40 -34 -53q0 -12 23.5 -16t83.5 -5q70 -1 89.5 -5.5t27.5 -21.5q4 -10 4 -15q0 -16 -20 -39.5t-71 -68.5l-86 -77q-118 -108 -182.5 -195.5t-64.5 -137.5q0 -49 57 -49q10 0 15 1
q13 0 20 1q85 11 183.5 78.5t245.5 204.5q44 42 60 42q3 0 3 -7q0 -17 -60.5 -76t-159.5 -140q-168 -136 -293 -136q-15 0 -22 1z" />
    <glyph glyph-name="F" unicode="F" horiz-adv-x="522" 
d="M208 -149q-33 9 -33 75q0 139 123 410q11 22 11 27h-2q-12 0 -67.5 -18.5t-86.5 -31.5q-9 -4 -15 -4t-6 9q0 10 50.5 31.5t120.5 41.5l25 8q1 1 5 9t4 9q0 4 -34 17t-62 21q-34 8 -120 22q-87 13 -87 50q0 25 37 61q101 101 299.5 174.5t356.5 73.5q65 0 112 -15
q44 -15 77 -51.5t33 -69.5q0 -10 -3 -18q-9 -22 -26 -22q-10 0 -10 12q0 5 2 9q2 8 2 12q0 26 -29 52t-69 35q-41 9 -91 9q-159 0 -358 -68.5t-283 -155.5q-24 -26 -24 -35q0 -11 21 -17t81 -16q110 -17 173 -49l13 -7q1 0 13 22q35 67 83 142t69 97q13 15 25 15q9 0 15 -9
q3 -6 3 -33v-9q-3 -3 -6 -3q-6 0 -9 6q-1 3 -2 3q-2 0 -13 -20q-16 -30 -25 -43l-63.5 -117t-38.5 -77l23 4q51 8 80 8q30 0 41 -7q14 -8 14 -23q0 -18 -20 -26q-7 -3 -14 -3q-14 0 -14 10q0 6 9 12q1 1 1 2q0 2 -16 2q-29 0 -69 -6q-18 -3 -18 -4t2 -3q43 -55 43 -136
q0 -150 -131 -308q-72 -87 -114 -87q-6 0 -8 1zM236 -113q24 12 62 53.5t67 87.5q71 116 71 217q0 78 -45 129q-5 5 -6 5q-4 0 -24 -43q-64 -139 -105 -261.5t-41 -170.5q0 -9 1 -12q2 -9 7 -9q4 0 13 4z" />
    <glyph glyph-name="G" unicode="G" horiz-adv-x="599" 
d="M100 -140q-90 21 -90 183q0 116 48.5 262.5t134.5 273.5q76 112 161.5 177t151.5 65q70 0 95 -70q8 -22 8 -50q0 -51 -20 -104t-50 -77q-13 -10 -26 -10q-21 0 -21 17q0 3 2 11q0 1 6 5q16 10 34 52.5t22 79.5q1 7 1 21q0 68 -54 68q-39 0 -95.5 -39.5t-114.5 -111.5
q-111 -138 -175 -306.5t-64 -289.5q0 -124 72 -124q49 0 126 77q46 46 106 124.5t107 157.5q21 36 21 39q0 2 -3 2q-1 0 -3.5 -0.5t-6 -1.5t-7.5 -2q-60 -17 -110.5 -38t-65.5 -37q-6 -6 -10 -6q-1 0 -7 2q-7 3 -7 8q0 25 109.5 72.5t175.5 47.5q23 0 38 -8.5t15 -21.5
q0 -3 -1 -5q-3 -15 -16 -15q-10 0 -10 11q0 7 -24 7q-13 0 -19 -2q-1 0 -2 -3q-6 -38 -64 -157q-25 -53 -25 -122q0 -16 4 -20q6 -6 6 -12q0 -7 -6 -12t-14 -5t-13 4q-18 12 -18 59q0 51 22 95l4 15q-2 0 -12 -17q-181 -271 -295 -271q-14 0 -21 2z" />
    <glyph glyph-name="H" unicode="H" horiz-adv-x="648" 
d="M43 -139q-23 12 -23 68v7q3 82 51 250q3 11 9 35q0 3 -7 5q-11 3 -21 3h-5q-16 0 -38 -10q-117 -61 -151.5 -77.5t-47.5 -16.5h-1q-3 0 -9 2q-9 7 -9 12v2q0 16 34 41q99 66 185 80q15 2 40 15q19 12 40 21q14 7 16 10t10 26q43 130 101 262.5t105 206.5q16 24 30 24h2
q7 0 13 -6q5 -5 5 -11v-2q0 -10 -15 -46q-8 -18 -9 -21q-3 -9 -11 -9q-8 -1 -58 -117q-24 -55 -63.5 -158.5t-40.5 -113.5l1 -1l56 27q143 65 234 94q27 8 29 12l2 5q59 131 79 165q40 74 52 83q7 6 15 6h2q21 -2 21 -20v-3q0 -8 -7 -31q-7 -20 -10 -23.5t-9 -4.5
q-5 0 -44 -80t-39 -85q0 -2 2 -2h5q3 0 9 0.5t9 0.5q34 -2 34 -21v-1q0 -6 -5 -10.5t-11 -4.5q-4 0 -7 3q-2 2 -11 2q-33 0 -38 -5q-3 -3 -33.5 -83.5l-65 -177.5t-43.5 -134q-7 -28 -9 -60q0 -7 1 -7l6 2q2 1 6 1q6 0 6 -7q0 -5 -1 -7q-8 -24 -26 -24h-2q-13 0 -20 15
q-4 12 -4 42q4 139 119 410l3 9q0 1 -2 1q-7 0 -77 -27q-72 -29 -157 -67t-87 -43q-14 -33 -14 -47q0 -13 9 -24q40 -41 40 -116v-5q-3 -93 -67 -183q-41 -59 -70 -59h-1q-6 0 -12 3zM68 -95q11 7 31 35.5t33 54.5q26 53 28 109v6q0 58 -27 84q-1 3 -3 3t-13 -38
q-51 -179 -53 -246q0 -9 1 -9t3 1z" />
    <glyph glyph-name="I" unicode="I" horiz-adv-x="254" 
d="M25 -149q-7 3 -7 8q0 10 24.5 27t64.5 34q11 6 11 7h-1q-21 0 -21 65q0 41 8 81q17 105 83.5 282.5t135.5 305.5q34 62 58 99q5 7 5 9h-2q-16 0 -53 -7q-5 -2 -5 -4q-4 -8 -17 -8q-21 0 -21 14q0 17 52.5 32t104.5 15q37 0 56 -9q23 -12 23 -31q0 -9 -4 -14q-8 -9 -18 -9
q-15 0 -15 10q0 1 2 5l1 3v1q-14 5 -30 5q-20 0 -20 -8v-1q0 -16 -12 -29q-58 -68 -170.5 -341t-125.5 -377q-3 -24 -3 -37q0 -21 10 -22t10 -6q0 -1 -2 -9l-2 -6q3 0 12 3q17 5 28 5q37 0 37 -29q0 -8 -5 -14t-11 -6t-9 7q-1 3 -8 3q-34 0 -140 -47q-14 -7 -22 -7h-2z" />
    <glyph glyph-name="J" unicode="J" horiz-adv-x="591" 
d="M62 -147q-42 11 -42 51q0 66 95 153q68 61 163.5 112t185.5 74q3 1 7 2t5.5 1.5t3.5 0.5t3 1t2 1.5t2 2.5t1.5 2.5t2.5 4t3 5.5q89 157 89 315q0 72 -23 119.5t-68 56.5q-12 2 -20 2q-68 0 -148.5 -62t-90.5 -126q-3 -25 -19 -25q-10 0 -18 11t-8 28q0 64 83 139t168 88
q20 2 28 2q78 0 121.5 -65.5t43.5 -172.5q0 -139 -72 -289l-6 -12t-5 -9t-2 -4l4 1q4 1 9.5 2t8.5 1q43 7 70 7q35 0 40 -9q2 -4 2 -5q0 -6 -32 -9q-29 -1 -110 -20q-2 0 -4 -0.5t-2.5 -0.5t-2 -1.5t-3.5 -4t-5 -7.5q-84 -141 -219 -252t-220 -111q-7 0 -21 2zM115 -115
q73 23 171 114t166 198q7 11 7 12v1q0 1 -1 1t-2.5 -0.5l-4.5 -1.5l-6 -2q-148 -48 -263 -139q-54 -43 -87.5 -89t-33.5 -74v-1q0 -24 25 -24h3q13 0 26 5z" />
    <glyph glyph-name="K" unicode="K" horiz-adv-x="733" 
d="M86 -161q-12 6 -14 33v5q0 33 17 107q22 91 56 196q7 19 7 23v1q0 3 -3 3l-24 -6q-71 -20 -104 -21h-5q-29 0 -35 17q0 1 -0.5 2.5t-0.5 2.5v1q0 28 100 41q62 11 94 26q4 2 18 39q88 233 197 429q46 87 67 88q9 0 17 -11q3 -3 3 -10v-2q0 -17 -9 -39t-17 -23
q-4 0 -34.5 -62.5t-73.5 -160l-79 -186.5q-12 -26 -12 -30q0 -1 2 -1h1q2 0 21 7q219 88 396.5 188.5t228.5 166.5q15 18 15 22q0 2 -5 4q-17 3 -22 7q-7 5 -7 10q0 12 24 15q5 2 15 2h4q33 0 39 -28q1 -2 1 -8v-2q0 -71 -189.5 -193.5t-462.5 -228.5q-40 -15 -40 -16l10 -2
q84 -11 164 -49q63 -31 124.5 -92.5t63.5 -92.5q0 -8 -5 -13l-6 -3q-7 0 -18 14q-31 44 -81 89q-79 69 -186 100q-70 19 -116 19h-2q-3 0 -3 -1q-10 -19 -42 -112q-60 -170 -64 -246q-3 -21 -15 -21q-6 0 -10 2z" />
    <glyph glyph-name="L" unicode="L" horiz-adv-x="628" 
d="M75 -142q-37 6 -37 64q0 59 39 182q53 171 140.5 353t174.5 304q42 60 65 60q7 0 12 -4q10 -7 10 -17q0 -12 -8 -28l-3.5 -7t-4 -9t-2.5 -7q-5 -14 -11 -14q-5 0 -8 1q-4 0 -34.5 -50.5t-59.5 -105.5q-90 -170 -175.5 -389.5t-85.5 -280.5q0 -9 5 -9q8 0 78 32
q137 64 215 87q99 31 152 31q46 0 49 -25l1 -5q0 -13 -11 -13q-5 0 -10 4q-8 6 -23 6q-11 0 -44 -5q-68 -13 -133.5 -37.5t-179.5 -79.5q-81 -39 -100 -39q-7 0 -11 1z" />
    <glyph glyph-name="M" unicode="M" horiz-adv-x="1174" 
d="M14 -133q-18 5 -18 48q0 113 97 345q59 139 141.5 279.5t114.5 156.5q7 4 15 4q19 0 19 -21q0 -7 -4 -14q-1 -2 -3 -8.5t-3 -8.5q-2 -13 -9 -13q-1 0 -5 2q-7 0 -70 -115t-108 -210q-67 -147 -67 -155q2 0 10 17q117 213 263 408t235 255q35 23 59 23q25 0 39 -21.5
t14 -61.5q0 -22 -4 -43q-9 -58 -29 -124.5t-88 -266.5q-72 -218 -72 -283q0 -24 11 -24q3 0 4 1q8 3 19 13t27.5 32.5l30 41l41 58.5l46.5 66q72 100 106.5 130t60.5 30q7 0 14 -5q14 -8 19 -32t7 -89q9 -254 87 -254q43 9 88.5 56.5t76 90.5t37.5 43q1 0 2 -1q9 0 9 -9
q0 -31 -99 -140q-61 -68 -121 -68q-39 0 -66 35.5t-39 103.5q-7 46 -10 156q0 83 -10 83q-3 0 -18 -12q-42 -37 -148 -190q-70 -101 -107 -140.5t-63 -39.5q-10 0 -18 4q-34 16 -34 86q0 118 94 381q57 159 76 221.5t19 96.5l-1 10q-1 19 -9 19q-6 0 -26 -11
q-78 -47 -207 -209.5t-255 -371.5q-39 -65 -85 -152t-52 -108q-10 -36 -10 -62v-8l1 -5q0 -15 -14 -20q-2 -1 -5 -1t-6 1z" />
    <glyph glyph-name="N" unicode="N" horiz-adv-x="631" 
d="M-11 -150q-17 9 -17 35v4q0 34 27 133q35 121 110 294.5t157 320.5q64 116 94 159.5t48 44.5q8 0 15 -6q9 -6 9 -15q0 -10 -10 -26q-117 -199 -217 -422q-97 -224 -97 -228l28 45q127 208 273 369.5t210 164.5h2q47 0 48 -62v-9q0 -87 -86 -339q-82 -236 -82 -303v-6
q0 -21 8 -42q3 -10 11 -13q10 -3 10 -10q0 -6 -5.5 -11t-13.5 -5h-3q-21 0 -35.5 31.5t-15.5 81.5v15q0 57 18.5 130t67.5 215q56 159 71 224q9 37 9 52q-1 14 -9 14l-2 -1q-52 -7 -165.5 -127.5t-224.5 -285.5q-62 -94 -122 -196.5t-68 -130.5q-13 -43 -13 -61l1 -4
q2 -4 2 -7q0 -9 -7.5 -16.5t-17.5 -7.5h-3q-4 0 -5 1z" />
    <glyph glyph-name="O" unicode="O" 
d="M211 -114q-53 7 -80.5 49t-27.5 108q0 136 98 270q31 43 61.5 67.5t51.5 24.5q12 0 19 -9q4 -6 4 -12q0 -8 -5 -15.5t-12 -7.5q-9 0 -44 -44q-50 -64 -80.5 -146t-30.5 -147q0 -23 5 -45q13 -53 68 -53q57 0 137 56t152 151q85 111 129.5 228t44.5 215q0 90 -38 149
t-112 71q-18 3 -36 3q-111 0 -229 -105t-208 -284q-31 -62 -45 -119q-11 -42 -19 -42q-4 0 -7 3q-13 10 -13 38q0 50 39.5 137t105.5 178q82 115 179.5 173.5t187.5 58.5q100 0 163.5 -69t63.5 -191q0 -59 -14 -119q-31 -135 -115.5 -269.5t-187.5 -219t-187 -84.5
q-12 0 -18 1z" />
    <glyph glyph-name="P" unicode="P" horiz-adv-x="649" 
d="M77 -167q-18 9 -18 53q0 41 17 128l6 28h-2q-1 1 -3.5 1.5t-4.5 0.5q-27 5 -43 16.5t-16 25.5q0 7 6 7q8 0 19 -5q21 -9 38 -11q2 0 5 -0.5t4 -0.5q5 0 10 16q2 7 3 11q34 119 90.5 259t111.5 239q33 59 51 82.5t31 23.5q6 0 10 -3q10 -7 10 -21q0 -15 -12 -32
q-28 -37 -81 -148t-95 -220l-15 -39q-60 -158 -60 -167h3q22 0 81 11q123 25 236 117.5t177 206t64 208.5q0 120 -107 156q-37 12 -82 12q-106 0 -225.5 -58.5t-192.5 -149.5q-18 -22 -32.5 -49t-14.5 -36q0 -3 1 -3q9 -3 9 -11q0 -9 -8 -16.5t-18 -7.5q-32 0 -32 37
q0 51 52 117q83 104 206 164.5t238 60.5q122 0 188 -67q55 -55 55 -150q0 -92 -51 -198t-143.5 -198.5t-203.5 -140.5q-84 -37 -193 -42h-6q-11 0 -12.5 -2t-5.5 -14q-27 -99 -27 -152v-4q0 -2 4 -4q8 -3 8 -10q0 -4 -3 -9q-7 -15 -18 -15q-4 0 -9 3z" />
    <glyph glyph-name="Q" unicode="Q" horiz-adv-x="652" 
d="M53 -193q-8 3 -8 10q0 15 31 30q12 5 12 7t-3 3q-41 21 -63 70.5t-22 115.5q0 71 26 151q3 9 3 12t-3 12q-11 41 -11 83q0 91 45.5 190.5t129.5 190.5q72 78 148.5 117t145.5 39q97 0 158.5 -70t61.5 -192q0 -44 -9 -93q-25 -139 -121.5 -296t-215.5 -253
q-13 -11 -13 -12q8 1 18 2q27 3 51 3q45 0 72.5 -10t27.5 -27q0 -7 -4 -12q-4 -12 -18 -12q-12 0 -12 10v1q0 9 -22 11q-6 1 -23 1q-42 0 -103.5 -8t-80.5 -16q-52 -23 -94 -23q-16 0 -37 -8t-22 -14q0 -6 -11 -10.5t-23 -4.5q-5 0 -11 2zM199 -108q106 25 230 161.5
t193 305.5q46 111 46 214t-47.5 165.5t-130.5 62.5q-21 0 -33 -2q-92 -13 -188.5 -96t-158 -197t-61.5 -213q0 -19 1 -29l2 -6q2 0 6 10q41 76 94 127.5t89 51.5q15 0 24 -10q7 -7 7 -14q0 -11 -19 -27q-43 -36 -77 -84q-26 -36 -52.5 -83.5t-26.5 -58.5v-2q10 -6 10 -10
l1 -1q0 -6 -13 -7q-12 -3 -23 -64q-6 -38 -6 -69q0 -62 25.5 -95.5t72.5 -33.5q19 0 35 4z" />
    <glyph glyph-name="R" unicode="R" horiz-adv-x="693" 
d="M133 -142q-24 10 -25 63v6q0 105 71.5 301.5t159.5 351.5t131 155q13 0 19 -14q3 -5 3 -10q0 -9 -13 -31t-16 -22h-5q-3 0 -23 -31q-110 -183 -192 -398q-12 -32 -12 -33q0 -2 1 -2q6 -2 11 -2q33 0 116 35.5t151 79.5q127 81 196 178.5t69 178.5q0 65 -44.5 103.5
t-128.5 38.5q-35 0 -73 -7q-120 -20 -262 -108t-203 -179q-11 -16 -11 -19q0 -1 0.5 -2t0.5 -2q2 -2 2 -7q0 -7 -7 -12t-16 -5q-11 0 -18 7q-7 9 -7 20q0 39 68.5 108t172.5 134.5t194 93.5q84 26 154 26q104 0 161 -52.5t57 -136.5q0 -90 -67 -191t-195 -186
q-67 -44 -156.5 -82.5t-135.5 -43.5q-8 0 -8 -2q4 -8 46 -57q49 -55 110.5 -99.5t111.5 -60.5q29 -10 57 -10q53 0 72 28q8 10 11 10q5 0 7 -11q1 -2 1 -7q0 -21 -29.5 -35t-72.5 -14q-35 0 -66 10q-71 21 -152 86t-127 138l-8 12q-3 0 -37 -112q-22 -70 -25 -123v-9
q0 -7 3 -7l10 4q5 2 11 2q8 0 8 -8t-5 -17q-11 -24 -35 -24q-7 0 -11 2z" />
    <glyph glyph-name="S" unicode="S" horiz-adv-x="592" 
d="M123 -122q-46 4 -72.5 18.5t-26.5 35.5q0 8 2 13q5 8 8 8q5 0 11 -10q19 -32 107 -32q105 0 189 40q59 27 92.5 60t33.5 64q0 13 -8 27q-18 29 -64 53.5t-145 56.5q-105 34 -151.5 67t-46.5 75q0 38 42 99q68 95 198.5 187t261 146t212.5 54q81 0 81 -57q0 -5 -2 -19
q-9 -48 -70.5 -114.5t-140.5 -117.5t-135 -57h-6q-23 0 -23 15q0 12 19 18q69 19 172 106.5t129 147.5q5 12 5 17q0 13 -28 13h-6q-86 0 -247 -86t-288 -193.5t-127 -164.5v-3q2 -27 36.5 -46.5t135.5 -51.5q109 -35 160.5 -68t65.5 -78q4 -11 4 -23q0 -63 -81 -123
t-191 -76q-18 -2 -67 -2q-32 0 -39 1z" />
    <glyph glyph-name="T" unicode="T" horiz-adv-x="613" 
d="M319 -172q-31 4 -34 51v10q0 149 200 564q21 45 21 52q0 3 -1 5.5t-2.5 7.5t-2.5 9q-20 69 -68.5 110.5t-118.5 47.5q-1 0 -3 0.5t-4 0.5q-3 -1 -95 -25q-157 -44 -181 -45h-5q-15 0 -23 12q-4 5 -4 11v1q0 12 17.5 22.5t61.5 25.5q98 34 173 38l12 1q34 2 88 17
q264 77 457 105q25 3 62 6q44 2 68 2q72 0 117 -8q63 -12 66 -44q0 -7 -3 -15q-8 -16 -20 -16h-2q-8 0 -8 9v9q0 4 -15 8q-36 9 -95 9q-17 0 -61 -2q-87 -6 -193 -24q-27 -4 -27 -8v-2q-2 -15 -59 -133l-81 -174q-5 -13 -5 -19q0 -1 0.5 -6.5t0.5 -9.5v-19q0 -206 -112 -436
q-72 -146 -116 -149q-3 0 -5 1zM358 -91q59 84 106 219.5t51 236.5v4q-3 0 -44 -98q-110 -257 -129 -356q-3 -15 -3 -20v-3q0 -3 1 -3q3 0 18 20zM549 585q72 139 91 171q5 9 5 12h-2q-4 0 -37 -7q-57 -12 -199 -48q-15 -3 -15 -5q0 -1 9 -4q84 -37 123 -135q7 -17 8 -17
l1 1l2 5q2 4 6.5 12t7.5 15z" />
    <glyph glyph-name="U" unicode="U" horiz-adv-x="643" 
d="M96 -173q-92 15 -92 182q0 118 49 280.5t138 326.5q109 203 153 203q3 0 9 -2q13 -4 13 -18q0 -9 -6 -22q-7 -12 -9 -21q-6 -16 -12 -16q-2 0 -6 4l-2 2q-2 0 -20 -33q-104 -175 -177 -393.5t-73 -347.5q0 -44 11 -72q12 -33 45 -33q55 0 150 87.5t206 241.5q53 74 61 98
q48 134 114.5 263.5t113.5 177.5q13 14 24 14q16 0 16 -23q0 -9 -3 -21q-17 -53 -72.5 -158.5t-127.5 -217.5q-16 -26 -30 -66q-59 -178 -59 -266q0 -12 1 -18q0 -28 6 -28q1 0 11 5q10 6 16 6t6 -6q0 -7 -4 -16q-12 -25 -35 -25q-18 0 -28 19q-11 19 -11 70q0 69 19 145
l3.5 15.5t1.5 9.5l1 2h-1q-3 -3 -22 -29q-112 -152 -208 -236.5t-158 -84.5q-2 0 -6 0.5t-6 0.5zM656 480q79 133 105 203l1 4q-1 0 -6 -8q-47 -71 -102 -195q-9 -20 -9 -21z" />
    <glyph glyph-name="V" unicode="V" horiz-adv-x="585" 
d="M77 -183q-75 18 -75 154q0 100 42 242t120 298q69 136 99 136q4 0 12 -4q9 -7 9 -15q0 -11 -22 -54q-93 -188 -148 -360t-55 -269q0 -87 46 -87q67 0 188 139t273 388q77 127 139.5 248.5t62.5 143.5q0 2 -2 4q-7 0 -7 9q0 7 5 15.5t12 10.5h5q10 0 17 -10t7 -25
q0 -1 -0.5 -4t-0.5 -5q-8 -58 -106.5 -235t-224.5 -361q-249 -362 -376 -362q-11 0 -20 3z" />
    <glyph glyph-name="W" unicode="W" horiz-adv-x="876" 
d="M482 -167q-59 13 -93.5 97.5t-34.5 212.5q0 84 14 167l1 12q-2 0 -39 -49q-112 -148 -169.5 -204.5t-95.5 -56.5q-7 0 -10 1q-57 9 -57 107q0 123 83.5 312.5t201.5 315.5q58 62 92 62q17 0 27 -17q2 -6 2 -12q0 -17 -6.5 -36.5t-13.5 -20.5q-1 -1 -4 -1q-8 0 -8 15
q0 2 2 18v4l1 2q0 3 -2 3q-4 0 -28 -24q-94 -97 -182.5 -279.5t-109.5 -325.5q-4 -32 -4 -41q0 -40 21 -40q16 0 45 23q32 25 70.5 69.5t120.5 150.5q38 50 54 67t26 17q5 0 11 -3q12 -7 12 -28q0 -17 -6 -61q-1 -10 -5 -42q-5 -53 -5 -94q0 -100 21 -175.5t55 -90.5
q15 -11 35 -11q1 0 3.5 -0.5t4.5 -0.5q69 0 165.5 144.5t155.5 347.5q40 138 40 270q0 138 -43 175q-7 6 -7 10q0 7 11 7q16 0 26 -10q52 -58 55 -204q0 -56 -6 -92q-30 -186 -125 -382q-70 -143 -144.5 -227t-138.5 -84q-13 0 -19 2z" />
    <glyph glyph-name="X" unicode="X" horiz-adv-x="690" 
d="M-250 -180q-24 9 -24 29q0 7 4 11t9 4t15 -6q4 -2 8 -2q27 0 73 31q88 60 240 232q4 4 5 16q8 105 44 238.5t93 261.5q76 174 113 174q3 0 9 -2q14 -6 14 -20q0 -13 -12 -25q-10 -11 -35.5 -63.5t-45.5 -104.5q-88 -221 -115 -390v-3l51 58q165 192 244.5 277.5
t182.5 178.5q142 128 178 128q7 0 12 -5q4 -3 4 -7t-14 -11q-42 -21 -146.5 -116.5t-196.5 -196.5q-62 -67 -222 -255l-61 -71q-28 -34 -39 -45q-7 -8 -7 -71t8 -100q21 -82 85 -82q87 0 218 149q40 45 110 135q20 29 31 29q4 0 4 -5t-8 -23q-33 -53 -61.5 -90t-87.5 -101
q-119 -128 -216 -128q-59 0 -95 51.5t-40 147.5q0 16 -2 16q-1 0 -10 -9q-211 -238 -299 -238q-9 0 -18 3z" />
    <glyph glyph-name="Y" unicode="Y" horiz-adv-x="605" 
d="M141 -151q-26 10 -26 37q0 58 95.5 153t217.5 155q23 12 30.5 23t42.5 81q69 138 110 258.5t41 183.5q0 32 -10 43q-6 7 -16 7q-37 0 -121.5 -86t-194.5 -234q-114 -154 -161 -204t-78 -50q-7 0 -17 2q-54 17 -54 121q0 79 29 174t78.5 169t101.5 84q10 2 15 2
q19 0 30 -10.5t11 -27.5q0 -8 -3 -19q-7 -18 -20 -18t-13 16l1 8q0 3 -3 3q-8 0 -31 -27.5t-40 -58.5q-37 -63 -63.5 -159.5t-26.5 -159.5q0 -24 4 -37q1 -8 9 -8q32 0 177 189l81 104q207 262 294 262q23 0 39 -18q20 -23 20 -77q0 -156 -157 -470q-3 -7 -7.5 -13t-7 -9
t-2.5 -4q0 -2 1 -2h1q2 1 5 2t5 2q72 29 114 29q20 0 29 -9q3 -3 3 -5q0 -7 -26 -10q-53 -6 -137 -41q-14 -6 -17 -8.5t-8 -11.5q-38 -81 -95.5 -154.5t-122.5 -124.5q-71 -54 -114 -54q-5 0 -13 2zM160 -118q45 12 119.5 89t133.5 168q13 22 13 23h-1l-4 -2
q-94 -55 -179 -137.5t-96 -129.5l-1 -4q0 -8 7 -8q4 0 8 1z" />
    <glyph glyph-name="Z" unicode="Z" horiz-adv-x="621" 
d="M-8 -159q-55 11 -58 62v5q0 107 301 223q79 30 205 67q19 50 19 77q0 6 -2 16q-11 50 -73 50q-52 0 -127 -35q-20 -10 -31 -10q-12 0 -18 14q-2 6 -2 8q0 10 48 59q101 105 131 139q138 153 138 218q0 30 -35 30q-26 0 -72 -18q-62 -25 -122.5 -75t-60.5 -76v-4
q0 -16 -17 -16q-14 0 -21 12q-5 10 -5 19q0 37 52 87.5t124 87t125 36.5q15 0 22 -2q63 -12 63 -71t-62 -151.5t-176 -201.5l-19 -19h2q1 0 4.5 0.5t5.5 0.5q22 5 49 5q45 0 82 -27t37 -79q0 -28 -12 -62q38 12 89 12q27 0 46 -4q9 -2 9 -12t-11 -10h-13q-31 0 -64.5 -5
t-50.5 -11l-18 -5q-15 -52 -89.5 -134.5t-171.5 -138.5q-111 -63 -199 -63q-8 0 -22 2zM39 -126q64 12 156.5 72.5t158 124.5t67.5 91q-10 0 -140 -48q-135 -49 -222.5 -104.5t-97.5 -101.5q-1 -2 -1 -7q0 -30 47 -30q14 0 32 3z" />
    <glyph glyph-name="bracketleft" unicode="[" horiz-adv-x="218" 
d="M72 -187q-14 7 -18 17.5t-4 37.5q0 107 57 288q44 142 132 335.5t123 228.5q9 8 24 8q13 0 23 -6.5t10 -15.5q0 -3 -2 -7q-4 -10 -25 -11q-11 -2 -16.5 -10t-31.5 -60q-94 -186 -166 -383t-91 -321q-5 -45 -5 -54q0 -11 3 -14t11 -5q24 -3 24 -16q0 -3 -5 -8
q-9 -7 -26 -7q-9 0 -17 3z" />
    <glyph glyph-name="backslash" unicode="\" horiz-adv-x="213" 
d="M95 -289q-6 -3 -10 -2q-10 5 -18 80q-46 499 -194 949q-13 37 -9 45q2 5 11 6q4 0 6 -1q9 -3 17.5 -22.5t28.5 -75.5q68 -200 107.5 -384t64.5 -421q13 -144 4 -165q-3 -7 -8 -9z" />
    <glyph glyph-name="bracketright" unicode="]" horiz-adv-x="213" 
d="M-177 -199q-17 6 -17 21q0 8 6 12t23 6q8 1 15.5 13t40.5 77q104 211 175 418.5t75 313.5q0 4 0.5 8.5t0.5 5.5q0 7 -12 9q-4 1 -6 1q-19 3 -19 14q0 7 8.5 12t21.5 5q39 0 39 -58q0 -32 -11 -96q-45 -268 -225 -627q-39 -78 -61 -108t-41 -30q-6 0 -13 3z" />
    <glyph glyph-name="asciicircum" unicode="^" horiz-adv-x="267" 
d="M280 609q-6 5 -6 8q0 7 17 20q44 37 89 91q24 31 32 31q2 0 8 -2q7 -4 9 -11t3 -35q1 -58 13 -62q10 -3 10 -12q0 -7 -10 -13q-6 -2 -8 -2q-15 0 -28.5 21t-13.5 45l-1 2q-3 0 -27 -25q-60 -58 -81 -58q-4 0 -6 2z" />
    <glyph glyph-name="underscore" unicode="_" horiz-adv-x="345" 
d="M9 -36q-7 3 -7 13q0 4 4 10q8 9 62.5 13.5t112.5 1.5q49 -4 69 -9q22 -6 22 -20q-1 -11 -10 -13t-57 0q-124 5 -185 2h-4q-3 0 -7 2z" />
    <glyph glyph-name="grave" unicode="`" horiz-adv-x="199" 
d="M305 629q-9 3 -65 48q-9 7 -14 10q-18 4 -18 16q0 18 26 18q38 0 86 -60q7 -8 7 -19q0 -15 -14 -15q-2 0 -8 2z" />
    <glyph glyph-name="a" unicode="a" horiz-adv-x="354" 
d="M135 334q45 0 63 -49l1 -2l5 5q26 32 41 32q9 0 13 -9q2 -3 2 -9q0 -7 -20 -43q-68 -121 -68 -189q0 -24 12 -27q2 -1 8 -1q41 0 149 131q21 25 30 25q5 0 5 -10q0 -20 -60 -85t-94 -81q-22 -11 -38 -11q-26 0 -40.5 21.5t-14.5 58.5q0 17 3 36v2q-1 0 -16 -21
q-69 -99 -110 -99q-5 0 -8 1q-38 10 -38 71q0 51 26.5 112t69.5 102q41 39 79 39zM142 266h-1q-32 0 -78.5 -70.5t-50.5 -126.5q-1 -5 -1 -12q0 -6 3 -6q2 0 7 3q39 20 120 141q26 39 26 50q0 10 -17 19q-2 0 -4 1t-4 1z" />
    <glyph glyph-name="b" unicode="b" horiz-adv-x="331" 
d="M238 770q6 0 10 -3q11 -8 11 -20t-10 -22q-16 -19 -72 -134t-93 -206q-20 -52 -47 -130.5t-27 -85.5v-1q2 0 7 15q40 90 89.5 142t88.5 52q24 0 38.5 -22.5t14.5 -66.5q0 -20 -3 -42q-13 -103 -81.5 -191.5t-123.5 -88.5q-37 0 -49 48q-3 10 -4 10q-3 -7 -9.5 -35
t-6.5 -32q-1 -15 -8 -23.5t-15 -8.5q-4 0 -9 3q-11 8 -11 35q0 21 8 71q49 289 195 580q44 88 67.5 122t39.5 34zM185 320q-26 -1 -90 -83.5t-75 -131.5q-2 -6 -5 -21q-4 -17 -4 -34q0 -48 28 -48q6 0 13 3q50 23 98 115.5t48 159.5q0 21 -6 36q-2 4 -5 4h-2z" />
    <glyph glyph-name="c" unicode="c" horiz-adv-x="282" 
d="M141 341h3q19 0 31 -10.5t12 -30.5q0 -16 -8.5 -27t-18.5 -11q-11 0 -15 13q-1 6 -8 6q-16 0 -49.5 -44.5t-48.5 -89.5q-14 -38 -14 -68q0 -52 44 -52q37 0 94 39t118 111q23 27 31 27q5 0 6 -4q1 -2 1 -6q0 -19 -69 -89q-109 -107 -181 -107q-12 0 -24 3q-65 18 -65 107
q0 49 23 103t65 96q34 34 73 34z" />
    <glyph glyph-name="d" unicode="d" horiz-adv-x="404" 
d="M455 737q3 0 9 -2q12 -6 12 -24q0 -24 -17 -24h-2q-13 0 -64.5 -94t-91.5 -189q-53 -124 -86.5 -245.5t-33.5 -183.5q0 -45 19 -45q24 1 70 58t127 190q21 35 30 35q3 0 6 -3t3 -7q0 -10 -21 -44q-80 -134 -132 -196t-86 -62q-9 0 -13 2q-42 17 -42 103q0 55 16 129l4 22
q0 -1 -15 -27q-70 -124 -118 -124q-7 0 -15 3q-38 13 -38 81q0 64 32.5 136t79.5 100q26 15 51 15q40 0 59 -34q3 -6 5 -6q1 0 5 11q69 192 164 334q34 52 52 71.5t31 19.5zM143 278q-27 0 -59 -49q-24 -36 -40.5 -85t-16.5 -77q0 -21 9 -21q2 0 6 2q39 19 112 160
q23 43 23 48q0 3 -7 10q-12 12 -27 12z" />
    <glyph glyph-name="e" unicode="e" horiz-adv-x="274" 
d="M128 328q21 -1 33.5 -15.5t12.5 -39.5q0 -12 -3 -27q-9 -37 -33.5 -61t-52.5 -24q-13 0 -25 6q-4 2 -6 2q-4 0 -9 -19q-9 -30 -9 -52q0 -28 14 -44t39 -16q29 0 66 21q63 37 120 116q24 32 31 32q9 0 9 -8q0 -28 -65 -95q-99 -99 -171 -99q-8 0 -20 2q-36 8 -55.5 38.5
t-19.5 73.5q0 46 21.5 94t60.5 85q31 30 62 30zM118 265q-4 0 -23 -22t-19 -27q0 -2 4 -2q3 0 9 2q7 3 19 21t12 26q0 2 -2 2z" />
    <glyph glyph-name="f" unicode="f" horiz-adv-x="258" 
d="M155 593l12 -4q11 -6 11 -25q0 -21 -13 -26q-6 -4 -32 -55q-87 -173 -149 -356l-10 -29v-1q0 -8 38 -8q84 0 202 110q11 11 19 11q7 0 7 -7q0 -11 -17 -30q-50 -52 -106.5 -82t-105.5 -30q-7 0 -7 -2q0 -3 3 -10q4 -15 4 -35q0 -59 -32 -120.5t-64 -61.5q-6 0 -12 3
q-21 11 -21 63q0 90 58.5 264t149.5 347q25 48 38.5 66t26.5 18zM-33 66q-3 0 -6 -10q-42 -134 -42 -176q0 -12 4 -12q3 0 7 4q23 24 37.5 64.5t14.5 76.5q0 15 -3 27q-6 26 -12 26z" />
    <glyph glyph-name="g" unicode="g" horiz-adv-x="428" 
d="M211 353q36 -1 36 -70q0 -68 -33 -168q-6 -15 -6 -19l1 -1q3 0 17 11q128 95 169 95q8 0 11 -4t3 -7q0 -7 -21 -18q-69 -35 -170 -111q-27 -20 -31.5 -25.5t-13.5 -26.5q-69 -165 -164.5 -300t-141.5 -135q-7 0 -11 3q-12 9 -12 29q0 55 73.5 169t177.5 218
q23 23 36 48.5t36 93.5q37 106 37 159q0 16 -5 16h-1q-37 -6 -170 -197q-40 -60 -60 -81t-37 -21q-34 0 -34 51q0 42 23.5 96.5t61.5 94.5q40 43 82 43q21 0 37 -14l8 -7l1 2l5 5t5 6q55 65 89 65h2zM73 239q-27 0 -65 -49t-58 -108q-8 -24 -8 -27l1 -2q2 0 15 13
q22 22 67 89l40 60q14 20 14 22t-6 2zM87 -55q-3 0 -16 -15q-75 -76 -130.5 -159.5t-69.5 -140.5q-4 -15 -4 -23q0 -4 2 -4q3 0 14 11q33 33 84 112.5t97 168.5q23 47 23 50z" />
    <glyph glyph-name="h" unicode="h" horiz-adv-x="422" 
d="M278 773q12 0 20 -8t8 -21q0 -10 -6 -24q-9 -16 -20 -16q-5 0 -8 1q-6 0 -40 -57q-113 -193 -202 -444q-31 -83 -31 -95l2 3q2 3 5 10t6 12q46 97 90 152t75 55h2q24 0 34.5 -19.5t20.5 -79.5q11 -64 26 -93.5t38 -29.5q32 0 95 63q27 28 34 28q3 0 5 -3q2 -4 2 -6
q0 -21 -43.5 -60.5t-76.5 -47.5q-14 -2 -19 -2q-68 0 -100 142q-13 62 -21 62q-4 0 -8 -4q-35 -27 -96 -123t-89 -168q-9 -21 -11 -25q-2 -8 -2 -11v-11q0 -23 -16 -23q-5 0 -11 3q-13 6 -13 38q0 35 20 133q45 219 166 450q38 71 78 133t56 75q15 11 30 11z" />
    <glyph glyph-name="i" unicode="i" horiz-adv-x="203" 
d="M127 420q12 0 22 -9t10 -21q0 -3 -2 -11q-8 -24 -31 -24q-6 0 -12 3q-17 8 -17 29q0 12 8 22q8 9 22 11zM90 326q9 0 16 -7t7 -18q0 -13 -8 -25q-31 -51 -50 -104t-19 -86q0 -38 23 -38q1 0 3 0.5t3 0.5q22 4 50.5 30.5t79.5 90.5q27 35 35 35q1 0 5 -2q3 -1 3 -6
q0 -18 -71 -99q-66 -78 -113 -78q-6 0 -16 2q-24 7 -37 35.5t-13 68.5q0 89 51 164q23 36 51 36z" />
    <glyph glyph-name="j" unicode="j" horiz-adv-x="169" 
d="M-249 436q10 -1 17.5 -8t7.5 -17q0 -9 -6 -16q-8 -11 -23 -11q-5 0 -13 4q-12 8 -12 21q0 17 15 24q7 3 14 3zM-271 341q19 0 19 -26q0 -33 -36 -155q-9 -29 -9 -32l1 -1l11 7q110 81 141 81q5 0 7 -1q7 -4 7 -7q0 -7 -29 -24q-53 -30 -104.5 -68.5t-54.5 -49.5
q-41 -126 -105 -244q-58 -108 -119.5 -173.5t-103.5 -65.5q-10 0 -20 5q-25 13 -25 47q0 67 84 186t214 231q10 8 13.5 16t19.5 52q33 90 52 159q13 42 19 52.5t18 10.5zM-407 0l-2 -2q-2 -1 -5.5 -4t-7.5 -6q-105 -94 -173 -193t-69 -158q0 -25 12 -25q4 0 14 5
q42 22 102 116.5t116 228.5q14 34 14 37q0 1 -1 1z" />
    <glyph glyph-name="k" unicode="k" horiz-adv-x="359" 
d="M266 802q15 0 15 -18q0 -15 -12 -36q-44 -72 -106.5 -215t-111.5 -283q-15 -43 -15 -47q0 -2 1 -2t13 6q85 45 199 130q54 39 64 39q5 0 12 -7q4 -4 4 -10q0 -14 -37 -51q-105 -104 -236 -154q-26 -10 -26 -17q0 -6 16 -21q67 -64 129 -64h8q7 1 19 1q17 0 17 -7l-2 -6
q-11 -21 -48 -21q-36 0 -82 23q-25 13 -63 48l-19 17q-4 -11 -7 -25q-20 -68 -20 -115q0 -13 1 -17q0 -1 0.5 -3t0.5 -3q0 -8 -5.5 -13.5t-13.5 -5.5q-7 0 -10 2q-14 7 -14 51q0 59 25 164t67 220q50 135 123 278.5t99 157.5q12 4 15 4z" />
    <glyph glyph-name="l" unicode="l" horiz-adv-x="252" 
d="M308 821q10 0 17 -9q7 -8 7 -23t-6.5 -27t-15.5 -12q-3 0 -7 2h-2q-22 0 -106.5 -176.5t-133.5 -325.5q-53 -160 -53 -235q0 -53 27 -53q42 0 137 125q47 61 77 107q24 36 33 36q8 -1 8 -9q0 -24 -92 -146q-62 -81 -101.5 -117t-69.5 -36q-8 0 -17 3q-44 16 -44 108
q0 93 45 240t124 307q120 241 172 241h1z" />
    <glyph glyph-name="m" unicode="m" horiz-adv-x="477" 
d="M202 356q10 0 17 -9q9 -9 9 -33q0 -21 -11 -106q-11 -82 -11 -112q0 -8 1 -8q4 0 46 66q36 60 54.5 82.5t31.5 22.5q5 0 9 -3q8 -5 10.5 -15.5t3.5 -45.5q2 -57 9.5 -81t24.5 -24q37 0 87 94q11 25 27 25q4 0 5 -3q2 -2 2 -5q0 -25 -39.5 -81.5t-75.5 -59.5h-8
q-26 0 -43 31t-17 81q0 48 -3 48q-6 -4 -50 -74q-37 -59 -52 -77t-28 -18h-5q-27 6 -27 65q0 42 12 123q8 58 8 62l-1 4l-2 -2q-47 -52 -105.5 -146t-62.5 -123q-2 -22 -20 -22q-7 0 -12 4q-11 11 -11 39q0 45 20.5 115t50 124.5t50.5 54.5l3 -1q15 -3 15 -23q0 -17 -12 -29
q-8 -6 -26 -56q-21 -51 -21 -60l16 28q85 148 130 148h1z" />
    <glyph glyph-name="n" unicode="n" horiz-adv-x="342" 
d="M89 349q14 -2 14 -14q-2 -12 -9 -24q-11 -21 -28 -61.5t-17 -45.5q3 0 13 19q52 79 84 78q31 -2 38 -84q4 -54 16.5 -78t38.5 -25q57 -2 111 87q14 24 23 24q4 0 6 -4q2 -2 2 -6q-1 -26 -50.5 -80t-94.5 -55h-9q-70 3 -85 141q-2 30 -5 33q-6 1 -36 -36t-56 -77
q-24 -37 -30 -50.5t-14 -52.5q-1 -7 -7 -11.5t-13 -3.5q-4 0 -7 1q-13 7 -11 42q2 65 22.5 133.5t49 111t54.5 38.5z" />
    <glyph glyph-name="o" unicode="o" horiz-adv-x="264" 
d="M115 345h2q15 -2 19 -16q4 -6 5 -6l2 1q6 2 11 1q25 -2 38 -29q12 -25 9 -63q-6 -78 -67 -152.5t-120 -70.5q-10 2 -15 4q-52 16 -45 98q7 89 77 178q47 58 84 55zM127 299q-19 0 -61.5 -78.5t-46.5 -122.5q-4 -39 22 -41h7q40 11 78.5 72t42.5 112q2 20 -5 34.5
t-20 18.5q-2 1 -7.5 2t-6.5 2t-3 1z" />
    <glyph glyph-name="p" unicode="p" horiz-adv-x="365" 
d="M-18 387q9 0 15.5 -6t6.5 -14q0 -9 -8 -16q-23 -18 -88 -160q-11 -25 -11 -26q1 0 16 20q137 198 222 198q11 0 23 -5q26 -13 26 -52q0 -54 -42.5 -134t-105.5 -141.5t-112 -61.5q-45 0 -70 36l-2 2q-2 0 -13 -20q-34 -58 -71 -181q-47 -156 -47 -225q0 -13 3 -18
q4 -6 4 -10q0 -8 -7 -14t-17 -6q-6 0 -12 3q-17 10 -17 58q0 49 14 123q20 108 75.5 259t116 265t92.5 125q3 1 9 1zM131 335q-21 0 -84 -59.5t-122 -137.5q-50 -66 -50 -81q0 -2 2 -10q6 -24 40 -24q12 0 20 4q56 24 129 131t73 166q0 9 -8 11z" />
    <glyph glyph-name="q" unicode="q" horiz-adv-x="381" 
d="M158 373q49 0 65 -52q1 -7 3 -7t8 10q26 39 40 39q3 0 9 -4q6 -5 6 -12q0 -10 -26 -61q-73 -139 -133 -311q-6 -15 -6 -18l1 -1q1 0 7 2q8 3 13 3h15q6 0 17 7q76 52 185 199q41 56 50 56q2 0 4 -1q6 -3 6 -8q0 -13 -57 -90q-86 -115 -169 -174q-8 -5 -8 -7q0 -3 2 -5
q11 -15 11 -46q0 -65 -43.5 -144.5t-83.5 -79.5q-7 0 -13 3q-27 15 -27 81q0 119 75 321q2 6 4.5 12.5t4.5 10.5l1 4q-6 -7 -12 -16q-40 -53 -71 -53q-21 0 -33 23.5t-12 62.5q0 94 60 184q47 72 107 72zM164 307q-5 0 -7 -1q-37 -8 -78 -82t-41 -133q0 -20 5 -20q3 0 8 3
q30 15 117 158q4 7 9.5 15.5l9.5 14.5t5 8q3 4 3 10q0 10 -9.5 18.5t-21.5 8.5zM163 -71q-2 0 -14 -5q-19 -9 -34 -9q-4 0 -5 -2t-5 -14q-36 -117 -36 -174q0 -19 5 -27q3 -3 5 -3t8 3q31 14 60 78t29 113q0 20 -6 32q-5 8 -7 8z" />
    <glyph glyph-name="r" unicode="r" horiz-adv-x="349" 
d="M104 355q9 0 15 -9q4 -8 4 -10q0 -6 -9 -22q-19 -35 -44 -89t-25 -60q3 3 7 8q59 75 127.5 126t111.5 51h1q20 0 31.5 -11t11.5 -27q0 -18 -15 -32q-10 -8 -19 -8t-15 6t-6 16q0 2 2 10v1q0 2 -4 2q-11 0 -29 -7q-71 -30 -155.5 -118t-84.5 -131q0 -6 1 -9q2 -6 2 -9
q0 -10 -8 -17.5t-18 -7.5q-6 0 -12 3q-16 9 -16 43q0 47 27.5 122t70.5 139q26 40 47 40h1z" />
    <glyph glyph-name="s" unicode="s" horiz-adv-x="368" 
d="M188 361q31 0 40 -19q3 -6 3 -15q0 -27 -23 -42q-5 -4 -11 -4q-7 0 -12.5 5.5t-5.5 12.5v4l1 3l-1 2h-1l-2 -1q-50 -12 -124.5 -57.5t-74.5 -64.5q0 -10 53 -30q40 -16 61 -28q6 -3 9 -3q6 0 25 9q63 30 131.5 54t91.5 24q1 0 3 -1h2q6 -2 6 -6q0 -8 -25 -16
q-98 -26 -197 -79q-10 -5 -10 -8q0 -2 3 -7q17 -27 17 -59q0 -66 -62 -121.5t-139 -55.5q-22 0 -39 4q-39 9 -39 41q0 37 49.5 90t133.5 101q14 8 14 11q0 5 -49 21q-48 17 -63.5 29.5t-15.5 34.5q0 51 92 111t158 60h1zM94 82q-2 0 -23 -12q-74 -42 -119 -87.5t-45 -76.5
q0 -21 34 -21q11 0 33 5q64 16 102 60.5t38 87.5q0 20 -9 35q-5 9 -11 9z" />
    <glyph glyph-name="t" unicode="t" horiz-adv-x="227" 
d="M95 823q2 0 10 -4q10 -6 10 -17q0 -10 -4 -23q-5 -15 -8.5 -20t-10.5 -5h-3q-3 0 -42 -72.5t-39 -77.5l33 -2q98 -3 177 -14t90 -22q6 -8 6 -12q0 -10 -22 -10q-11 0 -17 1q-126 18 -242 18l-46 -1q-69 -151 -114 -293.5t-45 -209.5q0 -13 1 -18q8 -50 33 -50
q57 0 169 208q15 29 24 29q2 0 4 -2t2 -7q0 -20 -39 -84q-54 -90 -91 -129t-69 -39q-8 0 -12 1q-58 12 -58 119q0 170 126 448q3 6 5.5 12t4.5 10t2 5q0 2 -13 2q-2 0 -48 -2q-223 -10 -242 -26q-5 -4 -11 -4q-7 0 -12.5 5t-5.5 12t5 11q11 11 111.5 24t208.5 18
q20 1 25 4.5t16 25.5q56 108 84 149.5t47 41.5z" />
    <glyph glyph-name="u" unicode="u" horiz-adv-x="426" 
d="M280 341q6 0 9 -2q10 -4 10 -13q0 -11 -17 -42q-56 -111 -56 -168q0 -46 34 -46q50 0 142 98q47 51 54 51q3 0 6 -3q2 -1 2 -6q0 -15 -67 -82q-79 -81 -134 -85h-7q-33 0 -53 25.5t-20 65.5q0 7 2 25q1 2 1 4q-1 0 -11 -14q-88 -125 -134 -125q-7 0 -10 1q-45 12 -45 84
q0 71 42 153q38 75 70 75q10 0 17 -10q4 -8 4 -10q0 -9 -28 -61q-57 -103 -57 -170q0 -11 4 -21q2 -5 9 -5q22 0 57 40q21 25 62.5 86.5t57.5 92.5q33 62 55 62h1z" />
    <glyph glyph-name="v" unicode="v" horiz-adv-x="357" 
d="M85 338q7 0 14 -4q11 -8 11 -18q0 -11 -10 -28q-30 -54 -51.5 -121t-21.5 -100q0 -21 9 -21q17 0 49 42.5t92 148.5q29 53 39 53q5 0 17 -20q33 -61 91 -61q21 0 37 5q20 5 24 5q8 0 8 -9q0 -17 -47 -25q-16 -2 -22 -2q-67 0 -101 50q-7 10 -9 10q-1 0 -7 -10
q-120 -222 -178 -222q-4 0 -12 2q-37 14 -37 80q0 53 24 123q42 122 81 122z" />
    <glyph glyph-name="w" unicode="w" horiz-adv-x="483" 
d="M85 342q2 0 4 -1q15 -3 15 -19q0 -8 -6 -17l-14 -28q-64 -128 -64 -201q0 -32 16 -32q20 0 56 49q15 19 40 65t30 64q9 27 23 27q12 0 12 -22q0 -7 -1 -11q-2 -22 -2 -30q0 -46 17.5 -75t44.5 -29q13 0 29 8q26 13 41.5 43.5t15.5 63.5q0 21 -8 42q-3 9 -3 15q0 9 7 9
q10 0 26 -13q61 -50 104 -50q7 0 19 2q4 1 8 2.5l6.5 2.5t4.5 1t4 -2q4 -3 4 -8q0 -6 -6.5 -13t-16.5 -10q-17 -3 -30 -3q-45 0 -79 28q-8 6 -11 6q-1 -7 -1 -16q0 -91 -71 -134q-22 -14 -47 -14q-31 0 -56 25t-35 68l-3 15q-2 0 -11 -20q-65 -120 -118 -120q-10 0 -18 4
q-37 17 -37 89q0 46 18 100q19 59 46.5 99t46.5 40z" />
    <glyph glyph-name="x" unicode="x" horiz-adv-x="277" 
d="M156 361q6 0 9 -7q2 -4 2 -6q0 -8 -64 -82q-113 -130 -114 -135v-3q0 -13 9.5 -35.5t21.5 -33.5q16 -14 35 -14q68 0 168 153q17 21 25 21t8 -8q0 -26 -62.5 -98.5t-107.5 -94.5q-24 -11 -44 -11q-52 0 -87 73q-1 4 -4 4q-7 0 -50 -56q-27 -34 -33 -34q-2 0 -7 6
q-2 2 -2 5q0 18 63 103q15 19 15 23q0 2 -2 8q-7 32 -7 71q0 57 15 100t36 43q8 0 13 -4q12 -7 12 -25q0 -9 -7 -49q-11 -60 -11 -72q0 -8 3 -8t11 8q79 91 111.5 124t44.5 34z" />
    <glyph glyph-name="y" unicode="y" horiz-adv-x="480" 
d="M269 370q13 0 23 -12q12 -14 12 -52q0 -73 -44 -202l-5.5 -15t-4.5 -11.5t-3.5 -8.5t-2 -6t-0.5 -3t1 -1l2 1q2 2 7 6l10 8q57 49 109.5 83.5t69.5 34.5q6 0 7 -4q1 -2 1 -4t-2 -4t-10 -7t-17 -12q-8 -7 -68 -49t-98 -77q-6 -5 -12.5 -11t-9 -8t-6 -6t-5.5 -8l-5 -10
t-7 -16q-74 -169 -174.5 -302t-153.5 -133q-5 0 -11 2q-16 6 -16 28q0 54 81 171.5t193 221.5q20 19 24.5 24t9.5 17q43 90 72.5 180.5t29.5 127.5q0 17 -7 17q-4 0 -6 -2q-20 -13 -50 -45.5t-114 -132.5q-82 -99 -115 -99q-12 0 -23 8q-25 18 -25 71q0 75 41 140
q17 29 40 29q20 0 20 -27v-4q-1 -13 -10 -22q-10 -9 -23.5 -61t-13.5 -77q0 -7 1 -9q2 -2 3 -2q20 0 150 152q58 67 87.5 94t47.5 27zM119 -86q-1 0 -26 -26q-87 -90 -144.5 -175t-64.5 -131v-2q0 -4 2 -4t22 18q43 41 101 128t104 177q1 3 2.5 6.5t2.5 5.5t1 3z" />
    <glyph glyph-name="z" unicode="z" horiz-adv-x="393" 
d="M16 354h3q39 -3 39 -42q0 -57 -75 -171l-8 -13l1 -1q1 0 13 5q36 13 57 13q27 0 41 -17q3 -4 6 -4q4 0 26 14q123 81 154 81h2q10 -3 10 -8q0 -10 -21 -19q-81 -37 -135 -78q-4 -3 -9.5 -6.5t-7 -5t-4.5 -4t-3.5 -3.5t-1.5 -4t-1.5 -5.5t-0.5 -6.5q-3 -79 -76.5 -206
t-165.5 -223t-146 -96q-6 0 -9 1q-26 6 -26 38q0 78 125 244.5t262 262.5q2 2 2 3t-3 5q-6 6 -17 6q-19 0 -72 -21q-23 -9 -32 -9q-11 0 -15 10q-3 5 -3 10q0 14 43 92q49 89 49 107q0 8 -7 8t-20 -6q-20 -10 -55.5 -45.5t-35.5 -44.5v-1q1 -2 1 -7q0 -8 -7.5 -14.5
t-16.5 -6.5q-7 0 -14 5q-6 6 -6 15q0 35 59.5 91.5t100.5 56.5zM66 66q-2 -1 -15 -11q-124 -100 -228.5 -236t-115.5 -213q-1 -5 -1 -12q0 -12 8 -12q6 0 17 6q51 25 126.5 113t136 190.5t72.5 164.5q1 3 1 8q0 2 -1 2z" />
    <glyph glyph-name="braceleft" unicode="{" horiz-adv-x="269" 
d="M142 -208q-40 14 -40 76q0 68 50 207q43 119 43 150q0 23 -21 26q-24 3 -24 15q0 11 21 32q75 77 157 246q45 91 76 129.5t63 44.5q2 0 4.5 0.5t3.5 0.5q12 0 19 -6.5t7 -15.5q0 -7 -6 -16q-4 -4 -9 -4q-10 0 -10 7q0 6 -3 6q-11 0 -44 -49.5t-63 -111.5
q-48 -96 -78.5 -144t-75.5 -96q-7 -7 -7 -10q0 -1 5 -6q21 -15 21 -48q0 -43 -47 -180q-45 -134 -45 -187q0 -39 23 -39h1q16 0 16 -8t-8.5 -14.5t-18.5 -6.5q-4 0 -10 2z" />
    <glyph glyph-name="bar" unicode="|" horiz-adv-x="206" 
d="M-8 -282q-12 6 -12 34q0 19 2 32q14 128 75.5 327.5t142.5 384.5q43 97 86.5 182.5t54.5 95.5q5 5 12 5q10 0 10 -12q0 -6 -3 -12q-22 -41 -73.5 -157.5t-80.5 -191.5q-77 -192 -134.5 -387t-62.5 -279q-1 -24 -10 -24q-3 0 -7 2z" />
    <glyph glyph-name="braceright" unicode="}" horiz-adv-x="232" 
d="M-168 -215q-8 5 -8 13q0 12 11 12q5 0 27 23t36 44q22 34 40 77t49 137q27 81 39.5 110.5t29.5 54.5q8 9 8 13q0 1 -3 6q-16 27 -16 56q0 54 64 183q56 109 56 140q0 18 -15 26q-16 10 -16 20q0 8 12 8q8 0 12 -2q40 -13 40 -54q0 -47 -50 -151q-63 -136 -63 -175
q0 -19 9 -37t9 -23q0 -7 -10 -17q-19 -19 -34.5 -56.5t-42.5 -123.5q-33 -107 -61 -162t-71 -98q-26 -26 -42 -26q-7 0 -10 2z" />
    <glyph glyph-name="asciitilde" unicode="~" horiz-adv-x="406" 
d="M185 130q-5 5 -5 12q0 19 23.5 44.5t46.5 29.5q3 1 9 1q18 0 47 -26q24 -22 46 -22q25 0 53 26q10 10 18 10t8 -11q0 -14 -16 -31q-33 -33 -71 -33q-35 0 -61 25q-19 16 -32 16q-18 0 -44 -32q-11 -12 -15 -12q-2 0 -7 3z" />
    <glyph glyph-name="exclamdown" unicode="&#xa1;" horiz-adv-x="170" 
d="M169 790q16 -4 16 -20q1 -9 -5 -16.5t-16 -7.5h-2q-9 0 -15 6.5t-7 14.5q0 15 12 21q6 3 10 3q2 1 7 -1zM156 716q6 -2 8 -17q0 -37 -19 -109q-55 -210 -106 -346.5t-114 -245.5q-45 -81 -72 -83q-5 0 -12 5q-5 6 -7 13q0 7 8 18q32 40 89.5 167.5t105.5 265.5
q54 150 95 313q4 21 15 23q5 0 9 -4z" />
    <glyph glyph-name="cent" unicode="&#xa2;" horiz-adv-x="389" 
d="M140 -72q-9 4 -9 21q0 20 13 65q1 4 2 7.5t1.5 6t0.5 3.5q0 3 -6 8q-40 30 -40 102q0 101 66 206.5t142 106.5q6 0 9 3t14 22q40 70 53 70q3 0 9 -4t6 -11q0 -10 -31 -68q-8 -13 -8 -19q0 -4 7 -11q21 -21 21 -63q0 -28 -10.5 -51t-27.5 -28q-3 -1 -7 -1q-9 0 -9 12
q0 8 3 20q5 16 5 42q0 30 -7 30h-2q-4 -3 -36.5 -74.5t-51.5 -119.5q-50 -126 -50 -144q1 -1 2 -1q13 0 54 43t63 81q11 18 17 18q1 0 5 -2q4 -3 4 -10q0 -28 -53 -87.5t-91 -71.5q-10 -3 -12 -5t-5 -13q-16 -52 -18 -68q-3 -19 -14 -19q-3 0 -9 4zM171 110q48 159 108 270
l6 12q-5 0 -29 -17q-51 -38 -84.5 -107.5t-33.5 -130.5q0 -30 8 -50q8 -21 12 -21z" />
    <glyph glyph-name="sterling" unicode="&#xa3;" horiz-adv-x="470" 
d="M-9 -17q-8 5 -6 14q0 11 8 11l2 -1q5 0 13 7q78 56 128 216q7 23 7 24q1 5 -6 6q-2 0 -9.5 -0.5t-13.5 -0.5q-12 -2 -20 0q-19 1 -20 18v2q1 17 69 21q15 1 16 4q28 97 62 154t82 89q38 25 75 23q56 -5 67 -61v-18q-2 -25 -13 -48t-22 -22q-1 1 -3 1q-7 4 -7 16l4 21
q2 8 4 22q3 46 -33 49q-30 2 -68 -27.5t-64 -80.5q-11 -21 -27.5 -65.5t-17.5 -54.5l18 -2q90 -6 88 -33q-1 -9 -5 -12t-16 -2q-2 0 -10 1t-13 2l-25 2q-16 1 -33 1.5t-17 -0.5q-6 -16 -11 -34q-37 -113 -84 -175q-9 -10 -9 -12t1 -2t4 0.5t5 0.5q12 1 25 0q33 -3 66 -14
q36 -13 68 -17q12 0 17 1q10 1 18 1q3 0 5 -3q4 -4 4 -10q-2 -20 -63 -16q-27 2 -52 10q-35 11 -66 12q-55 3 -93 -16q-12 -6 -20 -6q-5 0 -9 4z" />
    <glyph glyph-name="yen" unicode="&#xa5;" horiz-adv-x="450" 
d="M118 -47q-12 7 -12 37q1 34 23 94q3 6 3 9q0 4 -9 4h-10q-17 0 -22 1q-20 0 -20 11q1 16 60 19q11 0 21 12t11 26q0 2 -6 2q-25 0 -58 -1h-17q-13 1 -17.5 4.5t-4.5 12.5q1 19 83 20l15 2q0 2 -5 12q-14 33 -11 90q2 64 21.5 134t48.5 113q17 23 32 21q15 0 13 -16
q0 -7 -5 -19q-26 -50 -44.5 -124t-20.5 -130q-3 -66 17 -66q25 -1 61 43.5t119 180.5l49 80q18 32 29 30q3 0 4 -2q3 -3 3 -8q-1 -18 -60 -115q-105 -174 -148 -216l-9 -9q0 -3 18 -4q58 -6 58 -23q0 -2 -2 -6q-3 -8 -12.5 -9t-54.5 0q-40 2 -52.5 -4t-14.5 -29q0 -2 39 -2
q32 -1 39.5 -3t10.5 -9q2 -4 2 -7q-1 -10 -41 -10q-49 -1 -55.5 -2t-8.5 -8q-29 -81 -31 -116q-5 -23 -19 -23q-5 0 -10 3z" />
    <glyph glyph-name="section" unicode="&#xa7;" horiz-adv-x="399" 
d="M-25 -145q-45 12 -45 61q0 50 46 86q14 13 29 13q16 0 16 -14q0 -10 -10 -21q-32 -35 -32 -59q0 -23 29 -23q24 0 63 18q107 52 107 128q0 46 -42 118q-74 120 -74 195q0 22 5 36q8 32 31.5 55t56.5 31l11 4q0 1 -6 13q-33 57 -33 107q0 107 138 171q41 20 80 20
q34 0 54.5 -16.5t20.5 -43.5q0 -36 -36 -76q-22 -23 -43 -23q-15 0 -15 11q0 10 11 22q33 39 33 67q0 8 -5 11q-8 4 -21 4q-41 0 -96.5 -36t-73.5 -79q-4 -11 -4 -27q0 -61 54 -141q60 -92 60 -176q0 -38 -16 -67q-12 -20 -38.5 -38t-42.5 -18q-5 0 -5 -3q0 -4 4 -8
q36 -57 36 -111q0 -30 -12 -57q-25 -52 -92 -94.5t-121 -42.5q-12 0 -22 3zM178 203q70 18 70 85q0 55 -47 138q-13 22 -19 22q-4 0 -13 -3q-70 -16 -70 -85q0 -52 38 -119q13 -26 18 -33t11 -7z" />
    <glyph glyph-name="copyright" unicode="&#xa9;" horiz-adv-x="560" 
d="M257 -106q-60 12 -90 67t-28 133q2 80 39 161t102 138q84 75 166 72q67 -2 108.5 -56.5t38.5 -143.5q-1 -35 -11 -78q-30 -123 -119.5 -211.5t-179.5 -84.5q-14 0 -26 3zM310 -82q92 12 171 120.5t83 225.5q0 23 -1 33q-5 60 -34 92.5t-73 34.5q-47 2 -100 -31.5
t-99 -98.5q-74 -103 -79 -216q-2 -70 27 -115t83 -46q7 -1 22 1zM312 48q-35 12 -33 67q2 47 32 94q23 38 50 58.5t51 19.5q25 0 37 -26q7 -13 5 -29q-1 -20 -8.5 -36.5t-16.5 -16.5q-5 0 -9 6q-2 2 -2 20v6q2 30 -9 30h-4q-31 -11 -60 -55.5t-30 -79.5q0 -8 1 -12
q3 -18 14 -18q16 -1 52 32q22 22 30 22q6 -2 5 -13q-1 -22 -34.5 -46.5t-60.5 -23.5q-7 0 -10 1z" />
    <glyph glyph-name="ordfeminine" unicode="&#xaa;" horiz-adv-x="231" 
d="M234 587q-18 10 -18 39q0 40 29.5 86t63.5 50h3q11 0 21 -5.5t12 -12.5l1 -1q2 0 6 3q7 4 13 4q13 0 13 -12q0 -7 -5 -12q-12 -15 -22 -41.5t-10 -43.5q0 -9 3 -13q4 -4 4 -9q0 -6 -4.5 -10.5t-11.5 -4.5q-3 0 -11 4q-10 7 -12 21q0 6 -2 6q-1 0 -10 -10q-30 -41 -52 -41
q-5 0 -11 3zM259 617q17 13 41.5 49.5t24.5 48.5q0 2 -1 3q-2 2 -4 2q-15 0 -42.5 -39.5t-27.5 -61.5q0 -6 2 -6q1 0 7 4z" />
    <glyph glyph-name="guillemotleft" unicode="&#xab;" horiz-adv-x="461" 
d="M276 66q-4 2 -15 15q-35 45 -73 57q-18 6 -23 10.5t-5 14.5t9.5 17t49.5 27q85 41 114 58q31 17 41 17q8 0 11 -8q2 -6 2 -8q0 -13 -41 -40q-22 -14 -68 -38.5t-51 -24.5l-2 -1q0 -1 9 -7q14 -9 31 -29t23 -33q4 -8 4 -15q0 -14 -10 -14q-2 0 -6 2zM391 107
q-26 25 -41 30q-25 9 -25 23q0 11 8.5 18t42.5 22q42 19 77 40q16 10 22 10q4 0 7 -3q5 -5 5 -11q0 -26 -76 -62l-24 -14l1 -1q16 -10 28 -27t12 -28q0 -6 -4 -9q-4 -6 -8 -6t-25 18z" />
    <glyph glyph-name="registered" unicode="&#xae;" horiz-adv-x="602" 
d="M269 -122q-62 15 -92 73t-25 138q5 83 45 166.5t110 142.5q89 75 173 70q70 -5 112 -62.5t36 -150.5q-1 -34 -13 -81q-34 -127 -129.5 -216t-189.5 -84q-18 2 -27 4zM325 -99q63 7 125 61.5t103 134t45 158.5q1 18 0 34q-4 63 -33 98t-75 37q-49 3 -104.5 -30t-105.5 -98
q-80 -108 -87 -225q-5 -72 24 -119.5t86 -50.5h22zM296 39q-6 6 -6 24q2 32 24 84.5t50.5 93.5t46.5 40q13 -1 13 -18q0 -11 -11 -17q-8 -4 -20 -28q2 0 17 12q43 36 67 35q13 0 22 -14q4 -5 4 -16q-2 -30 -42 -71t-86 -58q-8 -2 -8 -4l1 -1q0 -1 1 -2.5t2 -3.5
q10 -17 30 -19q9 0 14 1q2 1 7 1q14 -2 12 -12q0 -14 -20 -22q-9 -3 -19 -3q-35 2 -53 31q-6 9 -7 9q-2 0 -5 -10q-8 -25 -11 -30t-12 -6h-3q-2 0 -8 4zM409 174q15 10 33 28.5t19 23.5l-1 1q-7 1 -45.5 -32.5t-43.5 -44.5q8 0 38 24z" />
    <glyph glyph-name="degree" unicode="&#xb0;" horiz-adv-x="294" 
d="M335 453q-25 7 -41 27t-16 46q0 10 3 21q9 25 29.5 39t45.5 14q24 0 43.5 -13t26.5 -37q4 -9 4 -22q0 -32 -22.5 -55t-53.5 -23q-8 0 -19 3zM373 487q24 12 24 37q0 16 -13 28q-14 14 -29 14q-13 0 -27 -12q-12 -14 -12 -28q0 -17 12 -30t29 -13q9 0 16 4z" />
    <glyph glyph-name="plusminus" unicode="&#xb1;" horiz-adv-x="336" 
d="M257 128q-3 1 -64 1l-30 -1q-51 0 -51 12q0 1 4 11q8 14 81 14q61 0 75 -12q4 -4 4 -12q0 -15 -10 -15q-2 0 -3 1q-3 0 -6 1zM229 214q-13 6 -13 31q0 12 3 27q2 8 2 9q0 5 -10 5q-14 0 -45 -4h-2q-15 0 -15 13q0 9 9 13q7 3 33.5 8t37.5 5q5 0 6 1.5t5 9.5q24 46 40 50
h3q14 0 14 -13q0 -3 -3 -8q-2 -3 -9.5 -19t-7.5 -18q0 -1 21 -3q46 -4 46 -22q0 -13 -12 -13l-6 1q-24 2 -31 2q-32 0 -35 -11q-9 -24 -9 -44v-6q0 -16 -13 -16q-6 0 -9 2z" />
    <glyph glyph-name="twosuperior" unicode="&#xb2;" horiz-adv-x="218" 
d="M206 441q-8 5 -8 11q0 10 19 21q37 21 63.5 48.5t26.5 44.5q0 5 -13 5q-17 0 -24 -7q-3 -4 -7 -4q-14 0 -14 12t18 22t38 10q9 0 17 -3q23 -10 23 -35q0 -41 -51 -81l-11 -10q0 -1 3 -1q29 -3 29 -16q0 -3 -1 -5q-3 -7 -38 -9q-39 -2 -46 -4q-9 -1 -16 -1q-5 0 -8 2z" />
    <glyph glyph-name="threesuperior" unicode="&#xb3;" horiz-adv-x="209" 
d="M216 443q-10 4 -10 12q0 9 16 11q21 1 45.5 12t24.5 18q0 3 -19 6q-25 4 -25 17t21 31q20 17 20 19q0 1 -3 1h-7q-14 -2 -18 -4t-7 -2q-7 0 -9 10v1q0 14 32 23q13 3 22 3q30 0 30 -23q0 -17 -22 -39q-10 -11 -10 -12l2 -2q20 -6 20 -28q0 -17 -15 -30q-12 -10 -34.5 -18
t-39.5 -8q-10 0 -14 2z" />
    <glyph glyph-name="acute" unicode="&#xb4;" horiz-adv-x="181" 
d="M193 468q-5 4 -5 13q0 25 38 59.5t66 34.5q8 0 11 -2q8 -4 8 -15q0 -8 -5.5 -15t-13.5 -7t-30 -18t-39 -40q-12 -15 -20 -15q-5 0 -10 5z" />
    <glyph glyph-name="periodcentered" unicode="&#xb7;" horiz-adv-x="194" 
d="M147 161q-16 8 -18 20q-1 3 -1 7q0 12 8.5 20t20.5 8q8 0 12 -3q16 -7 16 -24q0 -12 -8 -21t-20 -9q-4 0 -10 2z" />
    <glyph glyph-name="periodcentered" unicode="&#x2219;" horiz-adv-x="194" 
d="M147 161q-16 8 -18 20q-1 3 -1 7q0 12 8.5 20t20.5 8q8 0 12 -3q16 -7 16 -24q0 -12 -8 -21t-20 -9q-4 0 -10 2z" />
    <glyph glyph-name="onesuperior" unicode="&#xb9;" horiz-adv-x="155" 
d="M227 452q-11 6 -11 23q0 24 23 73q10 21 10 24q0 1 -2 3q-5 3 -5 8q0 8 9 16t19 8q4 0 6 -1q13 -4 13 -19q0 -14 -17 -53q-21 -48 -21 -58l1 -4v-5q0 -18 -16 -18q-4 0 -9 3z" />
    <glyph glyph-name="ordmasculine" unicode="&#xba;" horiz-adv-x="178" 
d="M232 450q-28 10 -28 53q0 31 15 60.5t40 40.5q8 4 16 4q14 0 21 -7q15 -18 15 -47q0 -37 -21 -71.5t-47 -34.5q-3 0 -11 2zM261 481q14 11 23 34t9 43q0 22 -12 24h-2q-14 0 -26.5 -25.5t-12.5 -53.5q0 -27 9 -27q4 0 12 5z" />
    <glyph glyph-name="guillemotright" unicode="&#xbb;" horiz-adv-x="429" 
d="M268 67q-8 3 -8 11q0 18 33.5 49t78.5 52q17 9 17 10t-14 10q-28 17 -45.5 37.5t-17.5 35.5q0 5 2 9q3 7 10 7q5 0 13 -8q30 -35 80 -64q29 -17 31 -20q3 -4 3 -10q0 -11 -28 -23q-35 -13 -75 -39t-60 -49q-9 -9 -14 -9q-4 0 -6 1zM162 88q-4 4 -4 10q0 29 88 86
q14 10 14 11q0 2 -6 5q-30 17 -30 36q0 5 3 8t6 3q5 0 19 -9q18 -12 48 -20q20 -5 20 -16q0 -14 -31 -32q-60 -34 -100 -72q-14 -13 -20 -13q-3 0 -7 3z" />
    <glyph glyph-name="questiondown" unicode="&#xbf;" horiz-adv-x="551" 
d="M446 750q11 -5 11 -18q0 -12 -9 -17q-6 -2 -9 -2q-19 0 -19 19v2q4 18 20 18q2 0 6 -2zM433 685q10 -6 10 -27q0 -39 -21 -81q-26 -51 -73.5 -113.5t-149.5 -182.5q-91 -106 -125 -159.5t-35 -89.5q0 -32 27 -48t72 -16q67 0 147 33t134 89q46 47 46 78q0 38 -69 48
q-32 6 -32 25q0 10 11.5 18.5t29.5 8.5q6 0 9 -1q42 -5 66.5 -30t24.5 -60q0 -30 -20 -64q-47 -76 -147.5 -125t-191.5 -49q-51 0 -87 17t-47 50q-2 14 -2 21q-4 44 26 92.5t113 149.5l109 134q72 91 116.5 161.5t44.5 91.5q0 7 -5 7q-7 3 -7 8q0 3 1 4q5 13 17 13q4 0 8 -3
z" />
    <glyph glyph-name="Agrave" unicode="&#xc0;" horiz-adv-x="588" 
d="M-53 -181q-7 4 -7 16q1 20 42 103q1 2 5.5 10t6.5 12q3 7 10 21q3 9 17 34q48 99 118 230q14 26 14 28t-2 2q-1 0 -17 -7q-71 -30 -78 -42q-6 -7 -15 -7q-15 0 -15 14v2q1 24 128 80q22 9 29 16.5t27 44.5q108 186 203 298t145 112h2l4 -1q32 -5 32 -47v-8
q-4 -59 -71 -254q-1 -2 -3 -7.5t-2 -7.5q-2 -8 -13 -41l-11 -32q0 -1 11 -3q52 -9 54 -36v-6q0 -15 -12 -15q-5 0 -12 7q-10 15 -46 16h-4q-4 0 -10 -18q-3 -11 -6 -19q-88 -264 -121 -426q0 -7 -4 -29q-2 -19 -5 -24t-13 -5q-22 2 -22 44v9q2 22 5 33q21 98 41 169
q6 20 7 23q0 4 24 86q23 76 46 141q1 3 2 5.5t1.5 4.5t0.5 3q0 3 -3 3l-4 -1h-8q-9 0 -33 -3q-2 0 -19.5 -3t-21.5 -5q-3 0 -19 -4q-24 -6 -59 -17.5t-39 -14.5q-1 -1 -19 -30l-28 -51l-7.5 -12.5t-7.5 -12t-4 -6.5q-6 -13 -33 -61l-51 -93l-17 -30t-12 -20
q-74 -135 -79 -158q-2 -12 -14 -12h-2zM279 361q21 7 26 7q1 0 11 3q56 14 119 17q9 0 11 2t6 12q2 4 19 53q80 225 83 273v6q0 5 -2 7q-1 0 -7 -4q-33 -22 -96.5 -99.5t-124.5 -170.5q-68 -110 -68 -111t1 -1l3 1q2 0 7.5 1.5t11.5 3.5zM487 866q0 12 14 17q15 3 35 -3
q18 -5 36 -20q15 -16 9 -27q-6 -9 -27 0q-1 0 -3 1t-4.5 1.5t-4.5 1.5q-3 1 -13 4q-23 6 -32 12q-8 4 -10 13z" />
    <glyph glyph-name="Aacute" unicode="&#xc1;" horiz-adv-x="588" 
d="M-53 -181q-7 4 -7 16q1 20 42 103q1 2 5.5 10t6.5 12q3 7 10 21q3 9 17 34q48 99 118 230q14 26 14 28t-2 2q-1 0 -17 -7q-71 -30 -78 -42q-6 -7 -15 -7q-15 0 -15 14v2q1 24 128 80q22 9 29 16.5t27 44.5q108 186 203 298t145 112h2l4 -1q32 -5 32 -47v-8
q-4 -59 -71 -254q-1 -2 -3 -7.5t-2 -7.5q-2 -8 -13 -41l-11 -32q0 -1 11 -3q52 -9 54 -36v-6q0 -15 -12 -15q-5 0 -12 7q-10 15 -46 16h-4q-4 0 -10 -18q-3 -11 -6 -19q-88 -264 -121 -426q0 -7 -4 -29q-2 -19 -5 -24t-13 -5q-22 2 -22 44v9q2 22 5 33q21 98 41 169
q6 20 7 23q0 4 24 86q23 76 46 141q1 3 2 5.5t1.5 4.5t0.5 3q0 3 -3 3l-4 -1h-8q-9 0 -33 -3q-2 0 -19.5 -3t-21.5 -5q-3 0 -19 -4q-24 -6 -59 -17.5t-39 -14.5q-1 -1 -19 -30l-28 -51l-7.5 -12.5t-7.5 -12t-4 -6.5q-6 -13 -33 -61l-51 -93l-17 -30t-12 -20
q-74 -135 -79 -158q-2 -12 -14 -12h-2zM279 361q21 7 26 7q1 0 11 3q56 14 119 17q9 0 11 2t6 12q2 4 19 53q80 225 83 273v6q0 5 -2 7q-1 0 -7 -4q-33 -22 -96.5 -99.5t-124.5 -170.5q-68 -110 -68 -111t1 -1l3 1q2 0 7.5 1.5t11.5 3.5zM574 869q17 12 34 15q19 3 30 -1
q13 -6 10 -17q0 -3 -2 -7l-2 -1q-3 -2 -5 -3q-10 -3 -14 -4q-1 0 -13 -5q-6 -1 -16 -5l-21 -9l-10 -2q-2 0 -6 2q-13 15 15 37z" />
    <glyph glyph-name="Acircumflex" unicode="&#xc2;" horiz-adv-x="588" 
d="M-53 -181q-7 4 -7 16q1 20 42 103q1 2 5.5 10t6.5 12q3 7 10 21q3 9 17 34q48 99 118 230q14 26 14 28t-2 2q-1 0 -17 -7q-71 -30 -78 -42q-6 -7 -15 -7q-15 0 -15 14v2q1 24 128 80q22 9 29 16.5t27 44.5q108 186 203 298t145 112h2l4 -1q32 -5 32 -47v-8
q-4 -59 -71 -254q-1 -2 -3 -7.5t-2 -7.5q-2 -8 -13 -41l-11 -32q0 -1 11 -3q52 -9 54 -36v-6q0 -15 -12 -15q-5 0 -12 7q-10 15 -46 16h-4q-4 0 -10 -18q-3 -11 -6 -19q-88 -264 -121 -426q0 -7 -4 -29q-2 -19 -5 -24t-13 -5q-22 2 -22 44v9q2 22 5 33q21 98 41 169
q6 20 7 23q0 4 24 86q23 76 46 141q1 3 2 5.5t1.5 4.5t0.5 3q0 3 -3 3l-4 -1h-8q-9 0 -33 -3q-2 0 -19.5 -3t-21.5 -5q-3 0 -19 -4q-24 -6 -59 -17.5t-39 -14.5q-1 -1 -19 -30l-28 -51l-7.5 -12.5t-7.5 -12t-4 -6.5q-6 -13 -33 -61l-51 -93l-17 -30t-12 -20
q-74 -135 -79 -158q-2 -12 -14 -12h-2zM279 361q21 7 26 7q1 0 11 3q56 14 119 17q9 0 11 2t6 12q2 4 19 53q80 225 83 273v6q0 5 -2 7q-1 0 -7 -4q-33 -22 -96.5 -99.5t-124.5 -170.5q-68 -110 -68 -111t1 -1l3 1q2 0 7.5 1.5t11.5 3.5zM570 879q30 29 45 5q6 -8 9 -21
q3 -8 5 -26q0 -13 -3 -16q-18 -16 -38 19q-1 4 -4 4t-6 -2q-11 -8 -28 -14q-14 -3 -18 0q-15 9 12 29q1 1 5.5 4.5t6.5 5.5q10 8 14 12z" />
    <glyph glyph-name="Atilde" unicode="&#xc3;" horiz-adv-x="588" 
d="M-53 -181q-7 4 -7 16q1 20 42 103q1 2 5.5 10t6.5 12q3 7 10 21q3 9 17 34q48 99 118 230q14 26 14 28t-2 2q-1 0 -17 -7q-71 -30 -78 -42q-6 -7 -15 -7q-15 0 -15 14v2q1 24 128 80q22 9 29 16.5t27 44.5q108 186 203 298t145 112h2l4 -1q32 -5 32 -47v-8
q-4 -59 -71 -254q-1 -2 -3 -7.5t-2 -7.5q-2 -8 -13 -41l-11 -32q0 -1 11 -3q52 -9 54 -36v-6q0 -15 -12 -15q-5 0 -12 7q-10 15 -46 16h-4q-4 0 -10 -18q-3 -11 -6 -19q-88 -264 -121 -426q0 -7 -4 -29q-2 -19 -5 -24t-13 -5q-22 2 -22 44v9q2 22 5 33q21 98 41 169
q6 20 7 23q0 4 24 86q23 76 46 141q1 3 2 5.5t1.5 4.5t0.5 3q0 3 -3 3l-4 -1h-8q-9 0 -33 -3q-2 0 -19.5 -3t-21.5 -5q-3 0 -19 -4q-24 -6 -59 -17.5t-39 -14.5q-1 -1 -19 -30l-28 -51l-7.5 -12.5t-7.5 -12t-4 -6.5q-6 -13 -33 -61l-51 -93l-17 -30t-12 -20
q-74 -135 -79 -158q-2 -12 -14 -12h-2zM279 361q21 7 26 7q1 0 11 3q56 14 119 17q9 0 11 2t6 12q2 4 19 53q80 225 83 273v6q0 5 -2 7q-1 0 -7 -4q-33 -22 -96.5 -99.5t-124.5 -170.5q-68 -110 -68 -111t1 -1l3 1q2 0 7.5 1.5t11.5 3.5zM654 880q12 -3 9 -15
q-3 -11 -14 -22q-12 -12 -27 -15q-32 -6 -52 20q-5 7 -7 8q-2 3 -6 1q-4 0 -12 -5q-12 -5 -16 -5q-6 0 -9 6q-3 11 8 24q13 13 30 17q22 4 42 -18q15 -18 35 -4q8 6 9 7q4 2 6 2t4 -1z" />
    <glyph glyph-name="Adieresis" unicode="&#xc4;" horiz-adv-x="588" 
d="M-53 -181q-7 4 -7 16q1 20 42 103q1 2 5.5 10t6.5 12q3 7 10 21q3 9 17 34q48 99 118 230q14 26 14 28t-2 2q-1 0 -17 -7q-71 -30 -78 -42q-6 -7 -15 -7q-15 0 -15 14v2q1 24 128 80q22 9 29 16.5t27 44.5q108 186 203 298t145 112h2l4 -1q32 -5 32 -47v-8
q-4 -59 -71 -254q-1 -2 -3 -7.5t-2 -7.5q-2 -8 -13 -41l-11 -32q0 -1 11 -3q52 -9 54 -36v-6q0 -15 -12 -15q-5 0 -12 7q-10 15 -46 16h-4q-4 0 -10 -18q-3 -11 -6 -19q-88 -264 -121 -426q0 -7 -4 -29q-2 -19 -5 -24t-13 -5q-22 2 -22 44v9q2 22 5 33q21 98 41 169
q6 20 7 23q0 4 24 86q23 76 46 141q1 3 2 5.5t1.5 4.5t0.5 3q0 3 -3 3l-4 -1h-8q-9 0 -33 -3q-2 0 -19.5 -3t-21.5 -5q-3 0 -19 -4q-24 -6 -59 -17.5t-39 -14.5q-1 -1 -19 -30l-28 -51l-7.5 -12.5t-7.5 -12t-4 -6.5q-6 -13 -33 -61l-51 -93l-17 -30t-12 -20
q-74 -135 -79 -158q-2 -12 -14 -12h-2zM279 361q21 7 26 7q1 0 11 3q56 14 119 17q9 0 11 2t6 12q2 4 19 53q80 225 83 273v6q0 5 -2 7q-1 0 -7 -4q-33 -22 -96.5 -99.5t-124.5 -170.5q-68 -110 -68 -111t1 -1l3 1q2 0 7.5 1.5t11.5 3.5zM545 881q11 9 23 6q13 -5 16 -18
q3 -15 -7 -24q-9 -10 -23 -7q-14 5 -17 19q-3 13 8 24zM613 858q13 13 28 10t15 -19q0 -13 -10 -20q-9 -8 -21 -5q-13 3 -16 14q-4 10 4 20z" />
    <glyph glyph-name="Aring" unicode="&#xc5;" horiz-adv-x="588" 
d="M-53 -181q-7 4 -7 16q1 20 42 103q1 2 5.5 10t6.5 12q3 7 10 21q3 9 17 34q48 99 118 230q14 26 14 28t-2 2q-1 0 -17 -7q-71 -30 -78 -42q-6 -7 -15 -7q-15 0 -15 14v2q1 24 128 80q22 9 29 16.5t27 44.5q108 186 203 298t145 112h2l4 -1q32 -5 32 -47v-8
q-4 -59 -71 -254q-1 -2 -3 -7.5t-2 -7.5q-2 -8 -13 -41l-11 -32q0 -1 11 -3q52 -9 54 -36v-6q0 -15 -12 -15q-5 0 -12 7q-10 15 -46 16h-4q-4 0 -10 -18q-3 -11 -6 -19q-88 -264 -121 -426q0 -7 -4 -29q-2 -19 -5 -24t-13 -5q-22 2 -22 44v9q2 22 5 33q21 98 41 169
q6 20 7 23q0 4 24 86q23 76 46 141q1 3 2 5.5t1.5 4.5t0.5 3q0 3 -3 3l-4 -1h-8q-9 0 -33 -3q-2 0 -19.5 -3t-21.5 -5q-3 0 -19 -4q-24 -6 -59 -17.5t-39 -14.5q-1 -1 -19 -30l-28 -51l-7.5 -12.5t-7.5 -12t-4 -6.5q-6 -13 -33 -61l-51 -93l-17 -30t-12 -20
q-74 -135 -79 -158q-2 -12 -14 -12h-2zM279 361q21 7 26 7q1 0 11 3q56 14 119 17q9 0 11 2t6 12q2 4 19 53q80 225 83 273v6q0 5 -2 7q-1 0 -7 -4q-33 -22 -96.5 -99.5t-124.5 -170.5q-68 -110 -68 -111t1 -1l3 1q2 0 7.5 1.5t11.5 3.5zM618 902q30 -3 22 -42
q-7 -29 -29 -48q-20 -17 -40 -8q-18 12 -15 36q5 25 21 44q18 20 41 18zM601 840q5 4 9 12q4 7 7 14q2 7 0 7q-4 0 -8 -5q-1 -1 -4.5 -6l-5.5 -8q-5 -8 -5 -13q-2 -6 1 -6q2 1 6 5z" />
    <glyph glyph-name="AE" unicode="&#xc6;" horiz-adv-x="588" 
d="M257 355l6 2q1 0 6.5 1.5t9.5 2.5q12 4 17 5q2 0 4 0.5t4 1.5h1q1 0 1 1l2 1h5q1 1 3 1q29 7 58 11q31 4 61 6q7 0 9 1q2 0 4 3q3 7 4 10q0 1 1 3l2.5 5t2.5 6l8 24q1 5 5 15q44 121 64 189q17 56 19 84v6q0 7 -2 7t-3 -1q-1 0 -2 -1l-2 -2q-35 -24 -96 -99
q-64 -78 -125 -171q-6 -8 -18 -29q-2 -3 -10 -16t-12 -21l-10 -16l-10 -16l-6 -9v-1q-1 -1 -1 -2h-1zM348 -130q0 -3 -2 -11q-1 -19 -5 -24q-3 -5 -13 -5q-22 4 -22 44v11q2 21 5 31q13 68 41 169q0 3 1.5 8t2.5 7q2 7 3 8q1 3 6 23q1 4 11 39q1 3 7 24q15 51 46 141
q0 1 0.5 3.5t1.5 3.5q2 4 2 6q0 3 -3 3h-3q-2 -1 -9 -1h-13q-2 -1 -5.5 -1.5t-5.5 -0.5q-6 0 -9 -1q-1 0 -2.5 -0.5t-3 -0.5t-4 -0.5t-4.5 -0.5l-15 -3l-12 -3q-3 0 -7 -1l-12 -3q-33 -9 -39 -11q-5 -2 -13.5 -4.5t-14.5 -4.5t-11 -4q-15 -5 -20 -8l-1 -1q-1 -1 -2 -2.5
t-2 -3.5q-4 -6 -9 -15q0 -1 -5 -8l-16 -29q-10 -18 -12 -22l-9 -15q-2 -3 -3.5 -5.5t-2.5 -4.5t-2 -3.5t-2 -2.5l-11 -21q-8 -13 -22 -40l-27 -50q-8 -13 -24 -43q-16 -25 -20 -35l-9 -15q-72 -131 -79 -158q-2 -6 -5 -8q-4 -4 -9 -4h-2q-2 0 -3 1q-2 0 -3 1q-7 4 -7 16
q1 20 42 103q0 1 1 2.5t2 3.5l2 4q4 8 7 12q1 4 5 12q1 2 3 5t2 4t2.5 5.5t4.5 8.5l3 6t3.5 7.5t3.5 6.5l59 118l59 112q1 2 3.5 6t3.5 6q7 13 7 16v2h-2q-3 0 -11 -4l-6 -3q-28 -12 -51 -24t-27 -18q-7 -7 -15 -7q-6 0 -10 4q-5 5 -5 10v2q1 24 128 80q12 4 22 10
q4 3 14 16q1 2 20 35q110 189 204 299q93 111 144 111h2l4 -1q16 -1 24 -13q8 -11 8 -34v-8q-3 -40 -28 -122q70 79 166 130q123 66 211 66q41 0 66 -16q24 -16 24 -53v-6q-3 -35 -30 -73q-30 -40 -63 -64q-36 -27 -61 -27q-18 0 -26 20q-1 1 -1 3v2q0 7 4 11t9 4q6 0 10 -4
q1 -1 2 -1h1q12 0 35 19q24 21 44 45q36 46 36 71q0 30 -41 28q-62 0 -171 -58t-192 -151q-34 -35 -34 -53q0 -12 26 -17q23 -4 81 -4q38 0 70 -2q22 -1 33 -8q9 -6 14 -17q4 -7 4 -15q0 -15 -20 -40q-17 -20 -71 -68l-51 -46q-3 -3 -8.5 -8t-8.5 -7q-4 -4 -18 -16
q-118 -107 -183 -196q-64 -86 -64 -137q0 -46 57 -49q10 0 15 1q13 0 20 1q89 12 192 84q98 68 237 199q18 18 33 28q12 9 18 12q8 2 9 2q3 0 3 -7q0 -17 -60 -76q-68 -65 -160 -140q-172 -136 -293 -136q-14 0 -22 1q-39 6 -62 30zM522 465l-2 -4q0 -1 -4 -15q-3 -8 -9 -26
q-2 -5 -4.5 -12l-3.5 -10l-2 -6q0 -2 -1 -3v-1q0 -1 3 -1q1 -1 4 -1.5t4 -0.5q53 -11 54 -36v-6q0 -7 -3 -11q-4 -4 -9 -4q-6 0 -12 7q-10 15 -46 16h-4q-2 0 -3 -1q-2 -2 -4 -7q0 -2 -2 -7.5t-3 -8.5q-3 -11 -4 -13q-30 -89 -58 -184q81 100 237 225q85 69 85 75v1
q-1 1 -18 3h-35h-35q-97 0 -125 31z" />
    <glyph glyph-name="Ccedilla" unicode="&#xc7;" horiz-adv-x="505" 
d="M82 -159q-52 12 -78 60q-30 53 -30 134q0 140 80 326q79 183 223 335q58 58 104 83q48 27 83 27q31 0 50 -21q18 -21 18 -61q0 -45 -27 -113q-40 -95 -82 -149q-43 -57 -74 -57q-16 0 -25 17q-3 6 -3 12q0 8 5 16q4 6 11 6q5 0 9 -4q2 -2 4 -2q11 0 37 38q30 44 52 88
q23 46 38 96q7 25 7 44q0 18 -6.5 27t-19.5 8q-37 0 -109 -66q-73 -65 -147 -179q-89 -139 -132 -268q-45 -130 -45 -222q0 -66 23 -104q22 -39 68 -39q32 0 76 21q69 37 148 116q82 82 150 177q18 25 26 25q2 0 4 -3q1 -1 1 -4q0 -19 -41 -75q-42 -56 -99 -117
q-61 -65 -108 -103q-98 -73 -164 -73h-7q-1 -1 -1 -2q-8 -17 -9 -23l-2 -4q0 -2 -1 -2v-1q1 0 6 3q19 8 29 8q18 0 20 -18t-14 -45q-13 -20 -30 -31q-16 -10 -29 -10q-4 0 -6 1q-10 3 -13 10q-4 6 -2 14t5 9q3 0 5 -5q2 -8 9 -8q11 0 24 12q12 11 23 28q6 12 6 18q0 7 -7 7
q-9 0 -29 -18q-11 -6 -16 -6q-6 0 -8 9v2q0 5 4 16q6 16 10 25l2.5 5t2.5 5.5t1 4.5z" />
    <glyph glyph-name="Egrave" unicode="&#xc8;" horiz-adv-x="547" 
d="M6 -160q-41 5 -63.5 31.5t-22.5 67.5q0 43 23 89q34 71 106 148.5t197 178.5q85 69 85 75v1q-3 3 -53 3h-35q-138 0 -138 64q0 29 28 70q65 98 190 167t218 69q90 0 90 -69v-6q-3 -50 -59 -107t-95 -57q-20 0 -26 20q-1 2 -1 5q0 15 13 15q6 0 10 -4q1 -1 3 -1
q11 0 35.5 20t43.5 44q36 46 36 71q0 28 -41 28q-66 0 -179 -61.5t-184 -147.5q-34 -40 -34 -53q0 -12 23.5 -16t83.5 -5q70 -1 89.5 -5.5t27.5 -21.5q4 -10 4 -15q0 -16 -20 -39.5t-71 -68.5l-86 -77q-118 -108 -182.5 -195.5t-64.5 -137.5q0 -49 57 -49q10 0 15 1
q13 0 20 1q85 11 183.5 78.5t245.5 204.5q44 42 60 42q3 0 3 -7q0 -17 -60.5 -76t-159.5 -140q-168 -136 -293 -136q-15 0 -22 1zM373 866q0 12 15 17q14 3 34 -3t36 -20q15 -16 9 -27q-6 -9 -27 0q-9 3 -11 4q-6 2 -14 4q-21 5 -32 12q-8 4 -10 13z" />
    <glyph glyph-name="Eacute" unicode="&#xc9;" horiz-adv-x="547" 
d="M6 -160q-41 5 -63.5 31.5t-22.5 67.5q0 43 23 89q34 71 106 148.5t197 178.5q85 69 85 75v1q-3 3 -53 3h-35q-138 0 -138 64q0 29 28 70q65 98 190 167t218 69q90 0 90 -69v-6q-3 -50 -59 -107t-95 -57q-20 0 -26 20q-1 2 -1 5q0 15 13 15q6 0 10 -4q1 -1 3 -1
q11 0 35.5 20t43.5 44q36 46 36 71q0 28 -41 28q-66 0 -179 -61.5t-184 -147.5q-34 -40 -34 -53q0 -12 23.5 -16t83.5 -5q70 -1 89.5 -5.5t27.5 -21.5q4 -10 4 -15q0 -16 -20 -39.5t-71 -68.5l-86 -77q-118 -108 -182.5 -195.5t-64.5 -137.5q0 -49 57 -49q10 0 15 1
q13 0 20 1q85 11 183.5 78.5t245.5 204.5q44 42 60 42q3 0 3 -7q0 -17 -60.5 -76t-159.5 -140q-168 -136 -293 -136q-15 0 -22 1zM427 869q15 12 33 15q20 3 31 -1q13 -6 10 -17q0 -4 -3 -7t-6 -4q-10 -3 -14 -4q-2 -1 -7 -2.5t-7 -2.5q-5 -1 -15 -5q-13 -6 -21 -9
q-10 -2 -11 -2q-3 0 -5 2q-13 15 15 37z" />
    <glyph glyph-name="Ecircumflex" unicode="&#xca;" horiz-adv-x="547" 
d="M6 -160q-41 5 -63.5 31.5t-22.5 67.5q0 43 23 89q34 71 106 148.5t197 178.5q85 69 85 75v1q-3 3 -53 3h-35q-138 0 -138 64q0 29 28 70q65 98 190 167t218 69q90 0 90 -69v-6q-3 -50 -59 -107t-95 -57q-20 0 -26 20q-1 2 -1 5q0 15 13 15q6 0 10 -4q1 -1 3 -1
q11 0 35.5 20t43.5 44q36 46 36 71q0 28 -41 28q-66 0 -179 -61.5t-184 -147.5q-34 -40 -34 -53q0 -12 23.5 -16t83.5 -5q70 -1 89.5 -5.5t27.5 -21.5q4 -10 4 -15q0 -16 -20 -39.5t-71 -68.5l-86 -77q-118 -108 -182.5 -195.5t-64.5 -137.5q0 -49 57 -49q10 0 15 1
q13 0 20 1q85 11 183.5 78.5t245.5 204.5q44 42 60 42q3 0 3 -7q0 -17 -60.5 -76t-159.5 -140q-168 -136 -293 -136q-15 0 -22 1zM426 879q32 29 45 5q5 -6 10 -21q4 -18 4 -26q2 -13 -3 -16q-18 -16 -38 19q-1 4 -3 4q-3 0 -6 -2q-12 -8 -29 -14q-14 -3 -18 0q-15 9 12 29
l13 10q5 4 13 12z" />
    <glyph glyph-name="Edieresis" unicode="&#xcb;" horiz-adv-x="547" 
d="M6 -160q-41 5 -63.5 31.5t-22.5 67.5q0 43 23 89q34 71 106 148.5t197 178.5q85 69 85 75v1q-3 3 -53 3h-35q-138 0 -138 64q0 29 28 70q65 98 190 167t218 69q90 0 90 -69v-6q-3 -50 -59 -107t-95 -57q-20 0 -26 20q-1 2 -1 5q0 15 13 15q6 0 10 -4q1 -1 3 -1
q11 0 35.5 20t43.5 44q36 46 36 71q0 28 -41 28q-66 0 -179 -61.5t-184 -147.5q-34 -40 -34 -53q0 -12 23.5 -16t83.5 -5q70 -1 89.5 -5.5t27.5 -21.5q4 -10 4 -15q0 -16 -20 -39.5t-71 -68.5l-86 -77q-118 -108 -182.5 -195.5t-64.5 -137.5q0 -49 57 -49q10 0 15 1
q13 0 20 1q85 11 183.5 78.5t245.5 204.5q44 42 60 42q3 0 3 -7q0 -17 -60.5 -76t-159.5 -140q-168 -136 -293 -136q-15 0 -22 1zM359 869q11 9 23 5q13 -3 16 -17q3 -15 -7 -25t-23 -6q-14 5 -17 18q-3 14 8 25zM443 875q14 12 28 9q15 -3 15 -19q0 -13 -10 -20
q-9 -8 -21 -5q-13 3 -16 14q-4 10 4 21z" />
    <glyph glyph-name="Igrave" unicode="&#xcc;" horiz-adv-x="254" 
d="M25 -149q-7 3 -7 8q0 10 24.5 27t64.5 34q11 6 11 7h-1q-21 0 -21 65q0 41 8 81q17 105 83.5 282.5t135.5 305.5q34 62 58 99q5 7 5 9h-2q-16 0 -53 -7q-5 -2 -5 -4q-4 -8 -17 -8q-21 0 -21 14q0 17 52.5 32t104.5 15q37 0 56 -9q23 -12 23 -31q0 -9 -4 -14q-8 -9 -18 -9
q-15 0 -15 10q0 1 2 5l1 3v1q-14 5 -30 5q-20 0 -20 -8v-1q0 -16 -12 -29q-58 -68 -170.5 -341t-125.5 -377q-3 -24 -3 -37q0 -21 10 -22t10 -6q0 -1 -2 -9l-2 -6q3 0 12 3q17 5 28 5q37 0 37 -29q0 -8 -5 -14t-11 -6t-9 7q-1 3 -8 3q-34 0 -140 -47q-14 -7 -22 -7h-2z
M392 866q0 12 15 17q14 3 35 -3q19 -6 35 -20q16 -17 9 -27q-6 -9 -27 0q-9 3 -11 4q-6 2 -14 4q-21 5 -32 12q-8 4 -10 13z" />
    <glyph glyph-name="Iacute" unicode="&#xcd;" horiz-adv-x="254" 
d="M25 -149q-7 3 -7 8q0 10 24.5 27t64.5 34q11 6 11 7h-1q-21 0 -21 65q0 41 8 81q17 105 83.5 282.5t135.5 305.5q34 62 58 99q5 7 5 9h-2q-16 0 -53 -7q-5 -2 -5 -4q-4 -8 -17 -8q-21 0 -21 14q0 17 52.5 32t104.5 15q37 0 56 -9q23 -12 23 -31q0 -9 -4 -14q-8 -9 -18 -9
q-15 0 -15 10q0 1 2 5l1 3v1q-14 5 -30 5q-20 0 -20 -8v-1q0 -16 -12 -29q-58 -68 -170.5 -341t-125.5 -377q-3 -24 -3 -37q0 -21 10 -22t10 -6q0 -1 -2 -9l-2 -6q3 0 12 3q17 5 28 5q37 0 37 -29q0 -8 -5 -14t-11 -6t-9 7q-1 3 -8 3q-34 0 -140 -47q-14 -7 -22 -7h-2z
M448 875q17 12 34 15t30 -2q13 -4 11 -17l-3 -6q-1 -2 -7 -4q-1 -1 -14 -5q-8 -2 -13 -4q-6 -2 -16 -6l-12.5 -5t-8.5 -3q-5 -2 -10 -2q-2 0 -6 2q-14 14 15 37z" />
    <glyph glyph-name="Icircumflex" unicode="&#xce;" horiz-adv-x="254" 
d="M25 -149q-7 3 -7 8q0 10 24.5 27t64.5 34q11 6 11 7h-1q-21 0 -21 65q0 41 8 81q17 105 83.5 282.5t135.5 305.5q34 62 58 99q5 7 5 9h-2q-16 0 -53 -7q-5 -2 -5 -4q-4 -8 -17 -8q-21 0 -21 14q0 17 52.5 32t104.5 15q37 0 56 -9q23 -12 23 -31q0 -9 -4 -14q-8 -9 -18 -9
q-15 0 -15 10q0 1 2 5l1 3v1q-14 5 -30 5q-20 0 -20 -8v-1q0 -16 -12 -29q-58 -68 -170.5 -341t-125.5 -377q-3 -24 -3 -37q0 -21 10 -22t10 -6q0 -1 -2 -9l-2 -6q3 0 12 3q17 5 28 5q37 0 37 -29q0 -8 -5 -14t-11 -6t-9 7q-1 3 -8 3q-34 0 -140 -47q-14 -7 -22 -7h-2z
M454 896q32 28 45 6q5 -6 10 -21q4 -18 4 -26q2 -12 -3 -17q-19 -15 -38 19q-2 5 -3 5t-6 -3q-19 -11 -29 -13q-14 -3 -18 0q-14 9 12 29q1 1 13 10q2 2 6.5 5.5t6.5 5.5z" />
    <glyph glyph-name="Idieresis" unicode="&#xcf;" horiz-adv-x="254" 
d="M25 -149q-7 3 -7 8q0 10 24.5 27t64.5 34q11 6 11 7h-1q-21 0 -21 65q0 41 8 81q17 105 83.5 282.5t135.5 305.5q34 62 58 99q5 7 5 9h-2q-16 0 -53 -7q-5 -2 -5 -4q-4 -8 -17 -8q-21 0 -21 14q0 17 52.5 32t104.5 15q37 0 56 -9q23 -12 23 -31q0 -9 -4 -14q-8 -9 -18 -9
q-15 0 -15 10q0 1 2 5l1 3v1q-14 5 -30 5q-20 0 -20 -8v-1q0 -16 -12 -29q-58 -68 -170.5 -341t-125.5 -377q-3 -24 -3 -37q0 -21 10 -22t10 -6q0 -1 -2 -9l-2 -6q3 0 12 3q17 5 28 5q37 0 37 -29q0 -8 -5 -14t-11 -6t-9 7q-1 3 -8 3q-34 0 -140 -47q-14 -7 -22 -7h-2z
M415 896q10 8 23 5q11 -3 16 -17q3 -15 -7 -25t-23 -7q-14 6 -17 19q-3 14 8 25zM483 873q14 12 28 9q15 -3 15 -19q0 -13 -10 -20q-9 -8 -21 -5q-13 3 -16 14q-4 10 4 21z" />
    <glyph glyph-name="Eth" unicode="&#xd0;" horiz-adv-x="664" 
d="M185 328q-72 -165 -118 -337q0 -1 -0.5 -2.5t-1.5 -2.5q-3 -10 -3 -17q0 -6 7 -6q12 0 45 10q3 1 11 3q150 44 271 139q120 93 193 215q71 119 71 227q0 84 -51 150q-25 30 -66 45q-42 14 -90 14q-92 0 -191 -46q-100 -46 -165 -131q-19 -25 -19 -37q0 -14 25 -13h9
q18 0 18 -8t-26 -19q-12 -3 -23 -3q-23 0 -36 13q-10 11 -10 27q0 47 69 113q70 65 170 110q102 41 178 41q115 0 179 -73t64 -183q0 -91 -46 -193q-48 -107 -143 -205q-187 -191 -439 -233q-10 -2 -13 -5q-4 -5 -6 -15q-1 -10 -3 -34q-2 -29 -14 -29q-5 0 -10 3
q-18 8 -18 46l1 20q0 4 -2 6q-1 1 -8 1q-65 0 -73 38l-1 4q0 8 6 8q4 0 15 -6q12 -7 20 -8q14 -2 28 -2h7q7 0 9 1q3 0 4 3q1 1 1 3q1 3 1 4q0 2 1 3q10 59 38 153q26 92 54 161q3 8 9.5 23.5t9.5 23.5h-17q-5 0 -12 -0.5t-11.5 -1t-7.5 -0.5l-10 -1q-35 0 -37 21q0 9 10 16
q8 6 28 11q47 7 81 8q24 53 57 112q58 105 110 175q53 71 77 71q19 0 19 -14q0 -11 -16 -33q-104 -145 -185 -313q31 -3 57 -9q43 -12 43 -30q0 -6 -6 -13q-2 -2 -6 -4q-6 -2 -11 -2q-10 0 -36 3q-14 2 -40 3q-4 0 -12.5 0.5t-12.5 0.5z" />
    <glyph glyph-name="Ntilde" unicode="&#xd1;" horiz-adv-x="631" 
d="M-11 -150q-17 9 -17 35v4q0 34 27 133q35 121 110 294.5t157 320.5q64 116 94 159.5t48 44.5q8 0 15 -6q9 -6 9 -15q0 -10 -10 -26q-117 -199 -217 -422q-97 -224 -97 -228l28 45q127 208 273 369.5t210 164.5h2q47 0 48 -62v-9q0 -87 -86 -339q-82 -236 -82 -303v-6
q0 -21 8 -42q3 -10 11 -13q10 -3 10 -10q0 -6 -5.5 -11t-13.5 -5h-3q-21 0 -35.5 31.5t-15.5 81.5v15q0 57 18.5 130t67.5 215q56 159 71 224q9 37 9 52q-1 14 -9 14l-2 -1q-52 -7 -165.5 -127.5t-224.5 -285.5q-62 -94 -122 -196.5t-68 -130.5q-13 -43 -13 -61l1 -4
q2 -4 2 -7q0 -9 -7.5 -16.5t-17.5 -7.5h-3q-4 0 -5 1zM709 880q11 -3 8 -15q-2 -11 -14 -22q-10 -12 -26 -15q-32 -6 -52 20q-5 7 -7 8q-2 2 -7 1q-3 0 -11 -5q-12 -5 -16 -5q-6 0 -9 6q-4 10 8 24q13 13 30 17q23 5 41 -18q16 -19 35 -4q2 1 5.5 3.5t4.5 3.5q4 2 5 2
q3 0 5 -1z" />
    <glyph glyph-name="Ograve" unicode="&#xd2;" 
d="M211 -114q-53 7 -80.5 49t-27.5 108q0 136 98 270q31 43 61.5 67.5t51.5 24.5q12 0 19 -9q4 -6 4 -12q0 -8 -5 -15.5t-12 -7.5q-9 0 -44 -44q-50 -64 -80.5 -146t-30.5 -147q0 -23 5 -45q13 -53 68 -53q57 0 137 56t152 151q85 111 129.5 228t44.5 215q0 90 -38 149
t-112 71q-18 3 -36 3q-111 0 -229 -105t-208 -284q-31 -62 -45 -119q-11 -42 -19 -42q-4 0 -7 3q-13 10 -13 38q0 50 39.5 137t105.5 178q82 115 179.5 173.5t187.5 58.5q100 0 163.5 -69t63.5 -191q0 -59 -14 -119q-31 -135 -115.5 -269.5t-187.5 -219t-187 -84.5
q-12 0 -18 1zM481 899q-2 14 14 17q14 3 35 -3q22 -7 35 -20q17 -17 9 -26q-6 -10 -27 -1q-1 0 -5 1.5t-6 2.5q-5 2 -13 4q-22 6 -32 12q-10 4 -10 13z" />
    <glyph glyph-name="Oacute" unicode="&#xd3;" 
d="M211 -114q-53 7 -80.5 49t-27.5 108q0 136 98 270q31 43 61.5 67.5t51.5 24.5q12 0 19 -9q4 -6 4 -12q0 -8 -5 -15.5t-12 -7.5q-9 0 -44 -44q-50 -64 -80.5 -146t-30.5 -147q0 -23 5 -45q13 -53 68 -53q57 0 137 56t152 151q85 111 129.5 228t44.5 215q0 90 -38 149
t-112 71q-18 3 -36 3q-111 0 -229 -105t-208 -284q-31 -62 -45 -119q-11 -42 -19 -42q-4 0 -7 3q-13 10 -13 38q0 50 39.5 137t105.5 178q82 115 179.5 173.5t187.5 58.5q100 0 163.5 -69t63.5 -191q0 -59 -14 -119q-31 -135 -115.5 -269.5t-187.5 -219t-187 -84.5
q-12 0 -18 1zM545 903q16 11 33 14q20 3 31 -1q13 -5 10 -17q-2 -6 -3 -7q-3 -3 -6 -4l-6 -2q-5 -1 -9 -2q-1 0 -5.5 -1.5l-7.5 -2.5l-15 -6q-18 -7 -21 -8q-7 -3 -11 -3q-3 0 -5 3q-13 13 15 37z" />
    <glyph glyph-name="Ocircumflex" unicode="&#xd4;" 
d="M211 -114q-53 7 -80.5 49t-27.5 108q0 136 98 270q31 43 61.5 67.5t51.5 24.5q12 0 19 -9q4 -6 4 -12q0 -8 -5 -15.5t-12 -7.5q-9 0 -44 -44q-50 -64 -80.5 -146t-30.5 -147q0 -23 5 -45q13 -53 68 -53q57 0 137 56t152 151q85 111 129.5 228t44.5 215q0 90 -38 149
t-112 71q-18 3 -36 3q-111 0 -229 -105t-208 -284q-31 -62 -45 -119q-11 -42 -19 -42q-4 0 -7 3q-13 10 -13 38q0 50 39.5 137t105.5 178q82 115 179.5 173.5t187.5 58.5q100 0 163.5 -69t63.5 -191q0 -59 -14 -119q-31 -135 -115.5 -269.5t-187.5 -219t-187 -84.5
q-12 0 -18 1zM558 912q31 30 45 5q6 -7 9 -21q3 -9 5 -26q0 -13 -3 -16q-19 -15 -38 19q-1 4 -3 4q-2 2 -7 -2q-11 -8 -28 -14q-14 -3 -18 1q-16 8 12 28l13 10q2 2 6.5 6t6.5 6z" />
    <glyph glyph-name="Otilde" unicode="&#xd5;" 
d="M211 -114q-53 7 -80.5 49t-27.5 108q0 136 98 270q31 43 61.5 67.5t51.5 24.5q12 0 19 -9q4 -6 4 -12q0 -8 -5 -15.5t-12 -7.5q-9 0 -44 -44q-50 -64 -80.5 -146t-30.5 -147q0 -23 5 -45q13 -53 68 -53q57 0 137 56t152 151q85 111 129.5 228t44.5 215q0 90 -38 149
t-112 71q-18 3 -36 3q-111 0 -229 -105t-208 -284q-31 -62 -45 -119q-11 -42 -19 -42q-4 0 -7 3q-13 10 -13 38q0 50 39.5 137t105.5 178q82 115 179.5 173.5t187.5 58.5q100 0 163.5 -69t63.5 -191q0 -59 -14 -119q-31 -135 -115.5 -269.5t-187.5 -219t-187 -84.5
q-12 0 -18 1zM655 908q11 -3 8 -15q-4 -13 -14 -23q-11 -11 -27 -14q-31 -6 -51 20q-5 7 -7 8q-2 2 -7 1q-3 0 -11 -5q-13 -5 -17 -5q-5 0 -8 6q-4 10 8 24q13 13 30 17q22 4 41 -18q16 -19 35 -4q4 3 10 6q3 3 5 3q3 0 5 -1z" />
    <glyph glyph-name="Odieresis" unicode="&#xd6;" 
d="M211 -114q-53 7 -80.5 49t-27.5 108q0 136 98 270q31 43 61.5 67.5t51.5 24.5q12 0 19 -9q4 -6 4 -12q0 -8 -5 -15.5t-12 -7.5q-9 0 -44 -44q-50 -64 -80.5 -146t-30.5 -147q0 -23 5 -45q13 -53 68 -53q57 0 137 56t152 151q85 111 129.5 228t44.5 215q0 90 -38 149
t-112 71q-18 3 -36 3q-111 0 -229 -105t-208 -284q-31 -62 -45 -119q-11 -42 -19 -42q-4 0 -7 3q-13 10 -13 38q0 50 39.5 137t105.5 178q82 115 179.5 173.5t187.5 58.5q100 0 163.5 -69t63.5 -191q0 -59 -14 -119q-31 -135 -115.5 -269.5t-187.5 -219t-187 -84.5
q-12 0 -18 1zM568 914q9 9 23 6q12 -4 16 -18q3 -13 -7 -24q-10 -10 -24 -7q-13 5 -16 19q-3 13 8 24zM636 892q13 12 28 9q13 -3 15 -19q0 -12 -10 -20t-22 -5q-11 3 -16 14q-3 12 5 21z" />
    <glyph glyph-name="multiply" unicode="&#xd7;" horiz-adv-x="496" 
d="M160 107q-6 5 -6 12q0 20 52 71q21 21 21 24v3q-12 17 -37 35q-16 10 -16 18q0 4 3 8q3 5 14 5q27 0 64 -32q6 -7 10 -7t16 8q43 27 63 27h4q11 -3 11 -14q0 -9 -10 -12q-15 -4 -61 -42q0 -1 9 -12q36 -52 36 -70q0 -7 -3 -10q-6 -7 -12 -7q-11 0 -45 45q-19 23 -22 23
q-1 0 -1 -0.5t-1 -0.5q-7 -5 -31 -28.5t-31 -32.5q-12 -15 -19 -15q-4 0 -8 4z" />
    <glyph glyph-name="Oslash" unicode="&#xd8;" 
d="M193 -110q-41 12 -63 47q-27 44 -27 106t25 131q25 74 73 139q72 92 113 92q12 0 19 -9q4 -4 4 -12q0 -7 -5 -15t-12 -8q-9 0 -44 -44q-51 -67 -81 -147q-30 -81 -30 -146q0 -23 5 -45q11 -33 34 -45q28 110 91 270q77 198 185 403q50 95 102 181q-20 6 -31 8
q-18 3 -36 3q-109 0 -227 -104q-118 -103 -210 -285q-17 -32 -27 -61q-10 -24 -18 -58q-9 -42 -19 -42q-2 0 -7 3q-13 10 -13 38q0 50 39 135q40 87 106 180q87 119 185 176q98 56 182 56q53 0 94 -19q43 67 55 78q9 5 12 4q11 -2 11 -14q0 -7 -4 -12q-19 -31 -42 -73
q24 -18 36 -31q65 -68 65 -193q0 -52 -14 -119q-34 -141 -117 -272q-81 -127 -185 -215q-104 -86 -187 -86q-13 -44 -18 -79q-3 -27 -14 -25q-1 0 -7 2q-13 7 -10 38q3 24 5 35q1 5 3.5 16t3.5 18zM241 -74q55 2 132 55q80 56 154 152q87 116 131 232q43 114 43 211
q0 89 -37 147q-20 30 -48 48l-33 -59l-104 -203q-102 -210 -177 -408q-43 -116 -61 -175z" />
    <glyph glyph-name="Ugrave" unicode="&#xd9;" horiz-adv-x="643" 
d="M96 -173q-92 15 -92 182q0 118 49 280.5t138 326.5q109 203 153 203q3 0 9 -2q13 -4 13 -18q0 -9 -6 -22q-7 -12 -9 -21q-6 -16 -12 -16q-2 0 -6 4l-2 2q-2 0 -20 -33q-104 -175 -177 -393.5t-73 -347.5q0 -44 11 -72q12 -33 45 -33q55 0 150 87.5t206 241.5q53 74 61 98
q48 134 114.5 263.5t113.5 177.5q13 14 24 14q16 0 16 -23q0 -9 -3 -21q-17 -53 -72.5 -158.5t-127.5 -217.5q-16 -26 -30 -66q-59 -178 -59 -266q0 -12 1 -18q0 -28 6 -28q1 0 11 5q10 6 16 6t6 -6q0 -7 -4 -16q-12 -25 -35 -25q-18 0 -28 19q-11 19 -11 70q0 69 19 145
l3.5 15.5t1.5 9.5l1 2h-1q-3 -3 -22 -29q-112 -152 -208 -236.5t-158 -84.5q-2 0 -6 0.5t-6 0.5zM656 480q79 133 105 203l1 4q-1 0 -6 -8q-47 -71 -102 -195q-9 -20 -9 -21zM507 878q-2 14 14 17q17 3 35 -2q20 -6 35 -21q16 -16 10 -26q-8 -10 -28 -1q-2 1 -11 5
q-8 2 -13 4q-26 7 -32 11q-10 6 -10 13z" />
    <glyph glyph-name="Uacute" unicode="&#xda;" horiz-adv-x="643" 
d="M96 -173q-92 15 -92 182q0 118 49 280.5t138 326.5q109 203 153 203q3 0 9 -2q13 -4 13 -18q0 -9 -6 -22q-7 -12 -9 -21q-6 -16 -12 -16q-2 0 -6 4l-2 2q-2 0 -20 -33q-104 -175 -177 -393.5t-73 -347.5q0 -44 11 -72q12 -33 45 -33q55 0 150 87.5t206 241.5q53 74 61 98
q48 134 114.5 263.5t113.5 177.5q13 14 24 14q16 0 16 -23q0 -9 -3 -21q-17 -53 -72.5 -158.5t-127.5 -217.5q-16 -26 -30 -66q-59 -178 -59 -266q0 -12 1 -18q0 -28 6 -28q1 0 11 5q10 6 16 6t6 -6q0 -7 -4 -16q-12 -25 -35 -25q-18 0 -28 19q-11 19 -11 70q0 69 19 145
l3.5 15.5t1.5 9.5l1 2h-1q-3 -3 -22 -29q-112 -152 -208 -236.5t-158 -84.5q-2 0 -6 0.5t-6 0.5zM656 480q79 133 105 203l1 4q-1 0 -6 -8q-47 -71 -102 -195q-9 -20 -9 -21zM592 882q15 12 34 15q17 3 30 -2q13 -4 10 -17q0 -4 -2 -6q-1 -1 -7 -5q-1 0 -6 -1.5t-8 -2.5
q-8 -2 -14 -4l-15 -6q-16 -7 -21 -8q-8 -3 -10 -2q-4 0 -6 2q-13 13 15 37z" />
    <glyph glyph-name="Ucircumflex" unicode="&#xdb;" horiz-adv-x="643" 
d="M96 -173q-92 15 -92 182q0 118 49 280.5t138 326.5q109 203 153 203q3 0 9 -2q13 -4 13 -18q0 -9 -6 -22q-7 -12 -9 -21q-6 -16 -12 -16q-2 0 -6 4l-2 2q-2 0 -20 -33q-104 -175 -177 -393.5t-73 -347.5q0 -44 11 -72q12 -33 45 -33q55 0 150 87.5t206 241.5q53 74 61 98
q48 134 114.5 263.5t113.5 177.5q13 14 24 14q16 0 16 -23q0 -9 -3 -21q-17 -53 -72.5 -158.5t-127.5 -217.5q-16 -26 -30 -66q-59 -178 -59 -266q0 -12 1 -18q0 -28 6 -28q1 0 11 5q10 6 16 6t6 -6q0 -7 -4 -16q-12 -25 -35 -25q-18 0 -28 19q-11 19 -11 70q0 69 19 145
l3.5 15.5t1.5 9.5l1 2h-1q-3 -3 -22 -29q-112 -152 -208 -236.5t-158 -84.5q-2 0 -6 0.5t-6 0.5zM656 480q79 133 105 203l1 4q-1 0 -6 -8q-47 -71 -102 -195q-9 -20 -9 -21zM584 891q32 29 45 6q5 -6 10 -21q4 -20 4 -26q1 -12 -2 -17q-19 -14 -39 19q-2 5 -3 5t-6 -3
q-19 -11 -29 -13q-14 -5 -18 0q-15 9 12 28q2 2 6.5 5.5t6.5 5.5t6.5 5.5t6.5 5.5z" />
    <glyph glyph-name="Udieresis" unicode="&#xdc;" horiz-adv-x="643" 
d="M96 -173q-92 15 -92 182q0 118 49 280.5t138 326.5q109 203 153 203q3 0 9 -2q13 -4 13 -18q0 -9 -6 -22q-7 -12 -9 -21q-6 -16 -12 -16q-2 0 -6 4l-2 2q-2 0 -20 -33q-104 -175 -177 -393.5t-73 -347.5q0 -44 11 -72q12 -33 45 -33q55 0 150 87.5t206 241.5q53 74 61 98
q48 134 114.5 263.5t113.5 177.5q13 14 24 14q16 0 16 -23q0 -9 -3 -21q-17 -53 -72.5 -158.5t-127.5 -217.5q-16 -26 -30 -66q-59 -178 -59 -266q0 -12 1 -18q0 -28 6 -28q1 0 11 5q10 6 16 6t6 -6q0 -7 -4 -16q-12 -25 -35 -25q-18 0 -28 19q-11 19 -11 70q0 69 19 145
l3.5 15.5t1.5 9.5l1 2h-1q-3 -3 -22 -29q-112 -152 -208 -236.5t-158 -84.5q-2 0 -6 0.5t-6 0.5zM656 480q79 133 105 203l1 4q-1 0 -6 -8q-47 -71 -102 -195q-9 -20 -9 -21zM559 894q12 9 23 5q12 -3 17 -17q2 -15 -8 -25q-9 -9 -23 -6q-13 4 -16 18q-3 15 7 25zM627 871
q15 12 28 9q15 -3 16 -19q-2 -13 -10 -20q-11 -8 -22 -5q-14 5 -16 15q-4 10 4 20z" />
    <glyph glyph-name="Yacute" unicode="&#xdd;" horiz-adv-x="605" 
d="M141 -151q-26 10 -26 37q0 58 95.5 153t217.5 155q23 12 30.5 23t42.5 81q69 138 110 258.5t41 183.5q0 32 -10 43q-6 7 -16 7q-37 0 -121.5 -86t-194.5 -234q-114 -154 -161 -204t-78 -50q-7 0 -17 2q-54 17 -54 121q0 79 29 174t78.5 169t101.5 84q10 2 15 2
q19 0 30 -10.5t11 -27.5q0 -8 -3 -19q-7 -18 -20 -18t-13 16l1 8q0 3 -3 3q-8 0 -31 -27.5t-40 -58.5q-37 -63 -63.5 -159.5t-26.5 -159.5q0 -24 4 -37q1 -8 9 -8q32 0 177 189l81 104q207 262 294 262q23 0 39 -18q20 -23 20 -77q0 -156 -157 -470q-3 -7 -7.5 -13t-7 -9
t-2.5 -4q0 -2 1 -2h1q2 1 5 2t5 2q72 29 114 29q20 0 29 -9q3 -3 3 -5q0 -7 -26 -10q-53 -6 -137 -41q-14 -6 -17 -8.5t-8 -11.5q-38 -81 -95.5 -154.5t-122.5 -124.5q-71 -54 -114 -54q-5 0 -13 2zM160 -118q45 12 119.5 89t133.5 168q13 22 13 23h-1l-4 -2
q-94 -55 -179 -137.5t-96 -129.5l-1 -4q0 -8 7 -8q4 0 8 1zM437 882q15 12 33 15t31 -2q13 -4 10 -17q0 -4 -3 -6q-1 -2 -6 -5q-1 0 -6 -1.5t-8 -2.5q-8 -2 -14 -4l-15 -6q-16 -7 -21 -8q-8 -3 -11 -2q-4 0 -5 2q-13 13 15 37z" />
    <glyph glyph-name="Thorn" unicode="&#xde;" horiz-adv-x="682" 
d="M696 599q23 -97 -43 -212q-65 -113 -190 -214q-121 -98 -271 -143l-37 -11l-4 -13q-4 -15 -5 -22q-2 -6 -4.5 -18l-3.5 -17q-10 -43 -18 -56q-8 -12 -18 0q-17 11 -1 89q1 9 3 16q1 3 1 8q0 2 -1 2q-2 0 -6 -1q-1 0 -5.5 -0.5t-6.5 -0.5q-74 -12 -114 2q-40 13 -34 48
q7 37 27 7q5 -6 6 -9q2 -2 6 -4q15 -4 48 -3q31 1 74 11l18 4l6 24q75 312 155 508l2 4l-5 -2q-40 -15 -77 -35q-35 -18 -75 -44q-17 -13 -17 -15q1 -1 5 -0.5t15 2.5q12 2 13 2q5 2 6 0l3 -3q7 -9 -8 -18q-13 -9 -35 -12q-21 -3 -34 5q-26 20 16 61q30 25 79 52
q57 32 110 54q4 2 10.5 4t7.5 3l8 4l4 7q1 3 4 9t4 9q32 76 52 102q18 24 33 8q5 -5 5 -14q2 -9 -3 -17q-3 -9 -8 -9q-2 0 -3 -1q-2 0 -3 -3q0 -1 -1.5 -4l-2.5 -5t-3.5 -7.5t-4.5 -10.5l-5 -10.5t-5 -11.5t-3 -9l-5 -13q3 0 8 1q2 1 8 2.5t8 2.5q127 34 210 13
q83 -23 105 -96zM638 485q28 88 -7.5 129.5t-134.5 36.5q-25 -1 -67 -8q-40 -8 -64 -15q-28 -9 -32 -14q-4 -10 -15 -43q-2 -7 -11.5 -34t-14.5 -43l-24 -70q-42 -130 -82 -279v-2l-5.5 -21t-4.5 -17q-5 -18 -6 -20v-2q-1 -2 -1 -5q0 -1 3 -1q3 2 10 3q0 1 2 1
q150 54 280 170q130 115 174 234z" />
    <glyph glyph-name="germandbls" unicode="&#xdf;" horiz-adv-x="489" 
d="M317 465q73 -34 91 -101q20 -69 -6 -149q-26 -81 -88 -146q-63 -66 -153 -91q-128 -33 -184 34l-8 9l-8 -16q-42 -83 -92 -68q-19 7 -19 20q0 12 18 12q45 3 90 162q3 11 4 14t4 15l2 6q1 5 2 9q1 3 2.5 8t1.5 6v2q1 4 3 14q2 5 4 13q1 2 2 8.5t2 10.5q2 8 6 26q2 8 6 26
q1 5 3 11.5t2 8.5q1 5 3 13l2 10l2 8q1 2 2 6.5t1 6.5q54 231 130 338q45 68 87 88t68 -15q30 -46 -2 -131q-32 -84 -110 -162q-7 -7 3 -3q30 9 65 9q35 -1 64 -12zM135 576q-1 -3 -20 -47l-20 -55l-10 -34l10 6q4 4 9 8q120 108 151 218q7 30 6 52q-1 11 -3.5 16t-6.5 4
q-20 -9 -54 -56q-33 -47 -62 -112zM308 138q69 103 61 189q-9 86 -89 113q-38 9 -83 1q-47 -11 -85 -34q-1 -1 -5.5 -3.5t-7.5 -3.5q-6 -5 -10 -6q-1 0 -2 -1l-6 -3q-4 -2 -6 -4l-6 -4l-5 -22q-6 -21 -12 -48q-3 -9 -6.5 -25t-5.5 -23q-2 -8 -4 -17l-1 -5l4 2l6 3
q55 29 95 16q39 -13 41 -62q-3 -36 -34 -73q-30 -37 -66 -56q-35 -19 -52 1q-6 6 -2 13q6 8 21 19q58 47 74 85q16 40 -21 41q-23 -1 -50 -17q-25 -15 -31 -30q-8 -34 -20 -73q-8 -29 -16 -50q-3 -15 11 -32q15 -18 36 -27q12 -5 29 -6q18 -1 34 0q129 17 214 142z" />
    <glyph glyph-name="agrave" unicode="&#xe0;" horiz-adv-x="354" 
d="M135 334q45 0 63 -49l1 -2l5 5q26 32 41 32q9 0 13 -9q2 -3 2 -9q0 -7 -20 -43q-68 -121 -68 -189q0 -24 12 -27q2 -1 8 -1q41 0 149 131q21 25 30 25q5 0 5 -10q0 -20 -60 -85t-94 -81q-22 -11 -38 -11q-26 0 -40.5 21.5t-14.5 58.5q0 17 3 36v2q-1 0 -16 -21
q-69 -99 -110 -99q-5 0 -8 1q-38 10 -38 71q0 51 26.5 112t69.5 102q41 39 79 39zM142 266h-1q-32 0 -78.5 -70.5t-50.5 -126.5q-1 -5 -1 -12q0 -6 3 -6q2 0 7 3q39 20 120 141q26 39 26 50q0 10 -17 19q-2 0 -4 1t-4 1zM131 414q0 14 14 17q15 3 35 -3t36 -20q15 -17 9 -26
q-6 -10 -27 -1q-1 0 -3 1t-4.5 2t-4.5 1q-3 1 -13 4q-23 6 -32 12q-8 4 -10 13z" />
    <glyph glyph-name="aacute" unicode="&#xe1;" horiz-adv-x="354" 
d="M135 334q45 0 63 -49l1 -2l5 5q26 32 41 32q9 0 13 -9q2 -3 2 -9q0 -7 -20 -43q-68 -121 -68 -189q0 -24 12 -27q2 -1 8 -1q41 0 149 131q21 25 30 25q5 0 5 -10q0 -20 -60 -85t-94 -81q-22 -11 -38 -11q-26 0 -40.5 21.5t-14.5 58.5q0 17 3 36v2q-1 0 -16 -21
q-69 -99 -110 -99q-5 0 -8 1q-38 10 -38 71q0 51 26.5 112t69.5 102q41 39 79 39zM142 266h-1q-32 0 -78.5 -70.5t-50.5 -126.5q-1 -5 -1 -12q0 -6 3 -6q2 0 7 3q39 20 120 141q26 39 26 50q0 10 -17 19q-2 0 -4 1t-4 1zM190 418q16 11 34 14q19 3 30 -1q13 -4 10 -17
q0 -3 -2 -7l-2 -1q-3 -2 -5 -3q-10 -3 -14 -4q-8 -2 -14 -4l-15 -6l-21 -9l-10 -2q-3 0 -6 3q-13 13 15 37z" />
    <glyph glyph-name="acircumflex" unicode="&#xe2;" horiz-adv-x="354" 
d="M135 334q45 0 63 -49l1 -2l5 5q26 32 41 32q9 0 13 -9q2 -3 2 -9q0 -7 -20 -43q-68 -121 -68 -189q0 -24 12 -27q2 -1 8 -1q41 0 149 131q21 25 30 25q5 0 5 -10q0 -20 -60 -85t-94 -81q-22 -11 -38 -11q-26 0 -40.5 21.5t-14.5 58.5q0 17 3 36v2q-1 0 -16 -21
q-69 -99 -110 -99q-5 0 -8 1q-38 10 -38 71q0 51 26.5 112t69.5 102q41 39 79 39zM142 266h-1q-32 0 -78.5 -70.5t-50.5 -126.5q-1 -5 -1 -12q0 -6 3 -6q2 0 7 3q39 20 120 141q26 39 26 50q0 10 -17 19q-2 0 -4 1t-4 1zM211 428q36 22 46 -3q4 -12 5 -23q1 -10 -1 -26
q-1 -10 -5 -16q-22 -11 -34 26q-2 5 -3 5q-1 1 -6 -1q-21 -7 -31 -8q-14 0 -18 4q-13 11 18 25q2 1 6.5 3.5t7.5 4.5q9 5 15 9z" />
    <glyph glyph-name="atilde" unicode="&#xe3;" horiz-adv-x="354" 
d="M135 334q45 0 63 -49l1 -2l5 5q26 32 41 32q9 0 13 -9q2 -3 2 -9q0 -7 -20 -43q-68 -121 -68 -189q0 -24 12 -27q2 -1 8 -1q41 0 149 131q21 25 30 25q5 0 5 -10q0 -20 -60 -85t-94 -81q-22 -11 -38 -11q-26 0 -40.5 21.5t-14.5 58.5q0 17 3 36v2q-1 0 -16 -21
q-69 -99 -110 -99q-5 0 -8 1q-38 10 -38 71q0 51 26.5 112t69.5 102q41 39 79 39zM142 266h-1q-32 0 -78.5 -70.5t-50.5 -126.5q-1 -5 -1 -12q0 -6 3 -6q2 0 7 3q39 20 120 141q26 39 26 50q0 10 -17 19q-2 0 -4 1t-4 1zM296 429q12 -5 9 -15q-3 -12 -14 -23
q-12 -12 -27 -15q-32 -6 -51 21l-7 7q-2 2 -7 2q-2 -1 -6 -2.5t-6 -2.5q-11 -6 -16 -6q-4 0 -8 6q-5 11 8 24q11 12 29 17q22 6 42 -17q14 -18 35 -5q8 6 9 7l6 2h4z" />
    <glyph glyph-name="adieresis" unicode="&#xe4;" horiz-adv-x="354" 
d="M135 334q45 0 63 -49l1 -2l5 5q26 32 41 32q9 0 13 -9q2 -3 2 -9q0 -7 -20 -43q-68 -121 -68 -189q0 -24 12 -27q2 -1 8 -1q41 0 149 131q21 25 30 25q5 0 5 -10q0 -20 -60 -85t-94 -81q-22 -11 -38 -11q-26 0 -40.5 21.5t-14.5 58.5q0 17 3 36v2q-1 0 -16 -21
q-69 -99 -110 -99q-5 0 -8 1q-38 10 -38 71q0 51 26.5 112t69.5 102q41 39 79 39zM142 266h-1q-32 0 -78.5 -70.5t-50.5 -126.5q-1 -5 -1 -12q0 -6 3 -6q2 0 7 3q39 20 120 141q26 39 26 50q0 10 -17 19q-2 0 -4 1t-4 1zM169 429q11 9 24 6q12 -4 16 -18q3 -13 -7 -24
q-10 -10 -24 -7q-13 4 -16 19q-3 13 7 24zM238 407q13 12 28 9q13 -3 15 -19q0 -12 -10 -20q-11 -8 -22 -5t-16 14q-3 12 5 21z" />
    <glyph glyph-name="aring" unicode="&#xe5;" horiz-adv-x="354" 
d="M135 334q45 0 63 -49l1 -2l5 5q26 32 41 32q9 0 13 -9q2 -3 2 -9q0 -7 -20 -43q-68 -121 -68 -189q0 -24 12 -27q2 -1 8 -1q41 0 149 131q21 25 30 25q5 0 5 -10q0 -20 -60 -85t-94 -81q-22 -11 -38 -11q-26 0 -40.5 21.5t-14.5 58.5q0 17 3 36v2q-1 0 -16 -21
q-69 -99 -110 -99q-5 0 -8 1q-38 10 -38 71q0 51 26.5 112t69.5 102q41 39 79 39zM142 266h-1q-32 0 -78.5 -70.5t-50.5 -126.5q-1 -5 -1 -12q0 -6 3 -6q2 0 7 3q39 20 120 141q26 39 26 50q0 10 -17 19q-2 0 -4 1t-4 1zM221 455q29 -5 20 -42q-7 -30 -29 -47
q-20 -18 -41 -8q-17 11 -14 37q4 23 23 43q18 20 41 17zM202 393q4 5 9 12q6 11 7 14l1 7q-4 0 -8 -5q-5 -5 -10 -13q-4 -6 -6 -13q-1 -5 0 -6t7 4z" />
    <glyph glyph-name="ae" unicode="&#xe6;" horiz-adv-x="354" 
d="M142 266h-1q-21 0 -50 -33q-29 -34 -52 -79q-23 -47 -27 -85q-1 -5 -1 -12q0 -6 3 -6q2 0 7 3q37 16 120 141q26 37 26 50q0 11 -17 19q-1 1 -4 1t-4 1zM357 265q-1 0 -9 -6q-4 -4 -14 -16t-13 -17q-6 -8 -6 -10t4 -2q1 0 9 2q7 4 13 12q5 6 13 20q5 12 5 15q0 2 -2 2z
M246 40l-24 -18q-22 -11 -38 -11q-50 0 -55 80q0 17 3 36v2q-1 0 -4 -5q-2 -2 -12 -16q-69 -99 -110 -99q-5 0 -8 1q-20 5 -29 25q-9 19 -9 46q0 47 26 110q26 62 70 104q44 39 79 39q42 0 63 -49q0 -2 1 -2t3 3l2 2q26 32 41 32q9 0 13 -9q2 -6 2 -9q0 -6 -4 -14
q-2 -4 -7.5 -14t-8.5 -15q-68 -131 -68 -189q0 -22 12 -27q3 -1 11 -1q11 1 21 8q9 5 17 13q-10 24 -10 56q0 44 21 92q19 46 61 87q35 30 62 30q46 -3 46 -55q0 -13 -3 -27q-11 -39 -34 -61q-26 -24 -52 -24q-13 0 -25 6q-1 0 -3 1t-3 1q-3 0 -4 -4q0 -1 -1 -3.5t-2 -5.5
l-2 -6q-10 -29 -10 -52q0 -57 54 -60q27 0 66 21q30 19 64 51q32 32 56 65l16 20q4 7 9 10q4 2 6 2q9 0 9 -8q0 -13 -18 -39q-23 -32 -47 -56q-97 -99 -171 -99q-8 0 -20 2q-34 7 -52 33z" />
    <glyph glyph-name="ccedilla" unicode="&#xe7;" horiz-adv-x="286" 
d="M52 -2l-2 -4q-7 -16 -9 -23q-2 -4 -2 -5l-1 -1v-1l6 2q19 8 30 8q17 0 19 -17q0 -15 -14 -46q-13 -19 -30 -30q-16 -10 -29 -10h-6q-10 3 -13 11q-4 6 -2 14q2 7 5 9q4 0 5 -6q1 -7 9 -7q10 0 24 12q10 8 23 28q6 12 6 18q0 7 -7 7q-10 0 -29 -18q-10 -7 -16 -7
q-7 0 -8 10v1q0 4 5 17q1 2 4.5 10.5l5.5 13.5q1 3 3.5 9t3.5 9q-33 9 -47 38q-16 28 -16 68q0 47 23 102q24 56 65 97q40 34 73 34h2q19 0 32 -10q12 -10 12 -31q0 -16 -9 -27t-19 -11t-14 13q-3 6 -8 6q-17 0 -48 -42q-33 -46 -50 -92q-14 -42 -14 -68q0 -52 44 -52
q35 0 91 38t121 112q23 27 31 27q5 0 6 -4q1 -2 1 -6q0 -22 -69 -89q-109 -107 -182 -107h-6z" />
    <glyph glyph-name="egrave" unicode="&#xe8;" horiz-adv-x="274" 
d="M128 328q21 -1 33.5 -15.5t12.5 -39.5q0 -12 -3 -27q-9 -37 -33.5 -61t-52.5 -24q-13 0 -25 6q-4 2 -6 2q-4 0 -9 -19q-9 -30 -9 -52q0 -28 14 -44t39 -16q29 0 66 21q63 37 120 116q24 32 31 32q9 0 9 -8q0 -28 -65 -95q-99 -99 -171 -99q-8 0 -20 2q-36 8 -55.5 38.5
t-19.5 73.5q0 46 21.5 94t60.5 85q31 30 62 30zM118 265q-4 0 -23 -22t-19 -27q0 -2 4 -2q3 0 9 2q7 3 19 21t12 26q0 2 -2 2zM110 414q-2 14 14 17q14 3 35 -3q22 -7 35 -20q16 -16 10 -26q-7 -10 -28 -1l-4 1q-4 2 -7 3q-5 2 -13 4q-23 6 -32 12q-10 4 -10 13z" />
    <glyph glyph-name="eacute" unicode="&#xe9;" horiz-adv-x="274" 
d="M128 328q21 -1 33.5 -15.5t12.5 -39.5q0 -12 -3 -27q-9 -37 -33.5 -61t-52.5 -24q-13 0 -25 6q-4 2 -6 2q-4 0 -9 -19q-9 -30 -9 -52q0 -28 14 -44t39 -16q29 0 66 21q63 37 120 116q24 32 31 32q9 0 9 -8q0 -28 -65 -95q-99 -99 -171 -99q-8 0 -20 2q-36 8 -55.5 38.5
t-19.5 73.5q0 46 21.5 94t60.5 85q31 30 62 30zM118 265q-4 0 -23 -22t-19 -27q0 -2 4 -2q3 0 9 2q7 3 19 21t12 26q0 2 -2 2zM179 418q18 11 34 14q19 3 30 -1q13 -4 10 -17q0 -3 -2 -7q-1 0 -3 -1.5t-4 -2.5q-10 -3 -14 -4q-8 -2 -13 -4q-6 -2 -16 -6q-13 -6 -21 -9
l-10 -2q-3 0 -6 3q-13 13 15 37z" />
    <glyph glyph-name="ecircumflex" unicode="&#xea;" horiz-adv-x="274" 
d="M128 328q21 -1 33.5 -15.5t12.5 -39.5q0 -12 -3 -27q-9 -37 -33.5 -61t-52.5 -24q-13 0 -25 6q-4 2 -6 2q-4 0 -9 -19q-9 -30 -9 -52q0 -28 14 -44t39 -16q29 0 66 21q63 37 120 116q24 32 31 32q9 0 9 -8q0 -28 -65 -95q-99 -99 -171 -99q-8 0 -20 2q-36 8 -55.5 38.5
t-19.5 73.5q0 46 21.5 94t60.5 85q31 30 62 30zM118 265q-4 0 -23 -22t-19 -27q0 -2 4 -2q3 0 9 2q7 3 19 21t12 26q0 2 -2 2zM172 428q35 23 45 -2q5 -9 6 -23q2 -14 0 -26q-1 -10 -5 -16q-21 -12 -35 25q-2 5 -3 5q-1 1 -6 -1q-15 -6 -31 -8q-12 -2 -17 3q-14 11 17 26
q6 4 14 8z" />
    <glyph glyph-name="edieresis" unicode="&#xeb;" horiz-adv-x="274" 
d="M128 328q21 -1 33.5 -15.5t12.5 -39.5q0 -12 -3 -27q-9 -37 -33.5 -61t-52.5 -24q-13 0 -25 6q-4 2 -6 2q-4 0 -9 -19q-9 -30 -9 -52q0 -28 14 -44t39 -16q29 0 66 21q63 37 120 116q24 32 31 32q9 0 9 -8q0 -28 -65 -95q-99 -99 -171 -99q-8 0 -20 2q-36 8 -55.5 38.5
t-19.5 73.5q0 46 21.5 94t60.5 85q31 30 62 30zM118 265q-4 0 -23 -22t-19 -27q0 -2 4 -2q3 0 9 2q7 3 19 21t12 26q0 2 -2 2zM120 429q9 9 23 6q13 -5 16 -18q3 -14 -7 -24q-9 -10 -23 -7q-14 5 -17 19q-2 14 8 24zM188 407q14 12 28 9q15 -3 15 -19q0 -13 -10 -20
q-9 -8 -21 -5q-13 3 -16 14q-4 10 4 21z" />
    <glyph glyph-name="igrave" unicode="&#xec;" horiz-adv-x="203" 
d="M90 326q9 0 16 -7t7 -18q0 -13 -8 -25q-31 -51 -50 -104t-19 -86q0 -38 23 -38q1 0 3 0.5t3 0.5q22 4 50.5 30.5t79.5 90.5q27 35 35 35q1 0 5 -2q3 -1 3 -6q0 -18 -71 -99q-66 -78 -113 -78q-6 0 -16 2q-24 7 -37 35.5t-13 68.5q0 89 51 164q23 36 51 36zM43 414
q0 14 14 17q15 3 35 -3t36 -20q15 -17 9 -26q-6 -10 -28 -1q-6 3 -11 4q-3 1 -13 4q-23 6 -32 12q-10 5 -10 13z" />
    <glyph glyph-name="iacute" unicode="&#xed;" horiz-adv-x="203" 
d="M90 326q9 0 16 -7t7 -18q0 -13 -8 -25q-31 -51 -50 -104t-19 -86q0 -38 23 -38q1 0 3 0.5t3 0.5q22 4 50.5 30.5t79.5 90.5q27 35 35 35q1 0 5 -2q3 -1 3 -6q0 -18 -71 -99q-66 -78 -113 -78q-6 0 -16 2q-24 7 -37 35.5t-13 68.5q0 89 51 164q23 36 51 36zM109 418
q16 11 34 14q19 3 30 -1q13 -4 10 -17q0 -3 -2 -7q-1 0 -3 -1.5t-4 -2.5q-10 -3 -14 -4q-8 -2 -14 -4l-15 -6q-13 -6 -21 -9l-10 -2q-3 0 -6 3q-13 13 15 37z" />
    <glyph glyph-name="icircumflex" unicode="&#xee;" horiz-adv-x="203" 
d="M90 326q9 0 16 -7t7 -18q0 -13 -8 -25q-31 -51 -50 -104t-19 -86q0 -38 23 -38q1 0 3 0.5t3 0.5q22 4 50.5 30.5t79.5 90.5q27 35 35 35q1 0 5 -2q3 -1 3 -6q0 -18 -71 -99q-66 -78 -113 -78q-6 0 -16 2q-24 7 -37 35.5t-13 68.5q0 89 51 164q23 36 51 36zM112 428
q36 22 46 -3q3 -5 5 -22q1 -14 0 -27q-1 -11 -5 -15q-22 -12 -35 25q0 5 -2 5q-1 1 -7 -1q-13 -6 -30 -8q-14 -2 -18 3q-12 12 17 26q4 2 14 8q9 5 15 9z" />
    <glyph glyph-name="idieresis" unicode="&#xef;" horiz-adv-x="203" 
d="M90 326q9 0 16 -7t7 -18q0 -13 -8 -25q-31 -51 -50 -104t-19 -86q0 -38 23 -38q1 0 3 0.5t3 0.5q22 4 50.5 30.5t79.5 90.5q27 35 35 35q1 0 5 -2q3 -1 3 -6q0 -18 -71 -99q-66 -78 -113 -78q-6 0 -16 2q-24 7 -37 35.5t-13 68.5q0 89 51 164q23 36 51 36zM80 429
q9 9 23 6q12 -4 16 -18q3 -13 -7 -24q-9 -10 -23 -7q-14 5 -17 19q-3 13 8 24zM148 407q13 12 28 9q13 -3 15 -19q0 -12 -10 -20q-9 -8 -21 -5t-17 14q-3 10 5 21z" />
    <glyph glyph-name="eth" unicode="&#xf0;" horiz-adv-x="404" 
d="M143 278q-28 0 -59 -49q-23 -37 -41 -87q-16 -47 -16 -75q0 -19 9 -21q2 0 6 2q39 17 112 160l7 14q2 4 5 9.5l5 9t3 5.5q3 8 3 10q0 3 -1 4l-3 3l-3 3q-12 12 -27 12zM280 485q42 86 92 161q35 53 52 71q18 20 31 20q3 0 9 -2q12 -9 12 -24q0 -9 -4 -16q-5 -8 -13 -8h-2
q-9 0 -36 -44q-25 -42 -60 -110q-4 -9 -12.5 -25t-12.5 -25q21 -1 39 -6q36 -7 36 -20q0 -4 -5 -9q-1 -1 -5 -3q-2 -1 -9 -1q-2 0 -30 2q-3 0 -8 0.5t-12 1t-13 0.5h-9q-10 -21 -19 -44q-55 -130 -87 -249q-33 -119 -33 -180q0 -44 19 -45q23 -2 70 57q43 53 127 191
q20 35 30 35q3 0 6 -3q3 -2 3 -7q0 -11 -21 -44q-151 -258 -218 -258q-5 0 -13 2q-42 17 -42 103q0 55 16 129q2 10 3 14t1 8q0 -1 -3 -7l-12 -20q-66 -124 -118 -124q-7 0 -15 3q-21 8 -29 29q-9 21 -9 52q0 61 31 132q32 71 81 104q26 15 51 15q38 0 59 -34q3 -6 5 -6
t5 11q25 69 54 136h-19q-20 0 -26 -1h-9q-28 0 -30 14q0 11 31 18q36 4 71 6z" />
    <glyph glyph-name="ntilde" unicode="&#xf1;" horiz-adv-x="352" 
d="M253 434q11 -3 9 -15q-3 -12 -14 -23q-10 -10 -27 -15q-33 -6 -52 21q-3 4 -7 8q-3 3 -6 1q-2 -1 -6 -2.5t-6 -2.5q-9 -5 -16 -5q-6 0 -9 6q-3 11 8 23q12 14 30 18q23 4 42 -18q14 -19 35 -4l9 6q4 2 6 2h4zM89 349q14 -2 14 -14q-2 -12 -9 -24q-11 -21 -28 -61.5
t-17 -45.5q3 0 13 19q52 79 84 78q31 -2 38 -84q4 -54 16.5 -78t38.5 -25q57 -2 111 87q14 24 23 24q4 0 6 -4q2 -2 2 -6q-1 -26 -50.5 -80t-94.5 -55h-9q-70 3 -85 141q-2 30 -5 33q-6 1 -36 -36t-56 -77q-24 -37 -30 -50.5t-14 -52.5q-1 -7 -7 -11.5t-13 -3.5q-4 0 -7 1
q-13 7 -11 42q2 65 22.5 133.5t49 111t54.5 38.5z" />
    <glyph glyph-name="ograve" unicode="&#xf2;" horiz-adv-x="264" 
d="M115 345h2q15 -2 19 -16q4 -6 5 -6l2 1q6 2 11 1q25 -2 38 -29q12 -25 9 -63q-6 -78 -67 -152.5t-120 -70.5q-10 2 -15 4q-52 16 -45 98q7 89 77 178q47 58 84 55zM127 299q-19 0 -61.5 -78.5t-46.5 -122.5q-4 -39 22 -41h7q40 11 78.5 72t42.5 112q2 20 -5 34.5
t-20 18.5q-2 1 -7.5 2t-6.5 2t-3 1zM77 425q0 13 14 17q15 3 35 -3q22 -7 35 -20q16 -16 10 -26t-28 -1l-4 2q-4 1 -7 2q-3 2 -13 4q-23 6 -32 12q-10 5 -10 13z" />
    <glyph glyph-name="oacute" unicode="&#xf3;" horiz-adv-x="264" 
d="M115 345h2q15 -2 19 -16q4 -6 5 -6l2 1q6 2 11 1q25 -2 38 -29q12 -25 9 -63q-6 -78 -67 -152.5t-120 -70.5q-10 2 -15 4q-52 16 -45 98q7 89 77 178q47 58 84 55zM127 299q-19 0 -61.5 -78.5t-46.5 -122.5q-4 -39 22 -41h7q40 11 78.5 72t42.5 112q2 20 -5 34.5
t-20 18.5q-2 1 -7.5 2t-6.5 2t-3 1zM166 429q16 11 33 14q20 3 31 -1q13 -6 10 -17q-2 -6 -3 -7q-3 -3 -6 -4l-5 -2q-6 -1 -10 -2q-11 -4 -13 -4l-15 -6q-15 -6 -21 -9q-10 -2 -11 -2q-3 0 -5 2q-13 14 15 38z" />
    <glyph glyph-name="ocircumflex" unicode="&#xf4;" horiz-adv-x="264" 
d="M115 345h2q15 -2 19 -16q4 -6 5 -6l2 1q6 2 11 1q25 -2 38 -29q12 -25 9 -63q-6 -78 -67 -152.5t-120 -70.5q-10 2 -15 4q-52 16 -45 98q7 89 77 178q47 58 84 55zM127 299q-19 0 -61.5 -78.5t-46.5 -122.5q-4 -39 22 -41h7q40 11 78.5 72t42.5 112q2 20 -5 34.5
t-20 18.5q-2 1 -7.5 2t-6.5 2t-3 1zM172 439q36 22 46 -2q5 -10 5 -23q1 -9 1 -26q-1 -11 -6 -16q-20 -12 -34 25q-2 5 -3 5q-1 1 -6 -1q-18 -8 -31 -9q-14 -2 -18 3q-12 12 17 27q11 5 14 8q9 4 15 9z" />
    <glyph glyph-name="otilde" unicode="&#xf5;" horiz-adv-x="264" 
d="M115 345h2q15 -2 19 -16q4 -6 5 -6l2 1q6 2 11 1q25 -2 38 -29q12 -25 9 -63q-6 -78 -67 -152.5t-120 -70.5q-10 2 -15 4q-52 16 -45 98q7 89 77 178q47 58 84 55zM127 299q-19 0 -61.5 -78.5t-46.5 -122.5q-4 -39 22 -41h7q40 11 78.5 72t42.5 112q2 20 -5 34.5
t-20 18.5q-2 1 -7.5 2t-6.5 2t-3 1zM258 439q12 -3 9 -14q-3 -14 -14 -23q-12 -12 -27 -15q-31 -6 -51 20q-5 7 -7 8q-3 3 -7 1q-2 0 -12 -5q-12 -5 -16 -5q-5 0 -8 6q-4 10 8 24q11 12 30 17q22 5 41 -18q15 -18 35 -4q4 3 10 7q4 2 5 2q3 0 4 -1z" />
    <glyph glyph-name="odieresis" unicode="&#xf6;" horiz-adv-x="264" 
d="M115 345h2q15 -2 19 -16q4 -6 5 -6l2 1q6 2 11 1q25 -2 38 -29q12 -25 9 -63q-6 -78 -67 -152.5t-120 -70.5q-10 2 -15 4q-52 16 -45 98q7 89 77 178q47 58 84 55zM127 299q-19 0 -61.5 -78.5t-46.5 -122.5q-4 -39 22 -41h7q40 11 78.5 72t42.5 112q2 20 -5 34.5
t-20 18.5q-2 1 -7.5 2t-6.5 2t-3 1zM135 440q12 9 23 6q13 -5 17 -18q2 -14 -8 -24q-9 -10 -23 -7q-13 4 -16 19q-3 14 7 24zM203 417q14 13 28 10t16 -19q-1 -13 -10 -20q-11 -8 -22 -5q-13 3 -16 14q-3 12 4 20z" />
    <glyph glyph-name="divide" unicode="&#xf7;" horiz-adv-x="349" 
d="M335 237q-14 2 -82 2q-52 0 -64 -1h-8q-30 0 -30 14t31 18q39 6 80 6q50 0 86 -8t36 -20q0 -4 -6 -9q-4 -4 -13 -4q-3 0 -6.5 0.5t-10.5 1t-13 0.5zM231 150q-15 8 -15 23q0 12 10 21q8 6 15 6q10 0 17.5 -7.5t7.5 -17.5q0 -6 -3 -12q-7 -14 -25 -14q-1 0 -3.5 0.5
t-3.5 0.5zM273 310q-12 6 -12 19q0 7 2 11q8 17 23 17q11 0 18 -10q5 -7 5 -13q0 -10 -7.5 -18t-18.5 -8q-7 0 -10 2z" />
    <glyph glyph-name="oslash" unicode="&#xf8;" horiz-adv-x="264" 
d="M45 57h1q45 15 80 73q35 60 41 111q2 17 -3 29l-68 -117q-27 -47 -51 -96zM139 295l-5 1l-6 2q-1 0 -1 1h-2q-14 -2 -38 -39q-25 -37 -46 -83t-24 -79q-2 -13 1 -20q33 73 72 139q34 56 49 78zM-9 16q-45 22 -39 96q8 86 77 178q47 56 84 55h2q15 -2 19 -16q1 -2 3 -4
l2 -2l2 1q6 2 11 1q1 0 3.5 -0.5t3.5 -0.5q33 44 39 50q14 14 20 14q3 0 5 -1q6 -3 7 -7q0 -6 -9 -19q-3 -4 -9 -14l-27 -43q3 -4 5 -8q14 -28 9 -63q-9 -82 -66 -152q-52 -64 -108 -70q-10 -22 -14 -33q-11 -28 -20 -43q-7 -13 -14 -13q-3 0 -7 3q-2 3 -4 10q-3 13 25 81z
" />
    <glyph glyph-name="ugrave" unicode="&#xf9;" horiz-adv-x="426" 
d="M280 341q6 0 9 -2q10 -4 10 -13q0 -11 -17 -42q-56 -111 -56 -168q0 -46 34 -46q50 0 142 98q47 51 54 51q3 0 6 -3q2 -1 2 -6q0 -15 -67 -82q-79 -81 -134 -85h-7q-33 0 -53 25.5t-20 65.5q0 7 2 25q1 2 1 4q-1 0 -11 -14q-88 -125 -134 -125q-7 0 -10 1q-45 12 -45 84
q0 71 42 153q38 75 70 75q10 0 17 -10q4 -8 4 -10q0 -9 -28 -61q-57 -103 -57 -170q0 -11 4 -21q2 -5 9 -5q22 0 57 40q21 25 62.5 86.5t57.5 92.5q33 62 55 62h1zM120 428q-2 14 14 17q13 3 35 -2q20 -6 35 -21q16 -16 10 -26q-8 -10 -28 -1l-4 1q-4 2 -7 3q-2 1 -6.5 2.5
t-6.5 2.5q-22 4 -32 11q-10 6 -10 13z" />
    <glyph glyph-name="uacute" unicode="&#xfa;" horiz-adv-x="426" 
d="M280 341q6 0 9 -2q10 -4 10 -13q0 -11 -17 -42q-56 -111 -56 -168q0 -46 34 -46q50 0 142 98q47 51 54 51q3 0 6 -3q2 -1 2 -6q0 -15 -67 -82q-79 -81 -134 -85h-7q-33 0 -53 25.5t-20 65.5q0 7 2 25q1 2 1 4q-1 0 -11 -14q-88 -125 -134 -125q-7 0 -10 1q-45 12 -45 84
q0 71 42 153q38 75 70 75q10 0 17 -10q4 -8 4 -10q0 -9 -28 -61q-57 -103 -57 -170q0 -11 4 -21q2 -5 9 -5q22 0 57 40q21 25 62.5 86.5t57.5 92.5q33 62 55 62h1zM212 428q15 12 33 15q20 3 31 -2q13 -5 10 -16q-2 -6 -3 -7q-1 -2 -6 -4l-5 -2q-6 -1 -10 -2q-1 0 -5.5 -2
t-7.5 -3q-2 -1 -5 -2t-5.5 -2t-4.5 -2q-13 -4 -21 -8q-10 -2 -11 -2q-3 0 -5 2q-14 14 15 37z" />
    <glyph glyph-name="ucircumflex" unicode="&#xfb;" horiz-adv-x="426" 
d="M280 341q6 0 9 -2q10 -4 10 -13q0 -11 -17 -42q-56 -111 -56 -168q0 -46 34 -46q50 0 142 98q47 51 54 51q3 0 6 -3q2 -1 2 -6q0 -15 -67 -82q-79 -81 -134 -85h-7q-33 0 -53 25.5t-20 65.5q0 7 2 25q1 2 1 4q-1 0 -11 -14q-88 -125 -134 -125q-7 0 -10 1q-45 12 -45 84
q0 71 42 153q38 75 70 75q10 0 17 -10q4 -8 4 -10q0 -9 -28 -61q-57 -103 -57 -170q0 -11 4 -21q2 -5 9 -5q22 0 57 40q21 25 62.5 86.5t57.5 92.5q33 62 55 62h1zM219 438q33 26 46 1q4 -7 6 -22q2 -9 2 -26q0 -12 -4 -16q-21 -13 -36 23q-1 3 -3 5l-2 -1q-3 0 -5 -1
q-15 -8 -30 -10q-11 -3 -18 2q-12 9 16 27q2 1 6.5 4t6.5 4z" />
    <glyph glyph-name="udieresis" unicode="&#xfc;" horiz-adv-x="426" 
d="M280 341q6 0 9 -2q10 -4 10 -13q0 -11 -17 -42q-56 -111 -56 -168q0 -46 34 -46q50 0 142 98q47 51 54 51q3 0 6 -3q2 -1 2 -6q0 -15 -67 -82q-79 -81 -134 -85h-7q-33 0 -53 25.5t-20 65.5q0 7 2 25q1 2 1 4q-1 0 -11 -14q-88 -125 -134 -125q-7 0 -10 1q-45 12 -45 84
q0 71 42 153q38 75 70 75q10 0 17 -10q4 -8 4 -10q0 -9 -28 -61q-57 -103 -57 -170q0 -11 4 -21q2 -5 9 -5q22 0 57 40q21 25 62.5 86.5t57.5 92.5q33 62 55 62h1zM165 440q11 9 23 6q13 -5 16 -18q3 -14 -7 -24q-9 -10 -23 -7q-14 5 -16 19q-3 14 7 24zM233 417
q13 13 28 10t15 -19q0 -13 -10 -20q-9 -8 -21 -5q-13 3 -16 14q-4 10 4 20z" />
    <glyph glyph-name="yacute" unicode="&#xfd;" horiz-adv-x="480" 
d="M269 370q13 0 23 -12q12 -14 12 -52q0 -73 -44 -202l-5.5 -15t-4.5 -11.5t-3.5 -8.5t-2 -6t-0.5 -3t1 -1l2 1q2 2 7 6l10 8q57 49 109.5 83.5t69.5 34.5q6 0 7 -4q1 -2 1 -4t-2 -4t-10 -7t-17 -12q-8 -7 -68 -49t-98 -77q-6 -5 -12.5 -11t-9 -8t-6 -6t-5.5 -8l-5 -10
t-7 -16q-74 -169 -174.5 -302t-153.5 -133q-5 0 -11 2q-16 6 -16 28q0 54 81 171.5t193 221.5q20 19 24.5 24t9.5 17q43 90 72.5 180.5t29.5 127.5q0 17 -7 17q-4 0 -6 -2q-20 -13 -50 -45.5t-114 -132.5q-82 -99 -115 -99q-12 0 -23 8q-25 18 -25 71q0 75 41 140
q17 29 40 29q20 0 20 -27v-4q-1 -13 -10 -22q-10 -9 -23.5 -61t-13.5 -77q0 -7 1 -9q2 -2 3 -2q20 0 150 152q58 67 87.5 94t47.5 27zM119 -86q-1 0 -26 -26q-87 -90 -144.5 -175t-64.5 -131v-2q0 -4 2 -4t22 18q43 41 101 128t104 177q1 3 2.5 6.5t2.5 5.5t1 3zM161 429
q16 11 34 14q19 3 30 -1q13 -6 10 -17q0 -4 -3 -7t-6 -4q-10 -3 -14 -4q-1 0 -5.5 -1.5t-8.5 -2.5l-15 -6q-13 -6 -21 -9q-10 -2 -11 -2t-5 2q-13 14 15 38z" />
    <glyph glyph-name="thorn" unicode="&#xfe;" horiz-adv-x="447" 
d="M374 365q32 -30 29 -82q-5 -53 -34 -112q-33 -61 -81 -109q-50 -50 -110 -74q-15 -5 -31 -9q-22 -4 -31 -4q-1 0 -3 -1h-2l-2 -1l-1 -2q0 -2 -1 -5.5t-2 -6.5q-4 -16 -9 -31l-12 -43q-2 -6 -5.5 -21t-5.5 -22q-1 -6 -3.5 -14t-2.5 -11q-1 -3 -2.5 -8t-1.5 -6q-1 -3 -3 -7
q0 -2 -2 -4q-10 -14 -19 -1q-17 23 19 160q0 2 1 2q1 5 4 15q0 2 0.5 4.5t0.5 3.5q0 3 -1 3l-4 2q-25 6 -34 27t3 42q16 25 17 -11q0 -13 5 -20q4 -6 15 -9l9 -2l1 4q1 3 6 23q12 39 13 42q5 19 12 38q28 94 65 179q1 2 2.5 5.5t1.5 4.5l1 4l-12 -4q-14 -8 -26 -14
q-4 -2 -13.5 -7.5t-13.5 -8.5q-11 -7 -15 -11q-1 0 0 -1h2q1 0 3 0.5t4 0.5q11 2 16 -0.5t3 -9.5q-1 -6 -14 -12q-8 -5 -28 -11q-16 -3 -23 -2q-12 3 -18 13q-5 12 -1 22q9 22 52 50t101 52q12 4 13 7q53 108 79 143q27 39 44 28q8 -5 9 -13q2 -9 -1 -17t-10 -11
q-6 -3 -24 -36q-18 -31 -40 -79h-1v-2h2q4 0 7 1h3q64 9 100 -21zM355 255q14 53 -6.5 74.5t-74.5 11.5q-32 -5 -37 -10q-11 -22 -18 -40l-30 -77q-22 -58 -29 -79l-15 -46l-17 -52l-9 -28q0 -1 1 -1h4h2q3 1 5 1q70 18 136 91q67 71 88 155z" />
    <glyph glyph-name="ydieresis" unicode="&#xff;" horiz-adv-x="480" 
d="M269 370q13 0 23 -12q12 -14 12 -52q0 -73 -44 -202l-5.5 -15t-4.5 -11.5t-3.5 -8.5t-2 -6t-0.5 -3t1 -1l2 1q2 2 7 6l10 8q57 49 109.5 83.5t69.5 34.5q6 0 7 -4q1 -2 1 -4t-2 -4t-10 -7t-17 -12q-8 -7 -68 -49t-98 -77q-6 -5 -12.5 -11t-9 -8t-6 -6t-5.5 -8l-5 -10
t-7 -16q-74 -169 -174.5 -302t-153.5 -133q-5 0 -11 2q-16 6 -16 28q0 54 81 171.5t193 221.5q20 19 24.5 24t9.5 17q43 90 72.5 180.5t29.5 127.5q0 17 -7 17q-4 0 -6 -2q-20 -13 -50 -45.5t-114 -132.5q-82 -99 -115 -99q-12 0 -23 8q-25 18 -25 71q0 75 41 140
q17 29 40 29q20 0 20 -27v-4q-1 -13 -10 -22q-10 -9 -23.5 -61t-13.5 -77q0 -7 1 -9q2 -2 3 -2q20 0 150 152q58 67 87.5 94t47.5 27zM119 -86q-1 0 -26 -26q-87 -90 -144.5 -175t-64.5 -131v-2q0 -4 2 -4t22 18q43 41 101 128t104 177q1 3 2.5 6.5t2.5 5.5t1 3zM89 426
q11 9 23 6q13 -5 16 -18q3 -15 -7 -24q-9 -10 -23 -7q-14 5 -17 19q-2 14 8 24zM165 435q13 12 28 9q13 -3 15 -19q0 -12 -10 -20t-22 -5q-11 3 -16 14q-3 12 5 21z" />
    <glyph glyph-name="dotlessi" unicode="&#x131;" horiz-adv-x="203" 
d="M90 326q9 0 16 -7t7 -18q0 -13 -8 -25q-31 -51 -50 -104t-19 -86q0 -38 23 -38q1 0 3 0.5t3 0.5q22 4 50.5 30.5t79.5 90.5q27 35 35 35q1 0 5 -2q3 -1 3 -6q0 -18 -71 -99q-66 -78 -113 -78q-6 0 -16 2q-24 7 -37 35.5t-13 68.5q0 89 51 164q23 36 51 36z" />
    <glyph glyph-name="OE" unicode="&#x152;" 
d="M705 468q-4 -24 -7 -37q-34 -141 -117 -272q-81 -127 -185 -215q-104 -86 -188 -86q-12 0 -18 1q-54 7 -81 51t-27 107q0 62 25 131q24 72 73 138q72 93 113 93q12 0 19 -10q3 -5 3 -12q0 -8 -4 -15q-5 -8 -12 -8q-9 0 -44 -44q-51 -66 -81 -147t-30 -146q0 -22 5 -45
q16 -52 68 -52q55 0 134 55q78 53 155 151q87 116 131 232q34 92 41 166q-1 3 -1 9q0 9 3 19v17q0 89 -37 147q-38 60 -113 73q-18 3 -36 3q-112 0 -228 -103q-117 -103 -209 -286q-18 -35 -27 -60q-10 -25 -18 -59q-9 -41 -20 -41q-2 0 -6 2q-14 12 -14 38q0 51 40 135
q40 87 106 180q88 120 184 176q98 57 183 57q98 0 162 -67q54 -57 63 -154q75 101 192 163q123 66 211 66q40 0 65 -16t25 -53v-6q-3 -35 -30 -73q-30 -40 -63 -64q-36 -27 -61 -27q-20 0 -26 20q-1 1 -1 4v1q0 7 4 11t9 4t10 -4h2q0 -1 1 -1q9 0 34 20q26 22 45 44
q36 47 36 71q0 30 -41 28q-62 0 -171 -58q-112 -59 -192 -151q-34 -35 -34 -53q0 -11 26 -16q19 -3 81 -5q38 0 70 -2q20 -1 33 -7q10 -6 14 -18q4 -7 4 -15q0 -15 -20 -40q-21 -24 -71 -68l-51 -45q-7 -6 -17 -16q-4 -4 -18 -16q-118 -107 -183 -196q-64 -86 -64 -137
q0 -45 57 -48h15q13 0 20 1q88 13 191 85q102 69 238 198q21 21 33 29q13 10 18 11q8 2 9 2q3 0 3 -7q0 -18 -60 -76q-68 -65 -160 -140q-172 -136 -293 -136l-22 1q-41 6 -64 33q-22 26 -22 66t23 89q61 135 303 327q85 69 85 75v1q-1 2 -18 3h-35h-35q-76 0 -110 19z" />
    <glyph glyph-name="oe" unicode="&#x153;" horiz-adv-x="264" 
d="M123 344h2q13 0 21 -14q2 -5 5 -5h2q5 3 11 3q24 0 40 -26q14 -25 14 -62q0 -79 -54.5 -158.5t-113.5 -79.5q-5 0 -15 2q-53 12 -53 94q0 90 62 184q41 62 79 62zM139 299q-19 -2 -55 -83.5t-36 -125.5q0 -19 7.5 -29t18.5 -10q4 0 7 1q39 14 69.5 77.5t30.5 116.5
q0 44 -25 50q-2 0 -5 0.5t-5.5 1t-3.5 0.5q-1 1 -3 1zM333 328q20 -1 33 -15.5t13 -39.5q0 -12 -3 -27q-10 -37 -34.5 -61t-51.5 -24q-13 0 -25 6q-1 0 -3 1t-3 1q-4 0 -9 -19q-10 -29 -10 -52q0 -28 14 -44t39 -16q28 0 67 21q63 37 120 116q24 32 31 32q8 0 8 -8
q0 -29 -64 -95q-99 -99 -172 -99q-7 0 -19 2q-37 8 -56 38.5t-19 73.5q0 46 21 94t61 85q31 30 62 30zM323 265q-4 0 -23 -22t-19 -27q0 -2 3 -2q2 0 10 2q7 3 18.5 21t11.5 26q0 2 -1 2z" />
    <glyph glyph-name="Scaron" unicode="&#x160;" horiz-adv-x="592" 
d="M123 -122q-46 4 -72.5 18.5t-26.5 35.5q0 8 2 13q5 8 8 8q5 0 11 -10q19 -32 107 -32q105 0 189 40q59 27 92.5 60t33.5 64q0 13 -8 27q-18 29 -64 53.5t-145 56.5q-105 34 -151.5 67t-46.5 75q0 38 42 99q68 95 198.5 187t261 146t212.5 54q81 0 81 -57q0 -5 -2 -19
q-9 -48 -70.5 -114.5t-140.5 -117.5t-135 -57h-6q-23 0 -23 15q0 12 19 18q69 19 172 106.5t129 147.5q5 12 5 17q0 13 -28 13h-6q-86 0 -247 -86t-288 -193.5t-127 -164.5v-3q2 -27 36.5 -46.5t135.5 -51.5q109 -35 160.5 -68t65.5 -78q4 -11 4 -23q0 -63 -81 -123
t-191 -76q-18 -2 -67 -2q-32 0 -39 1zM524 848q-33 -27 -46 -3q-5 8 -8 22q-2 9 -2 26q0 11 3 16q19 13 37 -22q2 -4 3 -4q1 -1 7 2q13 7 29 11q14 3 18 -1q15 -10 -14 -28q-5 -2 -13 -9l-8 -5.5t-6 -4.5z" />
    <glyph glyph-name="scaron" unicode="&#x161;" horiz-adv-x="368" 
d="M188 361q31 0 40 -19q3 -6 3 -15q0 -27 -23 -42q-5 -4 -11 -4q-7 0 -12.5 5.5t-5.5 12.5v4l1 3l-1 2h-1l-2 -1q-50 -12 -124.5 -57.5t-74.5 -64.5q0 -10 53 -30q40 -16 61 -28q6 -3 9 -3q6 0 25 9q63 30 131.5 54t91.5 24q1 0 3 -1h2q6 -2 6 -6q0 -8 -25 -16
q-98 -26 -197 -79q-10 -5 -10 -8q0 -2 3 -7q17 -27 17 -59q0 -66 -62 -121.5t-139 -55.5q-22 0 -39 4q-39 9 -39 41q0 37 49.5 90t133.5 101q14 8 14 11q0 5 -49 21q-48 17 -63.5 29.5t-15.5 34.5q0 51 92 111t158 60h1zM94 82q-2 0 -23 -12q-74 -42 -119 -87.5t-45 -76.5
q0 -21 34 -21q11 0 33 5q64 16 102 60.5t38 87.5q0 20 -9 35q-5 9 -11 9zM169 435q-31 -28 -46 -5q-5 9 -8 21q-3 8 -5 26q0 13 3 17q18 15 38 -20q2 -4 4 -4q3 0 6 2q13 9 28 13q13 4 19 0q13 -9 -13 -28l-13 -10q-5 -4 -13 -12z" />
    <glyph glyph-name="endash" unicode="&#x2013;" horiz-adv-x="349" 
d="M335 237q-14 2 -82 2q-52 0 -64 -1h-8q-30 0 -30 14t31 18q39 6 80 6q50 0 86 -8t36 -20q0 -4 -6 -9q-4 -4 -13 -4q-3 0 -6.5 0.5t-10.5 1t-13 0.5z" />
    <glyph glyph-name="emdash" unicode="&#x2014;" horiz-adv-x="392" 
d="M367 237q-15 2 -95 2q-62 0 -75 -1h-10q-35 0 -35 14t36 18q46 6 95 6q58 0 100 -8t42 -20q0 -5 -7 -9q-5 -4 -16 -4q-3 0 -7.5 0.5t-12.5 1t-15 0.5z" />
    <glyph glyph-name="quoteleft" unicode="&#x2018;" horiz-adv-x="165" 
d="M283 718q9 -4 9 -11q0 -10 -18 -19q-33 -16 -44 -51q-4 -16 -17 -16q-17 0 -17 24q0 25 26 50.5t49 25.5q7 0 12 -3z" />
    <glyph glyph-name="quoteright" unicode="&#x2019;" horiz-adv-x="165" 
d="M205 625q-9 5 -9 11q0 10 18 19q33 16 44 51q6 15 17 15q17 0 17 -23q0 -25 -26 -51t-49 -26q-7 0 -12 4z" />
    <glyph glyph-name="quotesinglbase" unicode="&#x201a;" horiz-adv-x="198" 
d="M19 -74q-9 4 -9 11q0 10 18 19q33 16 44 51q6 16 17 16q17 0 17 -24q0 -25 -26 -50.5t-49 -25.5q-6 0 -12 3z" />
    <glyph glyph-name="quotedblleft" unicode="&#x201c;" horiz-adv-x="236" 
d="M363 718q9 -4 9 -11q0 -10 -18 -19q-33 -16 -44 -51q-4 -16 -17 -16q-17 0 -17 24q0 25 26 50.5t49 25.5q7 0 12 -3zM283 718q9 -4 9 -11q0 -10 -18 -19q-33 -16 -44 -51q-4 -16 -17 -16q-17 0 -17 24q0 25 26 50.5t49 25.5q7 0 12 -3z" />
    <glyph glyph-name="quotedblright" unicode="&#x201d;" horiz-adv-x="238" 
d="M205 625q-9 5 -9 11q0 10 18 19q33 16 44 51q6 15 17 15q17 0 17 -23q0 -25 -26 -51t-49 -26q-7 0 -12 4zM285 625q-9 5 -9 11q0 10 18 19q33 16 44 51q6 15 17 15q17 0 17 -23q0 -25 -26 -51t-49 -26q-7 0 -12 4z" />
    <glyph glyph-name="quotedblbase" unicode="&#x201e;" horiz-adv-x="290" 
d="M19 -74q-9 4 -9 11q0 10 18 19q33 16 44 51q6 16 17 16q17 0 17 -24q0 -25 -26 -50.5t-49 -25.5q-6 0 -12 3zM99 -74q-9 4 -9 11q0 10 18 19q33 16 44 51q6 16 17 16q17 0 17 -24q0 -25 -26 -50.5t-49 -25.5q-6 0 -12 3z" />
    <glyph glyph-name="dagger" unicode="&#x2020;" horiz-adv-x="460" 
d="M412 400q61 -6 109 -18q31 -8 46.5 -15.5t14.5 -14.5q0 -5 -11 -11q-6 -2 -10 -3q-5 -2 -15 0q-20 2 -52 6q-10 2 -58 7l-42 3l-10 -27q-63 -169 -124 -422q-5 -21 -18 -63q-7 -19 -16 -22q-6 0 -11 4q-6 3 -8 11q-10 27 29 180q65 245 103 344l-53 4q-40 2 -47 2l-14 1
q-51 4 -51 22q0 14 55 19q77 2 128 -2q24 55 44 94q20 35 36 59q18 28 28 29q5 0 8 -1q8 -1 12 -7q3 -10 -18 -49q-18 -34 -55 -130z" />
    <glyph glyph-name="bullet" unicode="&#x2022;" horiz-adv-x="194" 
d="M139 140q-27 14 -29 34q-2 8 -2 11q0 19 15 33t34 14q11 0 20 -5q26 -13 26 -40q0 -20 -13.5 -35t-33.5 -15q-8 0 -17 3z" />
    <glyph glyph-name="ellipsis" unicode="&#x2026;" horiz-adv-x="372" 
d="M147 -16q-16 6 -18 20q-1 2 -1 7q0 11 9 19.5t20 8.5q6 0 12 -3q16 -7 16 -24q0 -12 -8 -21t-20 -9q-4 0 -10 2zM238 -16q-16 7 -18 20q0 1 -0.5 3t-0.5 4q0 11 9.5 19.5t20.5 8.5q6 0 12 -3q15 -7 15 -24q0 -12 -8 -21t-20 -9q-2 0 -10 2zM327 -16q-15 6 -17 20
q-1 2 -1 7q0 11 9 19.5t20 8.5q6 0 12 -3q16 -7 16 -24q0 -12 -8 -21t-20 -9q-3 0 -11 2z" />
    <glyph glyph-name="Euro" unicode="&#x20ac;" horiz-adv-x="495" 
d="M235 -100q-47 14 -75 66.5t-28 125.5v11q0 18 -3.5 23t-20.5 5q-4 0 -42 -2l-24 -2q-7 0 -14 5q-4 6 -4 9q0 20 91 23q22 1 23 3q0 2 4 16q5 20 7 27q4 14 5 16q0 2 -15 2q-56 0 -68 -7q-4 -2 -8 -2q-6 0 -11 4.5t-5 11.5q0 4 1 6q10 19 101 25l21 2l1 2q1 1 2 3.5t2 5.5
q41 92 108.5 147t128.5 55q76 0 99 -82q6 -18 6 -40q0 -29 -8.5 -53.5t-18.5 -24.5q-5 0 -9 4q-3 5 -3 11q0 2 0.5 5.5t1 9.5t0.5 11q2 16 2 22q0 44 -19.5 67t-52.5 23q-39 0 -85.5 -33.5t-83.5 -95.5q-17 -29 -17 -33q0 -5 12 -5q54 -3 71 -8t17 -18q0 -10 -5 -12.5
t-29 -2.5q-26 0 -47 1q-5 0 -12 0.5t-9 0.5q-15 0 -19.5 -6t-13.5 -36q-4 -16 -4 -17q0 -6 23 -7q65 -4 65 -22q0 -13 -34 -13q-28 0 -49 2h-4q-8 0 -9.5 -7.5t-1.5 -42.5q0 -66 26 -106.5t64 -40.5q30 0 59 25q19 16 49 56t45 70q16 30 26 30q6 0 6 -11q0 -17 -14 -44
q-36 -73 -85 -117t-94 -44q-11 0 -22 3z" />
    <glyph glyph-name="minus" unicode="&#x2212;" horiz-adv-x="349" 
d="M337 237q-13 2 -82 2q-54 0 -65 -1h-9q-30 0 -30 14t31 18q41 6 82 6q51 0 87 -8t36 -20q0 -4 -6 -9q-4 -4 -14 -4q-3 0 -6.5 0.5t-10.5 1t-13 0.5z" />
  </font>
</defs>
</svg>
